<svg xmlns="http://www.w3.org/2000/svg" width="178" height="173" fill="none" xmlns:v="https://vecta.io/nano"><style><![CDATA[.B{stroke-miterlimit:10}.C{stroke-width:.5}.D{stroke:#c6b1d8}.E{fill:#e1d4ea}.F{stroke:#ab78e7}.G{fill:#ab78e7}.H{stroke:#8a5fca}.I{stroke-width:.4}.J{fill:#7b20a1}]]></style><g class="B G H I"><path d="M136.936 27.544l-.964 1.219c-.555.941-1.061 1.91-1.515 2.904-.12.352-2.159-.255-2.559-1.96s.043-2.984 1.034-3.773 3-.557 3.501.526l.503 1.083z"/><path d="M131.419 17.665c.553.014 1.097.14 1.6.369a4.08 4.08 0 0 1 1.325.966c1.429 1.432 2.279 2.849 2.412 4.275s.272 2.895-.323 3.186-1.226-.295-2.089.422-1.845 1.4-2.761.912.294-2.247-1.146-3.811-2.979-5.732.982-6.319zm19.48 8.691s1.004-.693.785-1.493-1.022-1.213-2.191-1.587-2.228-1.065-3.068-1.392-1.246.218-1.463.691a3.15 3.15 0 0 0-.24 1.039l3.496 1.336 2.681 1.407z"/><path d="M151.715 24.696s2.907-5.018 4.443-6.665a23.32 23.32 0 0 1 2.369-2.293s-1.069-2.077-2.925-2.46-4.8 1.401-6.017 2.802-1.575 2.857-2.368 4.33l-.793 1.472s.589 2.526 5.291 2.813zm5.353 5.523l-2.865-1.904s.516-1.693 1.04-1.96 1.495.08 2.749 1.188 2.783 2.112 3.199 2.701c.17.217.263.485.263.76s-.093.543-.263.76a3.69 3.69 0 0 1-1.129.839l-2.994-2.384z"/><path d="M171.973 21.086s-3.724 2.904-5.605 4.849l-4.103 4.357c-.692.618-1.654.378-3.641-1.03s-2.827-2.817-2.378-3.646 6.062-6.835 8.3-7.629 6.436-.179 7.427 3.099zm-7.312 19.249a8.8 8.8 0 0 0-1.39-3.941 32.33 32.33 0 0 0-2.238-2.862s.62-.915 1.815 0 3.562 3.733 3.731 4.7-1.213 2.187-1.918 2.103z"/><path d="M162.348 33.238s.511-1.65 3.596-3.037 7.905-2.607 9.552-1.808c.571.276 1.024.744 1.28 1.322a2.64 2.64 0 0 1 .115 1.832c-.253.504-5.122 2.397-7.21 3.868s-2.299 3.07-3.103 2.817-3.431-3.933-4.23-4.994z"/></g><path d="M163.996 44.41s1.78-3.07-.475-7.559-8.901-8.383-13.055-10.744-7.12-2.834-7.12-2.834-5.341 1.653-8.071 6.612-.236 6.966-3.679 13.343-6.764 10.509-6.29 16.766 3.205 9.092 7.122 9.092 12.223-2.007 17.207-7.084 14.361-17.591 14.361-17.591z" class="B C D E"/><path d="M122.409 65.057c-.778-2.389.828-5.046 3.585-5.933s5.623.329 6.401 2.718-.828 5.045-3.587 5.933-5.622-.329-6.399-2.718z" class="B G H I"/><g class="C B"><path d="M114.268 75.246s1.314.691 6.679-.72 7.997-3.726 7.997-3.726 1.923-4.633-.506-8.46-4.353-4.431-4.353-4.431l-8.872 3.222c-4.086 1.512-3.358 1.658-2.567 4.23s2.725 8.41 1.622 9.885z" class="D E"/><path d="M158.527 33.126c-1.913.918-3.622 2.206-5.028 3.789a15.87 15.87 0 0 0-3.163 5.431c-2.39 6.872-2.182 10.491-8.002 14.42s-7.99 4.549-7.99 4.549m-5.44 5.69a27.26 27.26 0 0 1-6.616 3.471 39.49 39.49 0 0 1-7.075 1.746" class="F"/></g><path d="M57.247 117.647c-2.974 0-5.385-2.399-5.385-5.358s2.411-5.357 5.385-5.357 5.385 2.399 5.385 5.357-2.411 5.358-5.385 5.358z" class="B G H I"/><path d="M54.006 154.513s2.751 3.508 3.095 7.186.774 5.389.602 6.502-7.749 2.772-16.65 3.589-20.406-.954-22.734-1.909-1.643-3.27-1.643-3.27 3.15-5.723 6.711-8.72 7.122-4.769 9.861-6.132 15.36-1.987 20.759 2.754z" class="B C D E"/><path d="M50.207 136.17c-3.496-.336-6.029-3.718-5.657-7.554s3.508-6.675 7.004-6.339 6.029 3.718 5.657 7.554-3.508 6.674-7.004 6.339z" class="B G H I"/><g class="C D E B"><path d="M57.095 131.494s2.142 1.794 2.029 2.803-2.367 3.365-2.593 9.197-.564 10.317-.564 10.317-2.593 3.7-6.087 2.804-4.509-4.373-10.822-4.485-11.61 2.579-13.301 2.018.113-2.692 3.833-6.504 7.327-13.009 8.68-16.15 3.494-6.282 7.327-6.282 6.087 3.59 6.878 5.383 4.62.899 4.62.899z"/><path d="M63.958 117.027l-3.715-2.567c-1.296-1.182-2.91-1.963-4.644-2.247-2.858-.45-4.001.835-4.001.835l-6.623 11.391s4.765 2.795 7.48 3.501 4.002.705 4.002.705h2.787l4.716-11.618z"/></g><path d="M60.091 116.012s-3.486 7.661-4.602 11.664" class="B C F"/><path d="M50.351 169.551s-2.514-8.103-10.156-12.104-16.81.446-16.81.446" class="B C D"/><path d="M53.582 133.034l-.4 8.156c-.334 3.684-2.833 13.775-2.833 13.775" class="B C F"/><path d="M100.885 108.856c-2.829 0-5.124-2.283-5.124-5.099s2.294-5.098 5.124-5.098 5.124 2.282 5.124 5.098-2.293 5.099-5.124 5.099zm.076 23.502c-3.496-.335-6.029-3.717-5.657-7.554s3.508-6.674 7.004-6.339 6.029 3.718 5.657 7.555-3.508 6.674-7.004 6.338z" class="G H I B"/><path d="M107.831 105.478v14.551s.083 2.962-3.856 3.978-6.278.914-7.433.652-1.891-1.724-1.891-2.56-.896-12.047-.896-12.047 1.822-1.699 4.099-.906 3.53-.679 5.238-2.379 3.783-2.349 4.738-1.289zm-3.013 47.491s11.661.311 17.595 4.456 6.454 7.458 6.975 9.011-.729 2.073-20.927 2.073-23.425-.311-23.321-3.005 3.333-12.742 19.678-12.535z" class="C D E B"/><path d="M99.59 110.526v13.57" class="B C F"/><g class="D B C"><path d="M93.756 158.55s-1.797 2.799-.84 8.199"/><path d="M86.23 155.984s5.349-5.189 6.82-11.175 1.07-12.506 1.739-13.704 1.738-.266 4.546-1.33 6.107-3.897 6.677-4.942 3.269-2.506 4.984-1.613 1.717 2.023 1.303 7.773.414 14.683 1.549 17.25 3.303 4.416 3.2 5.957-3.097 3.696-7.844 3.079-10.425-.811-14.966.108-8.897 2.643-8.008-1.403z" class="E"/></g><g class="F B C"><path d="M94.802 155.639s2.549-3.103 2.869-9.931l.498-14.375"/><path d="M103.208 98.708c.304 2.091.304 4.214 0 6.305-.514 3.343-7.551 12.61-19.281 13.816s-21.977-3.009-25.751-6.133-6.473-6.61-6.204-8.489 33.303-14.62 51.236-5.499z" class="J"/></g><path d="M109.743 64.217s2.32 3.124 2.048 11.275-3.39 16.709-4.358 19.016-4.244 6.384-10.252 9.916-28.217 5.706-35.068 3.668-11.628-6.384-13.267-10.867-5.105-19.425-4.669-24.859S69.464 59.053 83.936 58.51s19.389 1.224 25.807 5.707z" class="B C D E"/><path d="M104.773 65.316s3.257 3.24 4.343 9.874-3.293 9.566-5.679 12.651-2.009 10.211-2.075 11.644c-.042.871-.239 1.729-.579 2.533 0 0-4.724 3.867-10.683 5.227s-19.313 1.632-19.313 1.632 1.699-9.481-1.133-13.426-8.157-3.268-10.99-9.017-1.133-12.85-1.926-16.795-1.247-4.848-1.247-4.848 17.889-5.888 29.79-6.325 14.541 1.003 14.541 1.003 3.631 4.121 4.951 5.847z" class="B C F J"/><path d="M112.114 59.629s3.924 2.603 4.252 8.569-1.069 8.624-3.502 9.337.898-8.034-2.379-11.451-6.349-3.578-5.849-5.45 4.861-2.414 7.478-1.005zm-84.246 42.279c-2.557-2.044-3.159-5.523-1.344-7.771s5.36-2.413 7.917-.369 3.159 5.523 1.344 7.772-5.36 2.412-7.917.368z" class="G H I B"/><path d="M43.467 80.889s1.966 1.353 2.286 4.482-1.523 5.296-2.585 6.853l-4.079 5.948s-1.08.389-4.535-.612-6.026-5.392-6.64-6.393 7.77-9.946 7.77-9.946 3.833-3.941 7.782-.333z" class="B C D E"/><path d="M52.663 80.395c.92 2.673 1.381 6.872-1.382 9.315s-5.832.535-6.139 0 2.53-4.422-1.677-8.821c-3.756-3.927-8.299.804-8.299.804s-1.688-3.436.537-5.803 6.423-3.01 10.336-1.788 5.701 3.619 6.623 6.292z" class="B G H I"/><g class="C D B"><path d="M77.635 1.025c14.14.371 43.213 2.08 48.263 34.588 4.777 36.741-35.452 46.017-61.539 45.233-25.436-.766-48.028-25.198-40.338-48.517C31.212 10.524 55.079.433 77.635 1.025z" class="E"/><g fill="#f7f7f7"><path d="M125.899 35.612c-.64-5.56-1.593-8.405-4.639-13.952s-7.985-7.562-10.961-7.437-8.041 3.465-10.636 7.118-11.148 3.666-18.82 1.472-20.626.181-23.77 14.696 6.975 26.734 17.322 30.697 30.044 3.409 40.821-7.075 11.322-19.959 10.684-25.519zm-90.358-1.418s10.902-.657 15.599 9.744c2.112 4.678 2.033 9.514.368 13.472a9.5 9.5 0 0 1-2.868 3.431c-2.225 1.675-7.868 4.211-11.983 4.641a13.67 13.67 0 0 1-3.405-.057c-7.388-2.037-12.544-8.53-13.403-17.078-1.075-10.69 12.42-14.276 15.694-14.153z"/><path d="M88.757 1.782s-16.284 0-28.361 7.613c-9.467 5.967-16.107 14.525-17.878 26.127a15.67 15.67 0 0 0-5.831-1.313c-3.37-.107-4.031.36-4.031.36s1.424-12.036 12.493-22.343S70.654 1.184 70.654 1.184s9.736-.506 18.104.598z"/></g></g><path d="M105.013 34.175c-.429-2.599-.065-4.822.811-4.966s1.936 1.848 2.365 4.447.065 4.822-.812 4.966-1.935-1.848-2.364-4.447zm-19.722 3.884c-.539-2.578-.271-4.814.599-4.994s2.012 1.764 2.551 4.342.271 4.814-.599 4.994-2.012-1.764-2.551-4.342zm11.476 7.032l1.679-.407 1.823-.531c2.595-.796 3.754-.838 3.565 1.309s-2.037 6.463-2.404 6.979c-.407.572-.825.71-1.516.385-.574-.27-4.327-3.06-5.573-4.824s-.219-2.305 2.426-2.912z" class="J"/><g class="B C"><path d="M52.744 89.485s1.468 9.902 4.822 15.954M43.964 84.143a36.67 36.67 0 0 1-8.256 12.579" class="F"/><g class="D"><path d="M51.589 54.656s-1.346 1.642-4.604 2.247m-12.75-31.102s-5.131-.775-8.008 1.184m12.55 38.127c.124 1.963.674 3.877 1.612 5.609s2.241 3.242 3.82 4.425"/><path d="M29.579 37.64s9.098-.883 14.972 9.983-4.346 18.882-10.662 17.968-10.301-6.05-12.573-11.135-1.584-8.745-.674-11.45 4.59-5.116 8.938-5.366z"/></g></g><path d="M27.046 52.459l1.594-1.325 1.863-1.598 1.812-1.579 1.422-1.29-5.318-.146c-.334.024-.665-.078-.927-.286-.092-.104-.162-.225-.205-.357a1 1 0 0 1-.044-.409c.005-.217.046-.432.12-.637a3.6 3.6 0 0 1 .172-.415l8.171.225c.33-.008.653.096.916.295.116.105.205.236.26.381a.99.99 0 0 1 .06.457 1.45 1.45 0 0 1-.2.704 4.04 4.04 0 0 1-.706.81l-.814.747-1.04.921-1.153.998-1.153.987-1.049.881-.849.697 6.786.187-.056 1.997-9.716-.268.055-1.977z" class="J"/><path d="M25.565 56.735c.246.151.517.258.8.316a8.82 8.82 0 0 0 1.439.379c.45.051.903.076 1.356.075.36.03.906.045 1.266.04l2.523-.087c.416-.029.809-.131 1.226-.201l1.128-.18c.64-.14 1.337-.422 1.977-.586.285-.074.576-.223.862-.31.211-.075.235-.153.392-.391-.153-.087-.325-.135-.501-.142-.169 0-.262 0-.366-.005-.222-.011-.445-.011-.667 0-.83.088-1.953.016-2.216.032-.416.025-.849-.033-1.264-.02l-.724.019-1.202.021c-.769-.011-1.411.01-2.18-.029l-.894-.073c-.574-.026-1.021-.263-1.755-.146-.228.037-.45.099-.665.185-.19.121-.37.259-.536.411-.066.05-.263.569-.001.691z" fill="#ffbd07"/><g class="B"><g class="C"><path d="M33.636 113.503s-3.09 5.483-5.758 9.724-3.81 4.655-3.81 4.655-3.015 1.138-7.277 0-11.02-6.608-12.892-10.235-2.079-4.868.416-7.041 9.046-8.743 11.125-11.302 7.047-7.159 9.679-6.698 4.774 1.345 5.501 4.034.728 5.483 2.496 7.551 2.599 4.035.52 9.312z" class="D E"/><path d="M31.724 103.334s-1.635 5.41-3.845 6.708-5.045 1.372-6.042 4.879.077 4.617-2.375 8.065l-2.835 3.828" class="F"/></g><g class="G H I"><path d="M29.302 120.928l.24 3.398c.2 2.036-1.333 3.845-3.133 4.372s-2.533-.151-2.667-.98 3.76-7.695 5.56-6.79zm-7.637 4.248s1.275 1.495.552 2.948-2.648 3.186-5.078 2.582-2.859-2.143-2.019-3.677 3.447-3.572 6.546-1.853zM13.83 122.9c.224.219.387.494.47.795a1.78 1.78 0 0 1 .006.922 3.09 3.09 0 0 1-1.168 1.919 3.12 3.12 0 0 1-2.165.627c-2.202-.059-4.285-1.776-4.344-2.842s1.071-1.954 3.511-2.842 3.69 1.421 3.69 1.421zm-6.902-7.283s.714.356.595 1.54-.833 3.547-3.511 3.225-2.714-3.872-1.327-5.473 3.736.057 4.243.708z"/><path d="M27.679 126.576s1.678.385 1.879 1.609-.977 4.018-1.879 5.539-2.013 2.038-2.879 1.865-2.43-2.383-2.325-4.213 1.421-5.732 5.204-4.8zm-7.43 3.652a6.96 6.96 0 0 1-.227 2.136c-.312 1.244-2.459 4.701-4.724 5.555s-4.223.388-4.805-.66.276-1.692 1.018-2.964 2.577-5.808 3.631-5.907 4.515.442 5.107 1.84zM3.898 117.647a4.39 4.39 0 0 1 1.29 1.179 4.38 4.38 0 0 1 .727 1.585c.44 1.933.36 5.584-.263 7.021s-1.874 1.467-2.733 1.452-1.249-1.135-1.328-4.362-.664-5.519-.585-6.604 1.946-1.035 2.891-.271z"/><path d="M11.119 126.435a14.58 14.58 0 0 1-.234 2.449c-.234 1.189-3.592 6.886-6.558 6.737s-1.523-3.839-.469-5.703 1.464-5.07 2.342-5.904 4.762-1.101 4.918 2.421z"/></g><path d="M99.785 109.677c-.304-1.85-.304-3.734 0-5.583m-28.593 5.582s0 3.909-1.861 6.814" class="C F"/></g></svg>