<svg width="421.77" height="29.28" viewBox="0 0 421.77 29.28" xmlns="http://www.w3.org/2000/svg"><g id="svgGroup" stroke-linecap="round" fill-rule="evenodd" font-size="9pt" stroke="#ffffff" stroke-width="0.25mm" fill="#ffffff" style="stroke:#ffffff;stroke-width:0.25mm;fill:#ffffff"><path d="M 77.16 17.55 L 77.19 17.04 A 63.455 63.455 0 0 0 78.791 16.474 A 48.05 48.05 0 0 0 80.235 15.915 A 12.907 12.907 0 0 0 81.176 15.49 Q 81.619 15.268 81.98 15.034 A 6.058 6.058 0 0 0 82.41 14.73 Q 83.49 13.86 84.12 12.63 A 5.792 5.792 0 0 0 84.748 10.113 A 6.757 6.757 0 0 0 84.75 9.93 A 10.206 10.206 0 0 0 84.746 9.626 Q 84.731 9.143 84.667 8.92 A 0.589 0.589 0 0 0 84.63 8.82 A 0.519 0.519 0 0 0 84.546 8.696 A 0.362 0.362 0 0 0 84.27 8.58 A 2.002 2.002 0 0 0 83.591 8.706 Q 83.316 8.805 83.027 8.982 A 4.53 4.53 0 0 0 82.65 9.24 A 6.934 6.934 0 0 0 81.848 9.961 Q 81.504 10.318 81.165 10.755 A 12.254 12.254 0 0 0 80.94 11.055 A 15.607 15.607 0 0 0 79.943 12.622 A 19.074 19.074 0 0 0 79.395 13.68 Q 78.69 15.15 78.27 16.815 Q 77.85 18.48 77.85 20.13 Q 77.85 21.515 78.317 22.199 A 1.663 1.663 0 0 0 78.42 22.335 A 1.842 1.842 0 0 0 79.763 23.005 A 2.441 2.441 0 0 0 79.92 23.01 A 4.021 4.021 0 0 0 81.101 22.824 Q 81.57 22.68 82.06 22.425 A 7.015 7.015 0 0 0 82.2 22.35 A 5.023 5.023 0 0 0 83.147 21.662 Q 83.545 21.301 83.936 20.824 A 11.295 11.295 0 0 0 84.54 20.01 L 85.02 20.25 A 8.577 8.577 0 0 1 84.167 21.464 A 10.657 10.657 0 0 1 83.52 22.17 Q 82.59 23.1 81.435 23.685 Q 80.28 24.27 78.99 24.27 A 5.091 5.091 0 0 1 77.931 24.165 A 3.938 3.938 0 0 1 76.89 23.79 Q 75.99 23.31 75.51 22.365 A 4.183 4.183 0 0 1 75.15 21.314 Q 75.03 20.731 75.03 20.04 A 8.282 8.282 0 0 1 75.135 18.761 Q 75.255 17.998 75.51 17.145 A 15.879 15.879 0 0 1 76.507 14.637 A 18.302 18.302 0 0 1 76.875 13.935 Q 77.76 12.33 78.99 10.98 A 10.524 10.524 0 0 1 81.156 9.15 A 9.682 9.682 0 0 1 81.72 8.82 Q 83.22 8.01 84.93 8.01 A 2.899 2.899 0 0 1 85.713 8.111 A 2.309 2.309 0 0 1 86.505 8.505 A 1.594 1.594 0 0 1 87.099 9.472 A 2.482 2.482 0 0 1 87.15 9.99 Q 87.15 11.19 86.445 12.225 A 7.367 7.367 0 0 1 85.326 13.506 A 9.167 9.167 0 0 1 84.585 14.115 Q 83.43 14.97 82.08 15.63 A 30.21 30.21 0 0 1 80.089 16.519 A 26.488 26.488 0 0 1 79.44 16.77 A 51.179 51.179 0 0 1 78.515 17.105 Q 78.009 17.282 77.558 17.426 A 27.588 27.588 0 0 1 77.16 17.55 Z M 221.76 17.55 L 221.79 17.04 A 63.455 63.455 0 0 0 223.391 16.474 A 48.05 48.05 0 0 0 224.835 15.915 A 12.907 12.907 0 0 0 225.776 15.49 Q 226.219 15.268 226.58 15.034 A 6.058 6.058 0 0 0 227.01 14.73 Q 228.09 13.86 228.72 12.63 A 5.792 5.792 0 0 0 229.348 10.113 A 6.757 6.757 0 0 0 229.35 9.93 A 10.206 10.206 0 0 0 229.346 9.626 Q 229.331 9.143 229.267 8.92 A 0.589 0.589 0 0 0 229.23 8.82 A 0.519 0.519 0 0 0 229.146 8.696 A 0.362 0.362 0 0 0 228.87 8.58 A 2.002 2.002 0 0 0 228.191 8.706 Q 227.916 8.805 227.627 8.982 A 4.53 4.53 0 0 0 227.25 9.24 A 6.934 6.934 0 0 0 226.448 9.961 Q 226.104 10.318 225.765 10.755 A 12.254 12.254 0 0 0 225.54 11.055 A 15.607 15.607 0 0 0 224.543 12.622 A 19.074 19.074 0 0 0 223.995 13.68 Q 223.29 15.15 222.87 16.815 Q 222.45 18.48 222.45 20.13 Q 222.45 21.515 222.917 22.199 A 1.663 1.663 0 0 0 223.02 22.335 A 1.842 1.842 0 0 0 224.363 23.005 A 2.441 2.441 0 0 0 224.52 23.01 A 4.021 4.021 0 0 0 225.701 22.824 Q 226.17 22.68 226.66 22.425 A 7.015 7.015 0 0 0 226.8 22.35 A 5.023 5.023 0 0 0 227.747 21.662 Q 228.145 21.301 228.536 20.824 A 11.295 11.295 0 0 0 229.14 20.01 L 229.62 20.25 A 8.577 8.577 0 0 1 228.767 21.464 A 10.657 10.657 0 0 1 228.12 22.17 Q 227.19 23.1 226.035 23.685 Q 224.88 24.27 223.59 24.27 A 5.091 5.091 0 0 1 222.531 24.165 A 3.938 3.938 0 0 1 221.49 23.79 Q 220.59 23.31 220.11 22.365 A 4.183 4.183 0 0 1 219.75 21.314 Q 219.63 20.731 219.63 20.04 A 8.282 8.282 0 0 1 219.735 18.761 Q 219.855 17.998 220.11 17.145 A 15.879 15.879 0 0 1 221.107 14.637 A 18.302 18.302 0 0 1 221.475 13.935 Q 222.36 12.33 223.59 10.98 A 10.524 10.524 0 0 1 225.756 9.15 A 9.682 9.682 0 0 1 226.32 8.82 Q 227.82 8.01 229.53 8.01 A 2.899 2.899 0 0 1 230.313 8.111 A 2.309 2.309 0 0 1 231.105 8.505 A 1.594 1.594 0 0 1 231.699 9.472 A 2.482 2.482 0 0 1 231.75 9.99 Q 231.75 11.19 231.045 12.225 A 7.367 7.367 0 0 1 229.926 13.506 A 9.167 9.167 0 0 1 229.185 14.115 Q 228.03 14.97 226.68 15.63 A 30.21 30.21 0 0 1 224.689 16.519 A 26.488 26.488 0 0 1 224.04 16.77 A 51.179 51.179 0 0 1 223.115 17.105 Q 222.609 17.282 222.158 17.426 A 27.588 27.588 0 0 1 221.76 17.55 Z M 355.44 17.55 L 355.47 17.04 A 63.455 63.455 0 0 0 357.071 16.474 A 48.05 48.05 0 0 0 358.515 15.915 A 12.907 12.907 0 0 0 359.456 15.49 Q 359.899 15.268 360.26 15.034 A 6.058 6.058 0 0 0 360.69 14.73 Q 361.77 13.86 362.4 12.63 A 5.792 5.792 0 0 0 363.028 10.113 A 6.757 6.757 0 0 0 363.03 9.93 A 10.206 10.206 0 0 0 363.026 9.626 Q 363.011 9.143 362.947 8.92 A 0.589 0.589 0 0 0 362.91 8.82 A 0.519 0.519 0 0 0 362.826 8.696 A 0.362 0.362 0 0 0 362.55 8.58 A 2.002 2.002 0 0 0 361.871 8.706 Q 361.596 8.805 361.307 8.982 A 4.53 4.53 0 0 0 360.93 9.24 A 6.934 6.934 0 0 0 360.128 9.961 Q 359.784 10.318 359.445 10.755 A 12.254 12.254 0 0 0 359.22 11.055 A 15.607 15.607 0 0 0 358.223 12.622 A 19.074 19.074 0 0 0 357.675 13.68 Q 356.97 15.15 356.55 16.815 Q 356.13 18.48 356.13 20.13 Q 356.13 21.515 356.597 22.199 A 1.663 1.663 0 0 0 356.7 22.335 A 1.842 1.842 0 0 0 358.043 23.005 A 2.441 2.441 0 0 0 358.2 23.01 A 4.021 4.021 0 0 0 359.381 22.824 Q 359.85 22.68 360.34 22.425 A 7.015 7.015 0 0 0 360.48 22.35 A 5.023 5.023 0 0 0 361.427 21.662 Q 361.825 21.301 362.216 20.824 A 11.295 11.295 0 0 0 362.82 20.01 L 363.3 20.25 A 8.577 8.577 0 0 1 362.447 21.464 A 10.657 10.657 0 0 1 361.8 22.17 Q 360.87 23.1 359.715 23.685 Q 358.56 24.27 357.27 24.27 A 5.091 5.091 0 0 1 356.211 24.165 A 3.938 3.938 0 0 1 355.17 23.79 Q 354.27 23.31 353.79 22.365 A 4.183 4.183 0 0 1 353.43 21.314 Q 353.31 20.731 353.31 20.04 A 8.282 8.282 0 0 1 353.415 18.761 Q 353.535 17.998 353.79 17.145 A 15.879 15.879 0 0 1 354.787 14.637 A 18.302 18.302 0 0 1 355.155 13.935 Q 356.04 12.33 357.27 10.98 A 10.524 10.524 0 0 1 359.436 9.15 A 9.682 9.682 0 0 1 360 8.82 Q 361.5 8.01 363.21 8.01 A 2.899 2.899 0 0 1 363.993 8.111 A 2.309 2.309 0 0 1 364.785 8.505 A 1.594 1.594 0 0 1 365.379 9.472 A 2.482 2.482 0 0 1 365.43 9.99 Q 365.43 11.19 364.725 12.225 A 7.367 7.367 0 0 1 363.606 13.506 A 9.167 9.167 0 0 1 362.865 14.115 Q 361.71 14.97 360.36 15.63 A 30.21 30.21 0 0 1 358.369 16.519 A 26.488 26.488 0 0 1 357.72 16.77 A 51.179 51.179 0 0 1 356.795 17.105 Q 356.289 17.282 355.838 17.426 A 27.588 27.588 0 0 1 355.44 17.55 Z M 36.75 23.25 L 37.44 19.41 A 83.706 83.706 0 0 1 38.28 17.182 Q 38.968 15.439 39.615 14.07 Q 40.397 12.415 41.171 11.248 A 12.906 12.906 0 0 1 41.67 10.545 A 9.509 9.509 0 0 1 42.443 9.647 Q 42.881 9.202 43.33 8.887 A 4.923 4.923 0 0 1 43.77 8.61 A 4.649 4.649 0 0 1 45.512 8.039 A 4.474 4.474 0 0 1 46.02 8.01 Q 47.334 8.01 47.88 8.596 A 1.32 1.32 0 0 1 47.955 8.685 Q 48.426 9.291 48.426 10.199 A 3.707 3.707 0 0 1 48.42 10.41 A 8.044 8.044 0 0 1 48.105 12.203 A 9.19 9.19 0 0 1 48 12.54 L 45.09 21.3 Q 44.877 21.993 44.877 22.497 A 2.217 2.217 0 0 0 44.88 22.62 A 0.633 0.633 0 0 0 44.94 22.868 Q 45.07 23.13 45.475 23.157 A 1.449 1.449 0 0 0 45.57 23.16 A 1.141 1.141 0 0 0 46.119 23.012 Q 46.295 22.916 46.471 22.758 A 2.79 2.79 0 0 0 46.695 22.53 A 3 3 0 0 0 46.995 22.113 Q 47.279 21.649 47.581 20.9 A 18.44 18.44 0 0 0 47.88 20.1 L 48.27 18.99 L 48.84 18.99 L 48.09 21.18 A 7.707 7.707 0 0 1 47.778 21.975 Q 47.598 22.364 47.392 22.671 A 3.442 3.442 0 0 1 47.055 23.1 A 4.26 4.26 0 0 1 46.515 23.592 Q 46.176 23.85 45.819 23.994 A 2.623 2.623 0 0 1 45.765 24.015 Q 45.09 24.27 44.46 24.27 Q 43.26 24.27 42.78 23.73 A 1.59 1.59 0 0 1 42.423 23.023 Q 42.341 22.671 42.375 22.23 A 7.522 7.522 0 0 1 42.501 21.344 Q 42.621 20.745 42.84 20.07 L 45.69 11.49 Q 45.819 11.103 45.926 10.606 A 12.118 12.118 0 0 0 45.96 10.44 A 2.674 2.674 0 0 0 46.001 10.165 Q 46.029 9.869 45.977 9.619 A 1.402 1.402 0 0 0 45.915 9.405 Q 45.782 9.055 45.289 8.987 A 1.897 1.897 0 0 0 45.03 8.97 A 1.949 1.949 0 0 0 44.335 9.106 Q 43.896 9.273 43.425 9.645 A 6.862 6.862 0 0 0 42.73 10.283 Q 42.208 10.827 41.67 11.58 Q 40.77 12.84 39.9 14.61 A 36.365 36.365 0 0 0 38.945 16.729 A 46.245 46.245 0 0 0 38.235 18.555 A 55.456 55.456 0 0 0 37.282 21.409 A 66.424 66.424 0 0 0 36.75 23.25 Z M 159.18 20.07 L 162.03 11.49 A 6.688 6.688 0 0 0 162.245 10.648 A 4.883 4.883 0 0 0 162.33 9.765 A 1.399 1.399 0 0 0 162.302 9.47 Q 162.209 9.04 161.809 8.98 A 0.93 0.93 0 0 0 161.67 8.97 Q 161.018 8.97 160.319 9.521 A 5.004 5.004 0 0 0 159.78 10.02 Q 159.107 10.734 158.407 11.856 A 21.902 21.902 0 0 0 157.74 13.005 A 35.337 35.337 0 0 0 156.759 14.964 Q 156.274 16.007 155.793 17.193 A 59.113 59.113 0 0 0 155.655 17.535 A 67.73 67.73 0 0 0 154.514 20.62 A 85.479 85.479 0 0 0 153.66 23.25 L 154.35 19.41 A 115.311 115.311 0 0 1 155.202 17.203 Q 155.891 15.474 156.51 14.115 A 30.184 30.184 0 0 1 157.248 12.6 Q 157.621 11.889 157.989 11.298 A 14.054 14.054 0 0 1 158.46 10.59 A 9.537 9.537 0 0 1 159.185 9.685 Q 159.579 9.253 159.983 8.939 A 4.737 4.737 0 0 1 160.44 8.625 Q 161.46 8.01 162.66 8.01 Q 163.375 8.01 163.829 8.242 A 1.342 1.342 0 0 1 164.37 8.73 Q 164.756 9.347 164.756 10.196 A 4.003 4.003 0 0 1 164.745 10.485 Q 164.67 11.52 164.34 12.54 L 161.43 21.3 A 6.821 6.821 0 0 0 161.313 21.701 Q 161.17 22.259 161.207 22.604 A 1.068 1.068 0 0 0 161.22 22.695 A 0.557 0.557 0 0 0 161.34 22.957 Q 161.498 23.141 161.839 23.158 A 1.433 1.433 0 0 0 161.91 23.16 A 1.141 1.141 0 0 0 162.459 23.012 Q 162.635 22.916 162.811 22.758 A 2.79 2.79 0 0 0 163.035 22.53 A 3 3 0 0 0 163.335 22.113 Q 163.619 21.649 163.921 20.9 A 18.44 18.44 0 0 0 164.22 20.1 L 164.61 18.99 L 165.18 18.99 L 164.43 21.18 A 7.707 7.707 0 0 1 164.118 21.975 Q 163.938 22.364 163.732 22.671 A 3.442 3.442 0 0 1 163.395 23.1 A 4.26 4.26 0 0 1 162.855 23.592 Q 162.516 23.85 162.159 23.994 A 2.623 2.623 0 0 1 162.105 24.015 Q 161.43 24.27 160.8 24.27 Q 160.05 24.27 159.615 24.045 A 1.949 1.949 0 0 1 159.208 23.768 A 1.614 1.614 0 0 1 158.94 23.46 Q 158.58 22.89 158.7 22.035 A 9.05 9.05 0 0 1 158.844 21.268 Q 158.972 20.712 159.18 20.07 Z M 304.41 20.07 L 307.26 11.49 A 6.688 6.688 0 0 0 307.475 10.648 A 4.883 4.883 0 0 0 307.56 9.765 A 1.399 1.399 0 0 0 307.532 9.47 Q 307.439 9.04 307.039 8.98 A 0.93 0.93 0 0 0 306.9 8.97 Q 306.248 8.97 305.549 9.521 A 5.004 5.004 0 0 0 305.01 10.02 Q 304.337 10.734 303.637 11.856 A 21.902 21.902 0 0 0 302.97 13.005 A 35.337 35.337 0 0 0 301.989 14.964 Q 301.504 16.007 301.023 17.193 A 59.113 59.113 0 0 0 300.885 17.535 A 67.73 67.73 0 0 0 299.744 20.62 A 85.479 85.479 0 0 0 298.89 23.25 L 299.58 19.41 A 115.311 115.311 0 0 1 300.432 17.203 Q 301.121 15.474 301.74 14.115 A 30.184 30.184 0 0 1 302.478 12.6 Q 302.851 11.889 303.219 11.298 A 14.054 14.054 0 0 1 303.69 10.59 A 9.537 9.537 0 0 1 304.415 9.685 Q 304.809 9.253 305.213 8.939 A 4.737 4.737 0 0 1 305.67 8.625 Q 306.69 8.01 307.89 8.01 Q 308.605 8.01 309.059 8.242 A 1.342 1.342 0 0 1 309.6 8.73 Q 309.986 9.347 309.986 10.196 A 4.003 4.003 0 0 1 309.975 10.485 Q 309.9 11.52 309.57 12.54 L 306.66 21.3 A 6.821 6.821 0 0 0 306.543 21.701 Q 306.4 22.259 306.437 22.604 A 1.068 1.068 0 0 0 306.45 22.695 A 0.557 0.557 0 0 0 306.57 22.957 Q 306.728 23.141 307.069 23.158 A 1.433 1.433 0 0 0 307.14 23.16 A 1.141 1.141 0 0 0 307.689 23.012 Q 307.865 22.916 308.041 22.758 A 2.79 2.79 0 0 0 308.265 22.53 A 3 3 0 0 0 308.565 22.113 Q 308.849 21.649 309.151 20.9 A 18.44 18.44 0 0 0 309.45 20.1 L 309.84 18.99 L 310.41 18.99 L 309.66 21.18 A 7.707 7.707 0 0 1 309.348 21.975 Q 309.168 22.364 308.962 22.671 A 3.442 3.442 0 0 1 308.625 23.1 A 4.26 4.26 0 0 1 308.085 23.592 Q 307.746 23.85 307.389 23.994 A 2.623 2.623 0 0 1 307.335 24.015 Q 306.66 24.27 306.03 24.27 Q 305.28 24.27 304.845 24.045 A 1.949 1.949 0 0 1 304.438 23.768 A 1.614 1.614 0 0 1 304.17 23.46 Q 303.81 22.89 303.93 22.035 A 9.05 9.05 0 0 1 304.074 21.268 Q 304.202 20.712 304.41 20.07 Z M 186.78 9.63 L 186.18 13.47 A 74.882 74.882 0 0 1 185.383 15.589 Q 184.729 17.246 184.11 18.54 A 26.028 26.028 0 0 1 183.37 19.979 Q 182.995 20.651 182.622 21.206 A 12.157 12.157 0 0 1 182.145 21.87 A 9.435 9.435 0 0 1 181.41 22.718 Q 181.005 23.129 180.595 23.423 A 4.757 4.757 0 0 1 180.165 23.7 A 4.318 4.318 0 0 1 178.756 24.213 A 4.009 4.009 0 0 1 178.08 24.27 A 4.604 4.604 0 0 1 177.394 24.223 Q 177.043 24.169 176.763 24.057 A 1.773 1.773 0 0 1 176.16 23.67 A 2.001 2.001 0 0 1 175.613 22.619 A 2.912 2.912 0 0 1 175.56 22.05 A 5.973 5.973 0 0 1 175.646 21.07 Q 175.75 20.445 175.98 19.74 L 178.89 10.98 A 6.218 6.218 0 0 0 179.009 10.581 Q 179.169 9.968 179.1 9.6 A 0.592 0.592 0 0 0 178.991 9.342 Q 178.818 9.12 178.41 9.12 A 1.141 1.141 0 0 0 177.861 9.268 Q 177.685 9.364 177.509 9.522 A 2.79 2.79 0 0 0 177.285 9.75 A 3 3 0 0 0 176.985 10.167 Q 176.701 10.631 176.399 11.38 A 18.44 18.44 0 0 0 176.1 12.18 L 175.71 13.29 L 175.14 13.29 L 175.89 11.1 A 8.207 8.207 0 0 1 176.219 10.305 Q 176.551 9.613 176.955 9.18 A 4.26 4.26 0 0 1 177.495 8.688 Q 177.834 8.43 178.191 8.286 A 2.623 2.623 0 0 1 178.245 8.265 Q 178.92 8.01 179.52 8.01 A 4.399 4.399 0 0 1 180.116 8.047 Q 180.947 8.161 181.275 8.625 A 1.882 1.882 0 0 1 181.589 9.402 Q 181.646 9.727 181.614 10.107 A 3.625 3.625 0 0 1 181.605 10.2 Q 181.5 11.16 181.14 12.21 L 178.29 20.79 A 8.429 8.429 0 0 0 178.158 21.222 Q 177.643 23.099 178.694 23.289 A 1.444 1.444 0 0 0 178.95 23.31 A 1.865 1.865 0 0 0 179.621 23.178 Q 179.881 23.078 180.152 22.902 A 4.155 4.155 0 0 0 180.48 22.665 A 6.265 6.265 0 0 0 181.137 22.054 Q 181.444 21.727 181.755 21.321 A 13.026 13.026 0 0 0 182.13 20.805 A 18.324 18.324 0 0 0 182.914 19.56 Q 183.246 18.987 183.576 18.337 A 30.386 30.386 0 0 0 183.795 17.895 A 36.504 36.504 0 0 0 184.704 15.865 A 46.653 46.653 0 0 0 185.385 14.115 A 47.06 47.06 0 0 0 186.373 11.099 A 55.56 55.56 0 0 0 186.78 9.63 Z M 267.45 9.63 L 266.85 13.47 A 74.882 74.882 0 0 1 266.053 15.589 Q 265.399 17.246 264.78 18.54 A 26.028 26.028 0 0 1 264.04 19.979 Q 263.665 20.651 263.292 21.206 A 12.157 12.157 0 0 1 262.815 21.87 A 9.435 9.435 0 0 1 262.08 22.718 Q 261.675 23.129 261.265 23.423 A 4.757 4.757 0 0 1 260.835 23.7 A 4.318 4.318 0 0 1 259.426 24.213 A 4.009 4.009 0 0 1 258.75 24.27 A 4.604 4.604 0 0 1 258.064 24.223 Q 257.713 24.169 257.433 24.057 A 1.773 1.773 0 0 1 256.83 23.67 A 2.001 2.001 0 0 1 256.283 22.619 A 2.912 2.912 0 0 1 256.23 22.05 A 5.973 5.973 0 0 1 256.316 21.07 Q 256.42 20.445 256.65 19.74 L 259.56 10.98 A 6.218 6.218 0 0 0 259.679 10.581 Q 259.839 9.968 259.77 9.6 A 0.592 0.592 0 0 0 259.661 9.342 Q 259.488 9.12 259.08 9.12 A 1.141 1.141 0 0 0 258.531 9.268 Q 258.355 9.364 258.179 9.522 A 2.79 2.79 0 0 0 257.955 9.75 A 3 3 0 0 0 257.655 10.167 Q 257.371 10.631 257.069 11.38 A 18.44 18.44 0 0 0 256.77 12.18 L 256.38 13.29 L 255.81 13.29 L 256.56 11.1 A 8.207 8.207 0 0 1 256.889 10.305 Q 257.221 9.613 257.625 9.18 A 4.26 4.26 0 0 1 258.165 8.688 Q 258.504 8.43 258.861 8.286 A 2.623 2.623 0 0 1 258.915 8.265 Q 259.59 8.01 260.19 8.01 A 4.399 4.399 0 0 1 260.786 8.047 Q 261.617 8.161 261.945 8.625 A 1.882 1.882 0 0 1 262.259 9.402 Q 262.316 9.727 262.284 10.107 A 3.625 3.625 0 0 1 262.275 10.2 Q 262.17 11.16 261.81 12.21 L 258.96 20.79 A 8.429 8.429 0 0 0 258.828 21.222 Q 258.313 23.099 259.364 23.289 A 1.444 1.444 0 0 0 259.62 23.31 A 1.865 1.865 0 0 0 260.291 23.178 Q 260.551 23.078 260.822 22.902 A 4.155 4.155 0 0 0 261.15 22.665 A 6.265 6.265 0 0 0 261.807 22.054 Q 262.114 21.727 262.425 21.321 A 13.026 13.026 0 0 0 262.8 20.805 A 18.324 18.324 0 0 0 263.584 19.56 Q 263.916 18.987 264.246 18.337 A 30.386 30.386 0 0 0 264.465 17.895 A 36.504 36.504 0 0 0 265.374 15.865 A 46.653 46.653 0 0 0 266.055 14.115 A 47.06 47.06 0 0 0 267.043 11.099 A 55.56 55.56 0 0 0 267.45 9.63 Z M 369.99 21.81 L 370.86 17.61 Q 371.91 14.91 372.9 13.08 A 23.494 23.494 0 0 1 373.638 11.807 Q 374.25 10.828 374.85 10.125 Q 375.81 9 376.815 8.505 Q 377.82 8.01 378.9 8.01 Q 380.214 8.01 380.76 8.596 A 1.32 1.32 0 0 1 380.835 8.685 A 2.21 2.21 0 0 1 381.269 9.706 Q 381.306 9.935 381.306 10.186 A 3.603 3.603 0 0 1 381.3 10.395 A 8.094 8.094 0 0 1 381.076 11.854 A 9.738 9.738 0 0 1 380.88 12.54 L 377.97 21.3 Q 377.702 22.103 377.744 22.626 A 1.647 1.647 0 0 0 377.745 22.635 Q 377.786 23.114 378.338 23.156 A 1.465 1.465 0 0 0 378.45 23.16 A 1.141 1.141 0 0 0 378.999 23.012 Q 379.175 22.916 379.351 22.758 A 2.79 2.79 0 0 0 379.575 22.53 A 3 3 0 0 0 379.875 22.113 Q 380.159 21.649 380.461 20.9 A 18.44 18.44 0 0 0 380.76 20.1 L 381.15 18.99 L 381.72 18.99 L 380.97 21.18 A 7.707 7.707 0 0 1 380.658 21.975 Q 380.478 22.364 380.272 22.671 A 3.442 3.442 0 0 1 379.935 23.1 A 4.26 4.26 0 0 1 379.395 23.592 Q 379.056 23.85 378.699 23.994 A 2.623 2.623 0 0 1 378.645 24.015 Q 377.97 24.27 377.34 24.27 Q 376.62 24.27 376.155 24.03 Q 375.69 23.79 375.45 23.4 A 1.604 1.604 0 0 1 375.248 22.867 Q 375.172 22.481 375.24 21.99 Q 375.36 21.12 375.72 20.07 L 378.57 11.49 A 4.974 4.974 0 0 0 378.693 11.091 Q 378.748 10.883 378.795 10.646 A 9.102 9.102 0 0 0 378.825 10.485 A 2.751 2.751 0 0 0 378.864 10.17 Q 378.889 9.771 378.78 9.435 Q 378.63 8.97 377.91 8.97 A 1.91 1.91 0 0 0 377.227 9.104 Q 376.971 9.202 376.704 9.371 A 4.162 4.162 0 0 0 376.38 9.6 Q 375.75 10.09 375.084 10.897 A 14.029 14.029 0 0 0 374.7 11.385 Q 373.858 12.503 373.043 14.044 A 27.646 27.646 0 0 0 372.99 14.145 A 34.133 34.133 0 0 0 371.969 16.28 A 41.997 41.997 0 0 0 371.385 17.685 A 43.722 43.722 0 0 0 370.313 20.731 A 50.125 50.125 0 0 0 369.99 21.81 Z M 137.28 12.27 L 136.77 15.51 A 45.172 45.172 0 0 1 135.986 17.549 Q 135.612 18.452 135.238 19.221 A 20.052 20.052 0 0 1 134.49 20.625 A 14.312 14.312 0 0 1 133.739 21.779 Q 133.352 22.31 132.963 22.719 A 5.884 5.884 0 0 1 132.18 23.415 A 4.906 4.906 0 0 1 131.224 23.969 A 3.557 3.557 0 0 1 129.81 24.27 A 3.08 3.08 0 0 1 128.933 24.152 A 2.24 2.24 0 0 1 127.695 23.25 Q 127.035 22.295 126.993 20.84 A 6.932 6.932 0 0 1 126.99 20.64 A 10.033 10.033 0 0 1 127.125 19.038 A 13.626 13.626 0 0 1 127.47 17.505 A 18.391 18.391 0 0 1 128.597 14.55 A 20.521 20.521 0 0 1 128.805 14.13 A 17.748 17.748 0 0 1 130.564 11.331 A 16.319 16.319 0 0 1 130.77 11.07 Q 131.88 9.69 133.185 8.85 A 5.535 5.535 0 0 1 134.449 8.237 A 4.425 4.425 0 0 1 135.84 8.01 A 1.651 1.651 0 0 1 137.173 8.635 A 2.478 2.478 0 0 1 137.445 9.045 A 2.763 2.763 0 0 1 137.706 9.775 Q 137.89 10.633 137.685 11.852 A 9.64 9.64 0 0 1 137.67 11.94 L 137.34 12.12 Q 137.55 10.53 137.13 9.555 Q 136.71 8.58 135.75 8.58 A 1.835 1.835 0 0 0 135.028 8.737 Q 134.763 8.85 134.491 9.043 A 4.293 4.293 0 0 0 134.115 9.345 Q 133.382 10.001 132.693 11.053 A 13.233 13.233 0 0 0 132.465 11.415 A 18.038 18.038 0 0 0 131.53 13.169 A 22.019 22.019 0 0 0 131.025 14.34 Q 130.38 15.96 130.005 17.685 A 16.394 16.394 0 0 0 129.667 19.993 A 14.059 14.059 0 0 0 129.63 21 A 9.225 9.225 0 0 0 129.648 21.596 Q 129.701 22.418 129.915 22.8 Q 130.2 23.31 130.68 23.31 A 1.426 1.426 0 0 0 131.224 23.192 Q 131.734 22.981 132.33 22.395 Q 133.053 21.684 133.794 20.583 A 19.344 19.344 0 0 0 134.22 19.92 A 22.127 22.127 0 0 0 135.307 17.919 A 27.949 27.949 0 0 0 135.99 16.38 Q 136.8 14.4 137.28 12.27 Z M 282.51 12.27 L 282 15.51 A 45.172 45.172 0 0 1 281.216 17.549 Q 280.842 18.452 280.468 19.221 A 20.052 20.052 0 0 1 279.72 20.625 A 14.312 14.312 0 0 1 278.969 21.779 Q 278.582 22.31 278.193 22.719 A 5.884 5.884 0 0 1 277.41 23.415 A 4.906 4.906 0 0 1 276.454 23.969 A 3.557 3.557 0 0 1 275.04 24.27 A 3.08 3.08 0 0 1 274.163 24.152 A 2.24 2.24 0 0 1 272.925 23.25 Q 272.265 22.295 272.223 20.84 A 6.932 6.932 0 0 1 272.22 20.64 A 10.033 10.033 0 0 1 272.355 19.038 A 13.626 13.626 0 0 1 272.7 17.505 A 18.391 18.391 0 0 1 273.827 14.55 A 20.521 20.521 0 0 1 274.035 14.13 A 17.748 17.748 0 0 1 275.794 11.331 A 16.319 16.319 0 0 1 276 11.07 Q 277.11 9.69 278.415 8.85 A 5.535 5.535 0 0 1 279.679 8.237 A 4.425 4.425 0 0 1 281.07 8.01 A 1.651 1.651 0 0 1 282.403 8.635 A 2.478 2.478 0 0 1 282.675 9.045 A 2.763 2.763 0 0 1 282.936 9.775 Q 283.12 10.633 282.915 11.852 A 9.64 9.64 0 0 1 282.9 11.94 L 282.57 12.12 Q 282.78 10.53 282.36 9.555 Q 281.94 8.58 280.98 8.58 A 1.835 1.835 0 0 0 280.258 8.737 Q 279.993 8.85 279.721 9.043 A 4.293 4.293 0 0 0 279.345 9.345 Q 278.612 10.001 277.923 11.053 A 13.233 13.233 0 0 0 277.695 11.415 A 18.038 18.038 0 0 0 276.76 13.169 A 22.019 22.019 0 0 0 276.255 14.34 Q 275.61 15.96 275.235 17.685 A 16.394 16.394 0 0 0 274.897 19.993 A 14.059 14.059 0 0 0 274.86 21 A 9.225 9.225 0 0 0 274.878 21.596 Q 274.931 22.418 275.145 22.8 Q 275.43 23.31 275.91 23.31 A 1.426 1.426 0 0 0 276.454 23.192 Q 276.964 22.981 277.56 22.395 Q 278.283 21.684 279.024 20.583 A 19.344 19.344 0 0 0 279.45 19.92 A 22.127 22.127 0 0 0 280.537 17.919 A 27.949 27.949 0 0 0 281.22 16.38 Q 282.03 14.4 282.51 12.27 Z M 412.92 12.27 L 412.41 15.51 A 45.172 45.172 0 0 1 411.626 17.549 Q 411.252 18.452 410.878 19.221 A 20.052 20.052 0 0 1 410.13 20.625 A 14.312 14.312 0 0 1 409.379 21.779 Q 408.992 22.31 408.603 22.719 A 5.884 5.884 0 0 1 407.82 23.415 A 4.906 4.906 0 0 1 406.864 23.969 A 3.557 3.557 0 0 1 405.45 24.27 A 3.08 3.08 0 0 1 404.573 24.152 A 2.24 2.24 0 0 1 403.335 23.25 Q 402.675 22.295 402.633 20.84 A 6.932 6.932 0 0 1 402.63 20.64 A 10.033 10.033 0 0 1 402.765 19.038 A 13.626 13.626 0 0 1 403.11 17.505 A 18.391 18.391 0 0 1 404.237 14.55 A 20.521 20.521 0 0 1 404.445 14.13 A 17.748 17.748 0 0 1 406.204 11.331 A 16.319 16.319 0 0 1 406.41 11.07 Q 407.52 9.69 408.825 8.85 A 5.535 5.535 0 0 1 410.089 8.237 A 4.425 4.425 0 0 1 411.48 8.01 A 1.651 1.651 0 0 1 412.813 8.635 A 2.478 2.478 0 0 1 413.085 9.045 A 2.763 2.763 0 0 1 413.346 9.775 Q 413.53 10.633 413.325 11.852 A 9.64 9.64 0 0 1 413.31 11.94 L 412.98 12.12 Q 413.19 10.53 412.77 9.555 Q 412.35 8.58 411.39 8.58 A 1.835 1.835 0 0 0 410.668 8.737 Q 410.403 8.85 410.131 9.043 A 4.293 4.293 0 0 0 409.755 9.345 Q 409.022 10.001 408.333 11.053 A 13.233 13.233 0 0 0 408.105 11.415 A 18.038 18.038 0 0 0 407.17 13.169 A 22.019 22.019 0 0 0 406.665 14.34 Q 406.02 15.96 405.645 17.685 A 16.394 16.394 0 0 0 405.307 19.993 A 14.059 14.059 0 0 0 405.27 21 A 9.225 9.225 0 0 0 405.288 21.596 Q 405.341 22.418 405.555 22.8 Q 405.84 23.31 406.32 23.31 A 1.426 1.426 0 0 0 406.864 23.192 Q 407.374 22.981 407.97 22.395 Q 408.693 21.684 409.434 20.583 A 19.344 19.344 0 0 0 409.86 19.92 A 22.127 22.127 0 0 0 410.947 17.919 A 27.949 27.949 0 0 0 411.63 16.38 Q 412.44 14.4 412.92 12.27 Z M 250.26 14.13 L 249.66 17.37 A 34.447 34.447 0 0 1 248.942 19.001 Q 248.569 19.788 248.199 20.442 A 14.855 14.855 0 0 1 247.59 21.435 A 11.131 11.131 0 0 1 246.887 22.376 Q 246.514 22.82 246.139 23.151 A 4.883 4.883 0 0 1 245.535 23.61 A 4.279 4.279 0 0 1 244.389 24.132 A 3.683 3.683 0 0 1 243.39 24.27 A 3.056 3.056 0 0 1 242.267 24.071 A 2.758 2.758 0 0 1 241.125 23.22 Q 240.27 22.17 240.27 20.04 A 11.33 11.33 0 0 1 240.364 18.623 Q 240.458 17.88 240.645 17.07 Q 241.02 15.45 241.755 13.86 Q 242.49 12.27 243.555 10.935 A 8.832 8.832 0 0 1 245.411 9.179 A 8.135 8.135 0 0 1 246 8.805 A 6.009 6.009 0 0 1 249.008 8.01 A 7.074 7.074 0 0 1 249.06 8.01 Q 249.96 8.01 250.665 8.55 A 2.447 2.447 0 0 1 251.427 9.547 A 3.375 3.375 0 0 1 251.61 10.11 L 251.37 10.71 A 6.062 6.062 0 0 0 251.138 10.125 Q 250.824 9.448 250.425 9.135 A 2.038 2.038 0 0 0 249.328 8.711 A 2.621 2.621 0 0 0 249.09 8.7 Q 248.07 8.7 247.14 9.495 A 7.016 7.016 0 0 0 246.247 10.421 Q 245.873 10.884 245.528 11.447 A 11.596 11.596 0 0 0 245.43 11.61 A 16.681 16.681 0 0 0 244.45 13.56 A 19.681 19.681 0 0 0 244.065 14.535 Q 243.48 16.14 243.165 17.745 Q 242.85 19.35 242.85 20.7 A 7.443 7.443 0 0 0 242.88 21.389 Q 242.955 22.201 243.225 22.665 A 1.53 1.53 0 0 0 243.487 23.005 A 1.078 1.078 0 0 0 244.26 23.31 A 1.54 1.54 0 0 0 244.822 23.196 Q 245.278 23.017 245.79 22.56 A 7.952 7.952 0 0 0 246.501 21.831 Q 246.991 21.266 247.485 20.52 Q 248.34 19.23 249.075 17.58 Q 249.81 15.93 250.26 14.13 Z M 340.86 20.01 L 341.46 20.25 A 8.577 8.577 0 0 1 340.607 21.464 A 10.657 10.657 0 0 1 339.96 22.17 Q 339.03 23.1 337.875 23.685 Q 336.72 24.27 335.43 24.27 A 4.727 4.727 0 0 1 334.157 24.107 A 3.52 3.52 0 0 1 332.55 23.16 A 3.502 3.502 0 0 1 331.744 21.793 Q 331.564 21.249 331.502 20.586 A 7.816 7.816 0 0 1 331.47 19.86 A 10.862 10.862 0 0 1 331.597 18.242 A 14.314 14.314 0 0 1 331.875 16.875 A 16.48 16.48 0 0 1 332.998 13.793 A 18.127 18.127 0 0 1 333.045 13.695 Q 333.81 12.12 334.92 10.845 Q 336.03 9.57 337.44 8.79 Q 338.85 8.01 340.53 8.01 A 4.335 4.335 0 0 1 341.724 8.168 A 3.583 3.583 0 0 1 342.81 8.685 A 2.245 2.245 0 0 1 343.499 9.433 Q 343.74 9.869 343.767 10.422 A 2.89 2.89 0 0 1 343.77 10.56 A 2.64 2.64 0 0 1 343.561 11.581 A 3.07 3.07 0 0 1 343.515 11.685 Q 343.26 12.24 342.78 12.6 A 1.799 1.799 0 0 1 341.827 12.952 A 2.286 2.286 0 0 1 341.64 12.96 A 1.827 1.827 0 0 1 341.295 12.93 Q 340.921 12.858 340.71 12.615 A 1.215 1.215 0 0 1 340.41 11.794 A 1.595 1.595 0 0 1 340.41 11.79 Q 340.41 10.92 341.1 10.305 Q 341.79 9.69 342.66 9.54 Q 342.36 9.12 341.88 8.865 Q 341.504 8.665 340.944 8.622 A 4.208 4.208 0 0 0 340.62 8.61 A 3.034 3.034 0 0 0 339.307 8.921 Q 338.83 9.147 338.355 9.54 A 7.631 7.631 0 0 0 337.295 10.623 Q 336.846 11.177 336.434 11.862 A 13.227 13.227 0 0 0 336.3 12.09 A 14.235 14.235 0 0 0 335.284 14.291 A 17.591 17.591 0 0 0 334.815 15.78 Q 334.26 17.85 334.26 20.13 A 6.332 6.332 0 0 0 334.304 20.903 Q 334.406 21.731 334.747 22.21 A 1.662 1.662 0 0 0 334.845 22.335 A 1.891 1.891 0 0 0 336.217 23.006 A 2.456 2.456 0 0 0 336.36 23.01 A 3.917 3.917 0 0 0 337.664 22.777 A 5.415 5.415 0 0 0 338.58 22.35 A 4.96 4.96 0 0 0 339.435 21.712 Q 339.825 21.355 340.214 20.88 A 12.026 12.026 0 0 0 340.86 20.01 Z M 150.78 23.85 L 154.53 11.49 A 7.13 7.13 0 0 0 154.724 10.8 A 5.741 5.741 0 0 0 154.815 10.29 Q 154.89 9.72 154.725 9.345 Q 154.56 8.97 153.99 8.97 Q 153.202 8.97 152.268 9.882 A 6.537 6.537 0 0 0 152.145 10.005 A 9.671 9.671 0 0 0 151.387 10.895 Q 150.752 11.732 150.105 12.885 Q 149.086 14.701 148.14 17.099 A 47.373 47.373 0 0 0 148.11 17.175 Q 147.15 19.62 146.4 22.41 L 147.39 17.61 A 67.045 67.045 0 0 1 148.235 15.506 Q 149.145 13.354 149.97 11.91 A 15.658 15.658 0 0 1 150.721 10.715 Q 151.123 10.14 151.525 9.699 A 6.059 6.059 0 0 1 152.385 8.91 A 4.675 4.675 0 0 1 153.682 8.221 A 4.057 4.057 0 0 1 154.98 8.01 A 3.356 3.356 0 0 1 155.478 8.044 Q 156.062 8.132 156.375 8.445 A 1.798 1.798 0 0 1 156.844 9.28 A 2.351 2.351 0 0 1 156.9 9.57 Q 156.978 10.169 156.887 10.837 A 5.886 5.886 0 0 1 156.855 11.04 A 21.092 21.092 0 0 1 156.584 12.359 A 19.151 19.151 0 0 1 156.54 12.54 L 153.48 23.85 L 150.78 23.85 Z M 296.01 23.85 L 299.76 11.49 A 7.13 7.13 0 0 0 299.954 10.8 A 5.741 5.741 0 0 0 300.045 10.29 Q 300.12 9.72 299.955 9.345 Q 299.79 8.97 299.22 8.97 Q 298.432 8.97 297.498 9.882 A 6.537 6.537 0 0 0 297.375 10.005 A 9.671 9.671 0 0 0 296.617 10.895 Q 295.982 11.732 295.335 12.885 Q 294.316 14.701 293.37 17.099 A 47.373 47.373 0 0 0 293.34 17.175 Q 292.38 19.62 291.63 22.41 L 292.62 17.61 A 67.045 67.045 0 0 1 293.465 15.506 Q 294.375 13.354 295.2 11.91 A 15.658 15.658 0 0 1 295.951 10.715 Q 296.353 10.14 296.755 9.699 A 6.059 6.059 0 0 1 297.615 8.91 A 4.675 4.675 0 0 1 298.912 8.221 A 4.057 4.057 0 0 1 300.21 8.01 A 3.356 3.356 0 0 1 300.708 8.044 Q 301.292 8.132 301.605 8.445 A 1.798 1.798 0 0 1 302.074 9.28 A 2.351 2.351 0 0 1 302.13 9.57 Q 302.208 10.169 302.117 10.837 A 5.886 5.886 0 0 1 302.085 11.04 A 21.092 21.092 0 0 1 301.814 12.359 A 19.151 19.151 0 0 1 301.77 12.54 L 298.71 23.85 L 296.01 23.85 Z M 69.27 0 L 63 21.3 A 6.268 6.268 0 0 0 62.908 21.676 Q 62.78 22.283 62.85 22.665 A 0.664 0.664 0 0 0 62.94 22.907 Q 63.101 23.157 63.501 23.16 A 1.3 1.3 0 0 0 63.51 23.16 A 1.128 1.128 0 0 0 64.126 22.969 Q 64.299 22.859 64.464 22.685 A 2.691 2.691 0 0 0 64.635 22.485 A 3.787 3.787 0 0 0 64.932 22.031 Q 65.219 21.526 65.526 20.735 A 20.404 20.404 0 0 0 65.76 20.1 L 66.15 18.99 L 66.72 18.99 L 65.97 21.18 A 7.889 7.889 0 0 1 65.654 21.97 Q 65.469 22.366 65.256 22.683 A 3.979 3.979 0 0 1 65.025 22.995 A 4.037 4.037 0 0 1 64.486 23.542 A 3.013 3.013 0 0 1 63.81 23.97 A 3.391 3.391 0 0 1 62.539 24.266 A 3.958 3.958 0 0 1 62.37 24.27 A 4.161 4.161 0 0 1 61.855 24.24 Q 61.249 24.165 60.915 23.895 A 1.561 1.561 0 0 1 60.358 22.958 A 2.006 2.006 0 0 1 60.345 22.89 A 3.466 3.466 0 0 1 60.299 22.328 Q 60.298 22.05 60.338 21.755 A 4.914 4.914 0 0 1 60.375 21.525 Q 60.51 20.79 60.72 20.07 L 65.61 3.84 Q 65.91 2.82 65.55 2.34 A 0.842 0.842 0 0 0 65.238 2.097 Q 64.774 1.87 63.807 1.86 A 8.701 8.701 0 0 0 63.72 1.86 L 63.93 1.23 A 15.977 15.977 0 0 0 65.299 1.149 Q 66.001 1.076 66.616 0.938 A 9.382 9.382 0 0 0 66.84 0.885 Q 68.1 0.57 69.27 0 Z M 220.29 0 L 214.02 21.3 A 6.268 6.268 0 0 0 213.928 21.676 Q 213.8 22.283 213.87 22.665 A 0.664 0.664 0 0 0 213.96 22.907 Q 214.121 23.157 214.521 23.16 A 1.3 1.3 0 0 0 214.53 23.16 A 1.128 1.128 0 0 0 215.146 22.969 Q 215.319 22.859 215.484 22.685 A 2.691 2.691 0 0 0 215.655 22.485 A 3.787 3.787 0 0 0 215.952 22.031 Q 216.239 21.526 216.546 20.735 A 20.404 20.404 0 0 0 216.78 20.1 L 217.17 18.99 L 217.74 18.99 L 216.99 21.18 A 7.889 7.889 0 0 1 216.674 21.97 Q 216.489 22.366 216.276 22.683 A 3.979 3.979 0 0 1 216.045 22.995 A 4.037 4.037 0 0 1 215.506 23.542 A 3.013 3.013 0 0 1 214.83 23.97 A 3.391 3.391 0 0 1 213.559 24.266 A 3.958 3.958 0 0 1 213.39 24.27 A 4.161 4.161 0 0 1 212.875 24.24 Q 212.269 24.165 211.935 23.895 A 1.561 1.561 0 0 1 211.378 22.958 A 2.006 2.006 0 0 1 211.365 22.89 A 3.466 3.466 0 0 1 211.319 22.328 Q 211.318 22.05 211.358 21.755 A 4.914 4.914 0 0 1 211.395 21.525 Q 211.53 20.79 211.74 20.07 L 216.63 3.84 Q 216.93 2.82 216.57 2.34 A 0.842 0.842 0 0 0 216.258 2.097 Q 215.794 1.87 214.827 1.86 A 8.701 8.701 0 0 0 214.74 1.86 L 214.95 1.23 A 15.977 15.977 0 0 0 216.319 1.149 Q 217.021 1.076 217.636 0.938 A 9.382 9.382 0 0 0 217.86 0.885 Q 219.12 0.57 220.29 0 Z M 89.31 23.4 A 2.622 2.622 0 0 0 89.695 23.555 A 3.036 3.036 0 0 0 89.835 23.595 Q 90.072 23.657 90.506 23.668 A 7.613 7.613 0 0 0 90.69 23.67 A 3.591 3.591 0 0 0 91.721 23.529 A 2.858 2.858 0 0 0 92.865 22.875 Q 93.677 22.12 93.718 20.729 A 5.08 5.08 0 0 0 93.72 20.58 Q 93.72 19.65 93.375 18.735 A 6.288 6.288 0 0 0 93.051 18.025 Q 92.711 17.379 92.16 16.62 Q 91.47 15.66 90.84 14.655 Q 90.21 13.65 90.21 12.27 A 4.442 4.442 0 0 1 90.358 11.101 A 3.62 3.62 0 0 1 90.84 10.035 Q 91.47 9.09 92.535 8.55 A 5.058 5.058 0 0 1 94.821 8.01 A 5.869 5.869 0 0 1 94.86 8.01 Q 95.73 8.01 96.57 8.22 A 3.164 3.164 0 0 1 97.425 8.565 A 2.743 2.743 0 0 1 97.965 8.985 Q 98.441 9.461 98.509 10.325 A 3.793 3.793 0 0 1 98.52 10.62 A 1.35 1.35 0 0 1 98.501 10.837 Q 98.469 11.031 98.385 11.265 Q 98.25 11.64 97.95 11.91 Q 97.65 12.18 97.14 12.18 Q 96.66 12.18 96.3 11.835 A 1.149 1.149 0 0 1 95.955 11.142 A 1.609 1.609 0 0 1 95.94 10.92 Q 95.94 10.38 96.165 9.885 A 4.225 4.225 0 0 1 96.531 9.242 A 5.158 5.158 0 0 1 96.78 8.91 A 2.146 2.146 0 0 0 96.172 8.653 Q 95.901 8.582 95.581 8.56 A 4.361 4.361 0 0 0 95.28 8.55 Q 94.17 8.55 93.42 9.3 A 2.454 2.454 0 0 0 92.784 10.437 Q 92.684 10.818 92.672 11.27 A 4.704 4.704 0 0 0 92.67 11.4 Q 92.67 12.09 92.88 12.615 A 4.545 4.545 0 0 0 93.139 13.151 Q 93.293 13.425 93.495 13.71 A 29.712 29.712 0 0 1 93.708 14.014 Q 94.032 14.482 94.443 15.108 A 81.208 81.208 0 0 1 94.47 15.15 A 21.664 21.664 0 0 1 95.238 16.404 A 17.129 17.129 0 0 1 95.73 17.34 Q 96.24 18.39 96.24 19.56 A 4.59 4.59 0 0 1 95.998 21.069 A 4.138 4.138 0 0 1 95.535 22.005 Q 94.83 23.07 93.66 23.67 A 5.504 5.504 0 0 1 91.342 24.265 A 6.474 6.474 0 0 1 91.08 24.27 Q 90.06 24.27 89.13 23.97 A 3.748 3.748 0 0 1 88.239 23.554 A 3.146 3.146 0 0 1 87.615 23.025 A 2.186 2.186 0 0 1 87.107 22.027 A 3.236 3.236 0 0 1 87.03 21.3 A 1.569 1.569 0 0 1 87.102 20.841 Q 87.158 20.659 87.256 20.469 A 2.711 2.711 0 0 1 87.285 20.415 Q 87.54 19.95 88.2 19.95 Q 88.92 19.95 89.22 20.535 A 2.748 2.748 0 0 1 89.512 21.607 A 3.306 3.306 0 0 1 89.52 21.84 A 5.257 5.257 0 0 1 89.504 22.267 Q 89.485 22.496 89.445 22.695 A 45.257 45.257 0 0 0 89.374 23.059 A 37.178 37.178 0 0 0 89.31 23.4 Z M 321.27 23.4 A 2.622 2.622 0 0 0 321.655 23.555 A 3.036 3.036 0 0 0 321.795 23.595 Q 322.032 23.657 322.466 23.668 A 7.613 7.613 0 0 0 322.65 23.67 A 3.591 3.591 0 0 0 323.681 23.529 A 2.858 2.858 0 0 0 324.825 22.875 Q 325.637 22.12 325.678 20.729 A 5.08 5.08 0 0 0 325.68 20.58 Q 325.68 19.65 325.335 18.735 A 6.288 6.288 0 0 0 325.011 18.025 Q 324.671 17.379 324.12 16.62 Q 323.43 15.66 322.8 14.655 Q 322.17 13.65 322.17 12.27 A 4.442 4.442 0 0 1 322.318 11.101 A 3.62 3.62 0 0 1 322.8 10.035 Q 323.43 9.09 324.495 8.55 A 5.058 5.058 0 0 1 326.781 8.01 A 5.869 5.869 0 0 1 326.82 8.01 Q 327.69 8.01 328.53 8.22 A 3.164 3.164 0 0 1 329.385 8.565 A 2.743 2.743 0 0 1 329.925 8.985 Q 330.401 9.461 330.469 10.325 A 3.793 3.793 0 0 1 330.48 10.62 A 1.35 1.35 0 0 1 330.461 10.837 Q 330.429 11.031 330.345 11.265 Q 330.21 11.64 329.91 11.91 Q 329.61 12.18 329.1 12.18 Q 328.62 12.18 328.26 11.835 A 1.149 1.149 0 0 1 327.915 11.142 A 1.609 1.609 0 0 1 327.9 10.92 Q 327.9 10.38 328.125 9.885 A 4.225 4.225 0 0 1 328.491 9.242 A 5.158 5.158 0 0 1 328.74 8.91 A 2.146 2.146 0 0 0 328.132 8.653 Q 327.861 8.582 327.541 8.56 A 4.361 4.361 0 0 0 327.24 8.55 Q 326.13 8.55 325.38 9.3 A 2.454 2.454 0 0 0 324.744 10.437 Q 324.644 10.818 324.632 11.27 A 4.704 4.704 0 0 0 324.63 11.4 Q 324.63 12.09 324.84 12.615 A 4.545 4.545 0 0 0 325.099 13.151 Q 325.253 13.425 325.455 13.71 A 29.712 29.712 0 0 1 325.668 14.014 Q 325.992 14.482 326.403 15.108 A 81.208 81.208 0 0 1 326.43 15.15 A 21.664 21.664 0 0 1 327.198 16.404 A 17.129 17.129 0 0 1 327.69 17.34 Q 328.2 18.39 328.2 19.56 A 4.59 4.59 0 0 1 327.958 21.069 A 4.138 4.138 0 0 1 327.495 22.005 Q 326.79 23.07 325.62 23.67 A 5.504 5.504 0 0 1 323.302 24.265 A 6.474 6.474 0 0 1 323.04 24.27 Q 322.02 24.27 321.09 23.97 A 3.748 3.748 0 0 1 320.199 23.554 A 3.146 3.146 0 0 1 319.575 23.025 A 2.186 2.186 0 0 1 319.067 22.027 A 3.236 3.236 0 0 1 318.99 21.3 A 1.569 1.569 0 0 1 319.062 20.841 Q 319.118 20.659 319.216 20.469 A 2.711 2.711 0 0 1 319.245 20.415 Q 319.5 19.95 320.16 19.95 Q 320.88 19.95 321.18 20.535 A 2.748 2.748 0 0 1 321.472 21.607 A 3.306 3.306 0 0 1 321.48 21.84 A 5.257 5.257 0 0 1 321.464 22.267 Q 321.445 22.496 321.405 22.695 A 45.257 45.257 0 0 0 321.334 23.059 A 37.178 37.178 0 0 0 321.27 23.4 Z M 25.59 20.07 L 28.8 10.98 A 6.549 6.549 0 0 0 28.903 10.648 Q 29.29 9.267 28.55 9.134 A 0.966 0.966 0 0 0 28.38 9.12 A 1.268 1.268 0 0 0 27.599 9.395 Q 27.415 9.535 27.244 9.746 A 2.836 2.836 0 0 0 27.15 9.87 Q 26.61 10.62 26.01 12.18 L 25.59 13.29 L 25.02 13.29 L 25.8 11.1 A 7.914 7.914 0 0 1 26.131 10.305 Q 26.467 9.613 26.88 9.18 A 4.198 4.198 0 0 1 27.466 8.665 A 3.082 3.082 0 0 1 28.215 8.265 Q 28.896 8.019 29.479 8.01 A 2.848 2.848 0 0 1 29.52 8.01 Q 30.48 8.01 30.93 8.4 Q 31.38 8.79 31.47 9.42 A 3.442 3.442 0 0 1 31.504 9.907 Q 31.504 10.195 31.459 10.502 A 4.958 4.958 0 0 1 31.41 10.785 Q 31.26 11.52 31.02 12.21 L 27.81 21.3 A 5.384 5.384 0 0 0 27.693 21.683 Q 27.554 22.208 27.598 22.565 A 1.175 1.175 0 0 0 27.615 22.665 A 0.679 0.679 0 0 0 27.717 22.914 Q 27.829 23.075 28.041 23.131 A 0.982 0.982 0 0 0 28.29 23.16 Q 28.89 23.16 29.43 22.5 A 3.732 3.732 0 0 0 29.734 22.058 Q 30.035 21.556 30.369 20.756 A 21.445 21.445 0 0 0 30.63 20.1 L 31.05 18.99 L 31.62 18.99 L 30.84 21.18 A 7.631 7.631 0 0 1 30.5 21.988 Q 30.3 22.392 30.07 22.712 A 3.862 3.862 0 0 1 29.82 23.025 A 4.218 4.218 0 0 1 29.248 23.564 A 3.13 3.13 0 0 1 28.53 23.985 A 3.715 3.715 0 0 1 27.538 24.247 A 3.361 3.361 0 0 1 27.15 24.27 Q 26.034 24.27 25.547 23.821 A 1.114 1.114 0 0 1 25.41 23.67 Q 24.987 23.106 25.068 22.222 A 3.455 3.455 0 0 1 25.08 22.11 A 8.495 8.495 0 0 1 25.3 20.992 A 11.009 11.009 0 0 1 25.59 20.07 Z M 51.87 20.07 L 55.08 10.98 A 6.549 6.549 0 0 0 55.183 10.648 Q 55.57 9.267 54.83 9.134 A 0.966 0.966 0 0 0 54.66 9.12 A 1.268 1.268 0 0 0 53.879 9.395 Q 53.695 9.535 53.524 9.746 A 2.836 2.836 0 0 0 53.43 9.87 Q 52.89 10.62 52.29 12.18 L 51.87 13.29 L 51.3 13.29 L 52.08 11.1 A 7.914 7.914 0 0 1 52.411 10.305 Q 52.747 9.613 53.16 9.18 A 4.198 4.198 0 0 1 53.746 8.665 A 3.082 3.082 0 0 1 54.495 8.265 Q 55.176 8.019 55.759 8.01 A 2.848 2.848 0 0 1 55.8 8.01 Q 56.76 8.01 57.21 8.4 Q 57.66 8.79 57.75 9.42 A 3.442 3.442 0 0 1 57.784 9.907 Q 57.784 10.195 57.739 10.502 A 4.958 4.958 0 0 1 57.69 10.785 Q 57.54 11.52 57.3 12.21 L 54.09 21.3 A 5.384 5.384 0 0 0 53.973 21.683 Q 53.834 22.208 53.878 22.565 A 1.175 1.175 0 0 0 53.895 22.665 A 0.679 0.679 0 0 0 53.997 22.914 Q 54.109 23.075 54.321 23.131 A 0.982 0.982 0 0 0 54.57 23.16 Q 55.17 23.16 55.71 22.5 A 3.732 3.732 0 0 0 56.014 22.058 Q 56.315 21.556 56.649 20.756 A 21.445 21.445 0 0 0 56.91 20.1 L 57.33 18.99 L 57.9 18.99 L 57.12 21.18 A 7.631 7.631 0 0 1 56.78 21.988 Q 56.58 22.392 56.35 22.712 A 3.862 3.862 0 0 1 56.1 23.025 A 4.218 4.218 0 0 1 55.528 23.564 A 3.13 3.13 0 0 1 54.81 23.985 A 3.715 3.715 0 0 1 53.818 24.247 A 3.361 3.361 0 0 1 53.43 24.27 Q 52.314 24.27 51.827 23.821 A 1.114 1.114 0 0 1 51.69 23.67 Q 51.267 23.106 51.348 22.222 A 3.455 3.455 0 0 1 51.36 22.11 A 8.495 8.495 0 0 1 51.58 20.992 A 11.009 11.009 0 0 1 51.87 20.07 Z M 202.89 20.07 L 206.1 10.98 A 6.549 6.549 0 0 0 206.203 10.648 Q 206.59 9.267 205.85 9.134 A 0.966 0.966 0 0 0 205.68 9.12 A 1.268 1.268 0 0 0 204.899 9.395 Q 204.715 9.535 204.544 9.746 A 2.836 2.836 0 0 0 204.45 9.87 Q 203.91 10.62 203.31 12.18 L 202.89 13.29 L 202.32 13.29 L 203.1 11.1 A 7.914 7.914 0 0 1 203.431 10.305 Q 203.767 9.613 204.18 9.18 A 4.198 4.198 0 0 1 204.766 8.665 A 3.082 3.082 0 0 1 205.515 8.265 Q 206.196 8.019 206.779 8.01 A 2.848 2.848 0 0 1 206.82 8.01 Q 207.78 8.01 208.23 8.4 Q 208.68 8.79 208.77 9.42 A 3.442 3.442 0 0 1 208.804 9.907 Q 208.804 10.195 208.759 10.502 A 4.958 4.958 0 0 1 208.71 10.785 Q 208.56 11.52 208.32 12.21 L 205.11 21.3 A 5.384 5.384 0 0 0 204.993 21.683 Q 204.854 22.208 204.898 22.565 A 1.175 1.175 0 0 0 204.915 22.665 A 0.679 0.679 0 0 0 205.017 22.914 Q 205.129 23.075 205.341 23.131 A 0.982 0.982 0 0 0 205.59 23.16 Q 206.19 23.16 206.73 22.5 A 3.732 3.732 0 0 0 207.034 22.058 Q 207.335 21.556 207.669 20.756 A 21.445 21.445 0 0 0 207.93 20.1 L 208.35 18.99 L 208.92 18.99 L 208.14 21.18 A 7.631 7.631 0 0 1 207.8 21.988 Q 207.6 22.392 207.37 22.712 A 3.862 3.862 0 0 1 207.12 23.025 A 4.218 4.218 0 0 1 206.548 23.564 A 3.13 3.13 0 0 1 205.83 23.985 A 3.715 3.715 0 0 1 204.838 24.247 A 3.361 3.361 0 0 1 204.45 24.27 Q 203.334 24.27 202.847 23.821 A 1.114 1.114 0 0 1 202.71 23.67 Q 202.287 23.106 202.368 22.222 A 3.455 3.455 0 0 1 202.38 22.11 A 8.495 8.495 0 0 1 202.6 20.992 A 11.009 11.009 0 0 1 202.89 20.07 Z M 345.42 20.07 L 348.63 10.98 A 6.549 6.549 0 0 0 348.733 10.648 Q 349.12 9.267 348.38 9.134 A 0.966 0.966 0 0 0 348.21 9.12 A 1.268 1.268 0 0 0 347.429 9.395 Q 347.245 9.535 347.074 9.746 A 2.836 2.836 0 0 0 346.98 9.87 Q 346.44 10.62 345.84 12.18 L 345.42 13.29 L 344.85 13.29 L 345.63 11.1 A 7.914 7.914 0 0 1 345.961 10.305 Q 346.297 9.613 346.71 9.18 A 4.198 4.198 0 0 1 347.296 8.665 A 3.082 3.082 0 0 1 348.045 8.265 Q 348.726 8.019 349.309 8.01 A 2.848 2.848 0 0 1 349.35 8.01 Q 350.31 8.01 350.76 8.4 Q 351.21 8.79 351.3 9.42 A 3.442 3.442 0 0 1 351.334 9.907 Q 351.334 10.195 351.289 10.502 A 4.958 4.958 0 0 1 351.24 10.785 Q 351.09 11.52 350.85 12.21 L 347.64 21.3 A 5.384 5.384 0 0 0 347.523 21.683 Q 347.384 22.208 347.428 22.565 A 1.175 1.175 0 0 0 347.445 22.665 A 0.679 0.679 0 0 0 347.547 22.914 Q 347.659 23.075 347.871 23.131 A 0.982 0.982 0 0 0 348.12 23.16 Q 348.72 23.16 349.26 22.5 A 3.732 3.732 0 0 0 349.564 22.058 Q 349.865 21.556 350.199 20.756 A 21.445 21.445 0 0 0 350.46 20.1 L 350.88 18.99 L 351.45 18.99 L 350.67 21.18 A 7.631 7.631 0 0 1 350.33 21.988 Q 350.13 22.392 349.9 22.712 A 3.862 3.862 0 0 1 349.65 23.025 A 4.218 4.218 0 0 1 349.078 23.564 A 3.13 3.13 0 0 1 348.36 23.985 A 3.715 3.715 0 0 1 347.368 24.247 A 3.361 3.361 0 0 1 346.98 24.27 Q 345.864 24.27 345.377 23.821 A 1.114 1.114 0 0 1 345.24 23.67 Q 344.817 23.106 344.898 22.222 A 3.455 3.455 0 0 1 344.91 22.11 A 8.495 8.495 0 0 1 345.13 20.992 A 11.009 11.009 0 0 1 345.42 20.07 Z M 394.83 20.07 L 398.04 10.98 A 6.549 6.549 0 0 0 398.143 10.648 Q 398.53 9.267 397.79 9.134 A 0.966 0.966 0 0 0 397.62 9.12 A 1.268 1.268 0 0 0 396.839 9.395 Q 396.655 9.535 396.484 9.746 A 2.836 2.836 0 0 0 396.39 9.87 Q 395.85 10.62 395.25 12.18 L 394.83 13.29 L 394.26 13.29 L 395.04 11.1 A 7.914 7.914 0 0 1 395.371 10.305 Q 395.707 9.613 396.12 9.18 A 4.198 4.198 0 0 1 396.706 8.665 A 3.082 3.082 0 0 1 397.455 8.265 Q 398.136 8.019 398.719 8.01 A 2.848 2.848 0 0 1 398.76 8.01 Q 399.72 8.01 400.17 8.4 Q 400.62 8.79 400.71 9.42 A 3.442 3.442 0 0 1 400.744 9.907 Q 400.744 10.195 400.699 10.502 A 4.958 4.958 0 0 1 400.65 10.785 Q 400.5 11.52 400.26 12.21 L 397.05 21.3 A 5.384 5.384 0 0 0 396.933 21.683 Q 396.794 22.208 396.838 22.565 A 1.175 1.175 0 0 0 396.855 22.665 A 0.679 0.679 0 0 0 396.957 22.914 Q 397.069 23.075 397.281 23.131 A 0.982 0.982 0 0 0 397.53 23.16 Q 398.13 23.16 398.67 22.5 A 3.732 3.732 0 0 0 398.974 22.058 Q 399.275 21.556 399.609 20.756 A 21.445 21.445 0 0 0 399.87 20.1 L 400.29 18.99 L 400.86 18.99 L 400.08 21.18 A 7.631 7.631 0 0 1 399.74 21.988 Q 399.54 22.392 399.31 22.712 A 3.862 3.862 0 0 1 399.06 23.025 A 4.218 4.218 0 0 1 398.488 23.564 A 3.13 3.13 0 0 1 397.77 23.985 A 3.715 3.715 0 0 1 396.778 24.247 A 3.361 3.361 0 0 1 396.39 24.27 Q 395.274 24.27 394.787 23.821 A 1.114 1.114 0 0 1 394.65 23.67 Q 394.227 23.106 394.308 22.222 A 3.455 3.455 0 0 1 394.32 22.11 A 8.495 8.495 0 0 1 394.54 20.992 A 11.009 11.009 0 0 1 394.83 20.07 Z M 17.835 23.67 L 17.79 24 L 17.37 23.16 A 926.254 926.254 0 0 0 17.835 21.071 A 1150.39 1150.39 0 0 0 18.33 18.825 Q 18.84 16.5 19.425 14.16 Q 20.01 11.82 20.625 9.69 A 47.99 47.99 0 0 1 21.255 7.669 A 35.831 35.831 0 0 1 21.915 5.865 Q 22.59 4.17 23.28 3.15 Q 23.85 2.34 24.63 1.785 Q 25.41 1.23 26.52 1.23 A 3.706 3.706 0 0 1 27.003 1.259 Q 27.531 1.329 27.817 1.566 A 0.91 0.91 0 0 1 27.945 1.695 Q 28.32 2.16 28.32 2.76 A 2.572 2.572 0 0 1 28.034 3.927 A 3.229 3.229 0 0 1 27.87 4.215 A 1.512 1.512 0 0 1 27.371 4.712 Q 27.077 4.887 26.695 4.915 A 2.021 2.021 0 0 1 26.55 4.92 A 1.734 1.734 0 0 1 26.229 4.892 Q 26.056 4.86 25.925 4.788 A 0.721 0.721 0 0 1 25.65 4.53 A 1.721 1.721 0 0 1 25.48 4.17 A 1.329 1.329 0 0 1 25.41 3.75 A 1.953 1.953 0 0 1 25.556 3.021 A 2.491 2.491 0 0 1 25.695 2.73 A 3.651 3.651 0 0 1 26.135 2.101 A 3.189 3.189 0 0 1 26.37 1.86 L 26.325 1.86 L 26.28 1.86 Q 25.44 1.89 24.855 2.295 A 3.608 3.608 0 0 0 24.146 2.949 A 4.572 4.572 0 0 0 23.82 3.39 A 10.874 10.874 0 0 0 23.061 4.737 Q 22.327 6.252 21.577 8.621 A 61.331 61.331 0 0 0 21 10.56 Q 19.576 15.634 17.829 23.819 A 421.839 421.839 0 0 0 17.79 24 M 107.67 3.45 L 102.6 21.3 A 3.557 3.557 0 0 0 102.534 21.585 Q 102.391 22.355 102.735 22.725 A 1.345 1.345 0 0 0 103.619 23.151 A 1.851 1.851 0 0 0 103.8 23.16 A 1.696 1.696 0 0 0 104.503 23 Q 104.739 22.894 104.976 22.716 A 3.4 3.4 0 0 0 105.135 22.59 A 2.326 2.326 0 0 0 105.511 22.171 Q 105.839 21.715 106.164 20.95 A 14.028 14.028 0 0 0 106.47 20.16 L 106.89 18.99 L 107.46 18.99 L 106.83 20.88 Q 106.17 22.83 105.135 23.55 A 4.027 4.027 0 0 1 103.101 24.256 A 5.028 5.028 0 0 1 102.72 24.27 A 4.614 4.614 0 0 1 102.012 24.219 Q 101.29 24.107 100.845 23.745 A 2.038 2.038 0 0 1 100.173 22.713 A 2.844 2.844 0 0 1 100.08 22.26 A 4.001 4.001 0 0 1 100.05 21.767 Q 100.049 21.043 100.287 20.185 A 8.352 8.352 0 0 1 100.32 20.07 L 104.97 3.87 Q 105.69 3.84 106.395 3.75 A 6.458 6.458 0 0 0 107.144 3.611 A 5.1 5.1 0 0 0 107.67 3.45 Z M 125.34 3.45 L 120.27 21.3 A 3.557 3.557 0 0 0 120.204 21.585 Q 120.061 22.355 120.405 22.725 A 1.345 1.345 0 0 0 121.289 23.151 A 1.851 1.851 0 0 0 121.47 23.16 A 1.696 1.696 0 0 0 122.173 23 Q 122.409 22.894 122.646 22.716 A 3.4 3.4 0 0 0 122.805 22.59 A 2.326 2.326 0 0 0 123.181 22.171 Q 123.509 21.715 123.834 20.95 A 14.028 14.028 0 0 0 124.14 20.16 L 124.56 18.99 L 125.13 18.99 L 124.5 20.88 Q 123.84 22.83 122.805 23.55 A 4.027 4.027 0 0 1 120.771 24.256 A 5.028 5.028 0 0 1 120.39 24.27 A 4.614 4.614 0 0 1 119.682 24.219 Q 118.96 24.107 118.515 23.745 A 2.038 2.038 0 0 1 117.843 22.713 A 2.844 2.844 0 0 1 117.75 22.26 A 4.001 4.001 0 0 1 117.72 21.767 Q 117.719 21.043 117.957 20.185 A 8.352 8.352 0 0 1 117.99 20.07 L 122.64 3.87 Q 123.36 3.84 124.065 3.75 A 6.458 6.458 0 0 0 124.814 3.611 A 5.1 5.1 0 0 0 125.34 3.45 Z M 199.98 3.45 L 194.91 21.3 A 3.557 3.557 0 0 0 194.844 21.585 Q 194.701 22.355 195.045 22.725 A 1.345 1.345 0 0 0 195.929 23.151 A 1.851 1.851 0 0 0 196.11 23.16 A 1.696 1.696 0 0 0 196.813 23 Q 197.049 22.894 197.286 22.716 A 3.4 3.4 0 0 0 197.445 22.59 A 2.326 2.326 0 0 0 197.821 22.171 Q 198.149 21.715 198.474 20.95 A 14.028 14.028 0 0 0 198.78 20.16 L 199.2 18.99 L 199.77 18.99 L 199.14 20.88 Q 198.48 22.83 197.445 23.55 A 4.027 4.027 0 0 1 195.411 24.256 A 5.028 5.028 0 0 1 195.03 24.27 A 4.614 4.614 0 0 1 194.322 24.219 Q 193.6 24.107 193.155 23.745 A 2.038 2.038 0 0 1 192.483 22.713 A 2.844 2.844 0 0 1 192.39 22.26 A 4.001 4.001 0 0 1 192.36 21.767 Q 192.359 21.043 192.597 20.185 A 8.352 8.352 0 0 1 192.63 20.07 L 197.28 3.87 Q 198 3.84 198.705 3.75 A 6.458 6.458 0 0 0 199.454 3.611 A 5.1 5.1 0 0 0 199.98 3.45 Z M 391.92 3.45 L 386.85 21.3 A 3.557 3.557 0 0 0 386.784 21.585 Q 386.641 22.355 386.985 22.725 A 1.345 1.345 0 0 0 387.869 23.151 A 1.851 1.851 0 0 0 388.05 23.16 A 1.696 1.696 0 0 0 388.753 23 Q 388.989 22.894 389.226 22.716 A 3.4 3.4 0 0 0 389.385 22.59 A 2.326 2.326 0 0 0 389.761 22.171 Q 390.089 21.715 390.414 20.95 A 14.028 14.028 0 0 0 390.72 20.16 L 391.14 18.99 L 391.71 18.99 L 391.08 20.88 Q 390.42 22.83 389.385 23.55 A 4.027 4.027 0 0 1 387.351 24.256 A 5.028 5.028 0 0 1 386.97 24.27 A 4.614 4.614 0 0 1 386.262 24.219 Q 385.54 24.107 385.095 23.745 A 2.038 2.038 0 0 1 384.423 22.713 A 2.844 2.844 0 0 1 384.33 22.26 A 4.001 4.001 0 0 1 384.3 21.767 Q 384.299 21.043 384.537 20.185 A 8.352 8.352 0 0 1 384.57 20.07 L 389.22 3.87 Q 389.94 3.84 390.645 3.75 A 6.458 6.458 0 0 0 391.394 3.611 A 5.1 5.1 0 0 0 391.92 3.45 Z M 9.93 3.3 L 10.44 3.93 Q 9.96 6.39 9.435 8.925 Q 8.91 11.46 8.37 13.875 A 105.792 105.792 0 0 1 7.823 16.204 A 85.508 85.508 0 0 1 7.26 18.36 Q 6.801 20.026 6.343 21.332 A 29.413 29.413 0 0 1 6.12 21.945 A 16.774 16.774 0 0 1 5.784 22.774 Q 5.39 23.674 5.01 24.18 Q 4.47 24.9 3.735 25.485 Q 3.039 26.039 1.926 26.068 A 4.773 4.773 0 0 1 1.8 26.07 A 3.706 3.706 0 0 1 1.317 26.041 Q 0.789 25.971 0.503 25.734 A 0.91 0.91 0 0 1 0.375 25.605 A 1.688 1.688 0 0 1 0 24.53 A 2.103 2.103 0 0 1 0 24.51 A 2.531 2.531 0 0 1 0.32 23.287 A 3.14 3.14 0 0 1 0.45 23.07 A 1.438 1.438 0 0 1 1.483 22.4 A 1.949 1.949 0 0 1 1.77 22.38 Q 2.141 22.38 2.377 22.493 A 0.683 0.683 0 0 1 2.685 22.77 Q 2.91 23.16 2.91 23.55 A 1.953 1.953 0 0 1 2.764 24.279 A 2.491 2.491 0 0 1 2.625 24.57 A 3.651 3.651 0 0 1 2.185 25.199 A 3.189 3.189 0 0 1 1.95 25.44 L 1.995 25.44 L 2.04 25.44 A 2.932 2.932 0 0 0 2.89 25.288 A 2.551 2.551 0 0 0 3.465 25.005 A 3.357 3.357 0 0 0 4.217 24.319 A 4.253 4.253 0 0 0 4.53 23.88 A 9.187 9.187 0 0 0 5.048 22.923 Q 5.663 21.627 6.285 19.56 A 71.338 71.338 0 0 0 6.953 17.182 Q 7.303 15.853 7.658 14.337 A 140.573 140.573 0 0 0 8.085 12.45 A 262.753 262.753 0 0 0 9.004 8.078 A 339.533 339.533 0 0 0 9.93 3.3 Z M 43.59 0 L 36.6 23.85 L 33.99 23.85 L 39.93 3.84 Q 40.228 2.825 39.859 2.345 A 0.857 0.857 0 0 0 39.855 2.34 A 0.881 0.881 0 0 0 39.536 2.097 Q 39.054 1.865 38.053 1.86 A 8.87 8.87 0 0 0 38.01 1.86 L 38.19 1.23 A 16.143 16.143 0 0 0 39.758 1.129 A 12.019 12.019 0 0 0 41.16 0.885 A 11.116 11.116 0 0 0 43.022 0.269 A 9.871 9.871 0 0 0 43.59 0 Z M 253.98 9.9 L 249.51 26.49 A 4.123 4.123 0 0 0 249.437 26.812 Q 249.258 27.784 249.75 28.185 A 1.904 1.904 0 0 0 250.408 28.526 Q 250.686 28.611 251.021 28.638 A 4.021 4.021 0 0 0 251.34 28.65 L 251.16 29.28 Q 250.701 29.257 249.951 29.225 A 381.979 381.979 0 0 0 249.465 29.205 A 53.182 53.182 0 0 0 248.044 29.166 A 63.173 63.173 0 0 0 247.14 29.16 Q 246.21 29.16 245.25 29.205 A 203.016 203.016 0 0 0 244.8 29.227 Q 244.17 29.258 243.81 29.28 L 243.99 28.65 Q 245.194 28.65 245.837 28.34 A 1.779 1.779 0 0 0 245.985 28.26 Q 246.487 27.957 246.78 27.236 A 4.097 4.097 0 0 0 246.93 26.79 L 251.25 10.29 Q 251.97 9.69 252.69 9.105 Q 253.41 8.52 254.13 7.95 L 254.61 8.16 A 5.24 5.24 0 0 0 254.288 8.888 A 5.841 5.841 0 0 0 254.25 9 Q 254.1 9.45 253.98 9.9 Z M 17.79 24 L 17.13 24 L 10.14 4.26 L 10.035 4.485 A 13.922 13.922 0 0 0 9.952 4.666 Q 9.916 4.747 9.876 4.837 A 26.112 26.112 0 0 0 9.795 5.025 A 25.406 25.406 0 0 1 9.698 5.249 Q 9.659 5.336 9.624 5.416 A 13.469 13.469 0 0 1 9.555 5.565 L 9.45 5.79 A 11.49 11.49 0 0 0 9.542 5.318 Q 9.673 4.561 9.615 4.155 A 0.894 0.894 0 0 0 9.476 3.778 Q 9.357 3.6 9.143 3.491 A 1.214 1.214 0 0 0 9.015 3.435 A 2.453 2.453 0 0 0 8.669 3.338 Q 8.29 3.259 7.726 3.226 A 12.942 12.942 0 0 0 7.32 3.21 L 7.47 2.61 Q 7.95 2.64 8.655 2.67 A 33.543 33.543 0 0 0 9.707 2.698 A 38.935 38.935 0 0 0 10.14 2.7 A 37.639 37.639 0 0 0 11.143 2.687 Q 11.636 2.674 12.07 2.647 A 19.227 19.227 0 0 0 12.57 2.61 L 18.33 19.47 L 18.285 19.8 A 28.528 28.528 0 0 0 18.262 19.976 Q 18.225 20.258 18.18 20.64 Q 18.12 21.15 18.06 21.735 Q 18 22.32 17.94 22.83 A 75.119 75.119 0 0 1 17.911 23.074 Q 17.872 23.399 17.84 23.637 A 24.42 24.42 0 0 1 17.835 23.67 L 17.79 24 Z M 135.3 20.04 L 138.24 8.43 Q 138.96 8.4 139.68 8.31 A 6.913 6.913 0 0 0 140.513 8.156 A 5.672 5.672 0 0 0 141 8.01 L 137.25 21.27 A 23.483 23.483 0 0 1 137.217 21.415 Q 137.171 21.616 137.107 21.885 A 75.074 75.074 0 0 1 137.085 21.975 Q 136.982 22.4 137.08 22.753 A 1.267 1.267 0 0 0 137.085 22.77 Q 137.18 23.096 137.606 23.127 A 1.289 1.289 0 0 0 137.7 23.13 A 1.194 1.194 0 0 0 138.292 22.965 Q 138.475 22.862 138.655 22.694 A 2.869 2.869 0 0 0 138.87 22.47 A 3.165 3.165 0 0 0 139.191 22.013 Q 139.496 21.497 139.802 20.669 A 17.034 17.034 0 0 0 140.01 20.07 L 140.37 18.96 L 140.94 18.96 L 140.19 21.15 Q 139.77 22.35 139.185 23.025 A 4.611 4.611 0 0 1 138.702 23.509 Q 138.417 23.753 138.121 23.911 A 2.643 2.643 0 0 1 137.97 23.985 A 3.314 3.314 0 0 1 137.309 24.207 A 2.671 2.671 0 0 1 136.74 24.27 A 2.736 2.736 0 0 1 136.121 24.205 Q 135.717 24.111 135.432 23.882 A 1.523 1.523 0 0 1 135.09 23.49 Q 134.7 22.8 134.88 21.885 Q 135.06 20.97 135.3 20.04 Z M 280.53 20.04 L 283.47 8.43 Q 284.19 8.4 284.91 8.31 A 6.913 6.913 0 0 0 285.743 8.156 A 5.672 5.672 0 0 0 286.23 8.01 L 282.48 21.27 A 23.483 23.483 0 0 1 282.447 21.415 Q 282.401 21.616 282.337 21.885 A 75.074 75.074 0 0 1 282.315 21.975 Q 282.212 22.4 282.31 22.753 A 1.267 1.267 0 0 0 282.315 22.77 Q 282.41 23.096 282.836 23.127 A 1.289 1.289 0 0 0 282.93 23.13 A 1.194 1.194 0 0 0 283.522 22.965 Q 283.705 22.862 283.885 22.694 A 2.869 2.869 0 0 0 284.1 22.47 A 3.165 3.165 0 0 0 284.421 22.013 Q 284.726 21.497 285.032 20.669 A 17.034 17.034 0 0 0 285.24 20.07 L 285.6 18.96 L 286.17 18.96 L 285.42 21.15 Q 285 22.35 284.415 23.025 A 4.611 4.611 0 0 1 283.932 23.509 Q 283.647 23.753 283.351 23.911 A 2.643 2.643 0 0 1 283.2 23.985 A 3.314 3.314 0 0 1 282.539 24.207 A 2.671 2.671 0 0 1 281.97 24.27 A 2.736 2.736 0 0 1 281.351 24.205 Q 280.947 24.111 280.662 23.882 A 1.523 1.523 0 0 1 280.32 23.49 Q 279.93 22.8 280.11 21.885 Q 280.29 20.97 280.53 20.04 Z M 410.94 20.04 L 413.88 8.43 Q 414.6 8.4 415.32 8.31 A 6.913 6.913 0 0 0 416.153 8.156 A 5.672 5.672 0 0 0 416.64 8.01 L 412.89 21.27 A 23.483 23.483 0 0 1 412.857 21.415 Q 412.811 21.616 412.747 21.885 A 75.074 75.074 0 0 1 412.725 21.975 Q 412.622 22.4 412.72 22.753 A 1.267 1.267 0 0 0 412.725 22.77 Q 412.82 23.096 413.246 23.127 A 1.289 1.289 0 0 0 413.34 23.13 A 1.194 1.194 0 0 0 413.932 22.965 Q 414.115 22.862 414.295 22.694 A 2.869 2.869 0 0 0 414.51 22.47 A 3.165 3.165 0 0 0 414.831 22.013 Q 415.136 21.497 415.442 20.669 A 17.034 17.034 0 0 0 415.65 20.07 L 416.01 18.96 L 416.58 18.96 L 415.83 21.15 Q 415.41 22.35 414.825 23.025 A 4.611 4.611 0 0 1 414.342 23.509 Q 414.057 23.753 413.761 23.911 A 2.643 2.643 0 0 1 413.61 23.985 A 3.314 3.314 0 0 1 412.949 24.207 A 2.671 2.671 0 0 1 412.38 24.27 A 2.736 2.736 0 0 1 411.761 24.205 Q 411.357 24.111 411.072 23.882 A 1.523 1.523 0 0 1 410.73 23.49 Q 410.34 22.8 410.52 21.885 Q 410.7 20.97 410.94 20.04 Z M 189.81 8.01 L 186.09 21.3 Q 185.88 22.11 185.895 22.635 A 0.66 0.66 0 0 0 185.937 22.859 Q 186.05 23.147 186.47 23.159 A 1.305 1.305 0 0 0 186.51 23.16 A 1.274 1.274 0 0 0 187.236 22.926 Q 187.424 22.798 187.602 22.601 A 2.84 2.84 0 0 0 187.725 22.455 Q 188.187 21.869 188.658 20.629 A 18.125 18.125 0 0 0 188.85 20.1 L 189.24 18.99 L 189.81 18.99 L 189.06 21.18 A 7.707 7.707 0 0 1 188.748 21.975 Q 188.568 22.364 188.362 22.671 A 3.442 3.442 0 0 1 188.025 23.1 A 4.26 4.26 0 0 1 187.485 23.592 Q 187.146 23.85 186.789 23.994 A 2.623 2.623 0 0 1 186.735 24.015 Q 186.06 24.27 185.43 24.27 Q 184.95 24.27 184.53 24.06 A 1.468 1.468 0 0 1 184.087 23.727 A 1.379 1.379 0 0 1 183.9 23.46 A 1.842 1.842 0 0 1 183.757 23.004 Q 183.69 22.635 183.735 22.17 A 8.352 8.352 0 0 1 183.807 21.63 Q 183.898 21.069 184.079 20.32 A 29.856 29.856 0 0 1 184.14 20.07 L 187.08 8.43 A 16.81 16.81 0 0 0 188.513 8.313 A 15.387 15.387 0 0 0 188.535 8.31 A 6.458 6.458 0 0 0 189.284 8.171 A 5.1 5.1 0 0 0 189.81 8.01 Z M 270.48 8.01 L 266.76 21.3 Q 266.55 22.11 266.565 22.635 A 0.66 0.66 0 0 0 266.607 22.859 Q 266.72 23.147 267.14 23.159 A 1.305 1.305 0 0 0 267.18 23.16 A 1.274 1.274 0 0 0 267.906 22.926 Q 268.094 22.798 268.272 22.601 A 2.84 2.84 0 0 0 268.395 22.455 Q 268.857 21.869 269.328 20.629 A 18.125 18.125 0 0 0 269.52 20.1 L 269.91 18.99 L 270.48 18.99 L 269.73 21.18 A 7.707 7.707 0 0 1 269.418 21.975 Q 269.238 22.364 269.032 22.671 A 3.442 3.442 0 0 1 268.695 23.1 A 4.26 4.26 0 0 1 268.155 23.592 Q 267.816 23.85 267.459 23.994 A 2.623 2.623 0 0 1 267.405 24.015 Q 266.73 24.27 266.1 24.27 Q 265.62 24.27 265.2 24.06 A 1.468 1.468 0 0 1 264.757 23.727 A 1.379 1.379 0 0 1 264.57 23.46 A 1.842 1.842 0 0 1 264.427 23.004 Q 264.36 22.635 264.405 22.17 A 8.352 8.352 0 0 1 264.477 21.63 Q 264.568 21.069 264.749 20.32 A 29.856 29.856 0 0 1 264.81 20.07 L 267.75 8.43 A 16.81 16.81 0 0 0 269.183 8.313 A 15.387 15.387 0 0 0 269.205 8.31 A 6.458 6.458 0 0 0 269.954 8.171 A 5.1 5.1 0 0 0 270.48 8.01 Z M 372.42 12.21 L 369.48 23.85 L 366.87 23.85 L 370.47 10.98 A 4.961 4.961 0 0 0 370.597 10.526 A 6.227 6.227 0 0 0 370.665 10.185 Q 370.72 9.867 370.67 9.613 A 1.077 1.077 0 0 0 370.62 9.435 A 0.447 0.447 0 0 0 370.329 9.164 Q 370.241 9.134 370.128 9.124 A 1.28 1.28 0 0 0 370.02 9.12 Q 369.36 9.12 368.85 9.765 A 3.472 3.472 0 0 0 368.571 10.187 Q 368.303 10.653 368.007 11.392 A 21.438 21.438 0 0 0 367.71 12.18 L 367.32 13.29 L 366.75 13.29 L 367.5 11.1 A 8.778 8.778 0 0 1 367.884 10.163 Q 368.427 9.046 369.135 8.61 A 4.37 4.37 0 0 1 369.985 8.2 A 3.279 3.279 0 0 1 371.07 8.01 Q 371.601 8.01 371.96 8.146 A 1.204 1.204 0 0 1 372.375 8.4 Q 372.78 8.79 372.825 9.405 Q 372.87 10.02 372.735 10.755 Q 372.6 11.49 372.42 12.21 Z M 148.98 12.21 L 146.04 23.85 L 143.43 23.85 L 147.03 10.98 A 3.175 3.175 0 0 0 147.09 10.775 Q 147.146 10.56 147.195 10.275 A 2.341 2.341 0 0 0 147.226 10.01 Q 147.242 9.728 147.18 9.48 A 0.428 0.428 0 0 0 146.899 9.164 Q 146.813 9.133 146.702 9.124 A 1.133 1.133 0 0 0 146.61 9.12 Q 146.003 9.12 145.498 9.703 A 2.769 2.769 0 0 0 145.41 9.81 A 3.975 3.975 0 0 0 145.102 10.276 Q 144.799 10.803 144.479 11.621 A 19.931 19.931 0 0 0 144.27 12.18 L 143.88 13.29 L 143.31 13.29 L 144.06 11.1 A 8.207 8.207 0 0 1 144.389 10.305 Q 144.721 9.613 145.125 9.18 A 4.26 4.26 0 0 1 145.665 8.688 Q 146.004 8.43 146.361 8.286 A 2.623 2.623 0 0 1 146.415 8.265 Q 147.09 8.01 147.69 8.01 A 3.161 3.161 0 0 1 148.144 8.04 Q 148.697 8.121 148.98 8.415 Q 149.37 8.82 149.415 9.465 Q 149.45 9.97 149.366 10.522 A 5.864 5.864 0 0 1 149.31 10.83 A 23.979 23.979 0 0 1 149.068 11.876 A 21.507 21.507 0 0 1 148.98 12.21 Z M 294.21 12.21 L 291.27 23.85 L 288.66 23.85 L 292.26 10.98 A 3.175 3.175 0 0 0 292.32 10.775 Q 292.376 10.56 292.425 10.275 A 2.341 2.341 0 0 0 292.456 10.01 Q 292.472 9.728 292.41 9.48 A 0.428 0.428 0 0 0 292.129 9.164 Q 292.043 9.133 291.932 9.124 A 1.133 1.133 0 0 0 291.84 9.12 Q 291.233 9.12 290.728 9.703 A 2.769 2.769 0 0 0 290.64 9.81 A 3.975 3.975 0 0 0 290.332 10.276 Q 290.029 10.803 289.709 11.621 A 19.931 19.931 0 0 0 289.5 12.18 L 289.11 13.29 L 288.54 13.29 L 289.29 11.1 A 8.207 8.207 0 0 1 289.619 10.305 Q 289.951 9.613 290.355 9.18 A 4.26 4.26 0 0 1 290.895 8.688 Q 291.234 8.43 291.591 8.286 A 2.623 2.623 0 0 1 291.645 8.265 Q 292.32 8.01 292.92 8.01 A 3.161 3.161 0 0 1 293.374 8.04 Q 293.927 8.121 294.21 8.415 Q 294.6 8.82 294.645 9.465 Q 294.68 9.97 294.596 10.522 A 5.864 5.864 0 0 1 294.54 10.83 A 23.979 23.979 0 0 1 294.298 11.876 A 21.507 21.507 0 0 1 294.21 12.21 Z M 100.95 8.43 L 110.22 8.43 L 110.13 9.03 L 100.8 9.03 L 100.95 8.43 Z M 118.62 8.43 L 127.89 8.43 L 127.8 9.03 L 118.47 9.03 L 118.62 8.43 Z M 193.26 8.43 L 202.53 8.43 L 202.44 9.03 L 193.11 9.03 L 193.26 8.43 Z M 385.2 8.43 L 394.47 8.43 L 394.38 9.03 L 385.05 9.03 L 385.2 8.43 Z M 418.563 21.297 A 2.184 2.184 0 0 0 418.02 22.74 A 1.965 1.965 0 0 0 418.025 22.882 A 1.482 1.482 0 0 0 418.44 23.835 A 1.372 1.372 0 0 0 418.997 24.19 A 1.634 1.634 0 0 0 419.52 24.27 Q 420.12 24.27 420.63 23.955 Q 421.14 23.64 421.455 23.115 Q 421.77 22.59 421.77 21.99 Q 421.77 21.33 421.35 20.88 Q 420.93 20.43 420.24 20.43 Q 419.4 20.43 418.71 21.135 A 2.919 2.919 0 0 0 418.563 21.297 Z M 29.73 2.97 Q 29.88 2.19 30.525 1.62 A 2.447 2.447 0 0 1 31.087 1.241 A 1.907 1.907 0 0 1 31.92 1.05 A 1.711 1.711 0 0 1 32.456 1.13 A 1.382 1.382 0 0 1 33.135 1.62 Q 33.542 2.153 33.437 2.871 A 2.272 2.272 0 0 1 33.42 2.97 Q 33.27 3.75 32.625 4.32 A 2.368 2.368 0 0 1 32.002 4.724 A 1.991 1.991 0 0 1 31.2 4.89 A 1.963 1.963 0 0 1 31.188 4.89 Q 30.876 4.888 30.618 4.786 A 1.397 1.397 0 0 1 30.015 4.32 Q 29.608 3.787 29.713 3.069 A 2.272 2.272 0 0 1 29.73 2.97 Z M 56.01 2.97 Q 56.16 2.19 56.805 1.62 A 2.447 2.447 0 0 1 57.367 1.241 A 1.907 1.907 0 0 1 58.2 1.05 A 1.711 1.711 0 0 1 58.736 1.13 A 1.382 1.382 0 0 1 59.415 1.62 Q 59.822 2.153 59.717 2.871 A 2.272 2.272 0 0 1 59.7 2.97 Q 59.55 3.75 58.905 4.32 A 2.368 2.368 0 0 1 58.282 4.724 A 1.991 1.991 0 0 1 57.48 4.89 A 1.963 1.963 0 0 1 57.468 4.89 Q 57.156 4.888 56.898 4.786 A 1.397 1.397 0 0 1 56.295 4.32 Q 55.888 3.787 55.993 3.069 A 2.272 2.272 0 0 1 56.01 2.97 Z M 207.03 2.97 Q 207.18 2.19 207.825 1.62 A 2.447 2.447 0 0 1 208.387 1.241 A 1.907 1.907 0 0 1 209.22 1.05 A 1.711 1.711 0 0 1 209.756 1.13 A 1.382 1.382 0 0 1 210.435 1.62 Q 210.842 2.153 210.737 2.871 A 2.272 2.272 0 0 1 210.72 2.97 Q 210.57 3.75 209.925 4.32 A 2.368 2.368 0 0 1 209.302 4.724 A 1.991 1.991 0 0 1 208.5 4.89 A 1.963 1.963 0 0 1 208.488 4.89 Q 208.176 4.888 207.918 4.786 A 1.397 1.397 0 0 1 207.315 4.32 Q 206.908 3.787 207.013 3.069 A 2.272 2.272 0 0 1 207.03 2.97 Z M 349.56 2.97 Q 349.71 2.19 350.355 1.62 A 2.447 2.447 0 0 1 350.917 1.241 A 1.907 1.907 0 0 1 351.75 1.05 A 1.711 1.711 0 0 1 352.286 1.13 A 1.382 1.382 0 0 1 352.965 1.62 Q 353.372 2.153 353.267 2.871 A 2.272 2.272 0 0 1 353.25 2.97 Q 353.1 3.75 352.455 4.32 A 2.368 2.368 0 0 1 351.832 4.724 A 1.991 1.991 0 0 1 351.03 4.89 A 1.963 1.963 0 0 1 351.018 4.89 Q 350.706 4.888 350.448 4.786 A 1.397 1.397 0 0 1 349.845 4.32 Q 349.438 3.787 349.543 3.069 A 2.272 2.272 0 0 1 349.56 2.97 Z M 398.97 2.97 Q 399.12 2.19 399.765 1.62 A 2.447 2.447 0 0 1 400.327 1.241 A 1.907 1.907 0 0 1 401.16 1.05 A 1.711 1.711 0 0 1 401.696 1.13 A 1.382 1.382 0 0 1 402.375 1.62 Q 402.782 2.153 402.677 2.871 A 2.272 2.272 0 0 1 402.66 2.97 Q 402.51 3.75 401.865 4.32 A 2.368 2.368 0 0 1 401.242 4.724 A 1.991 1.991 0 0 1 400.44 4.89 A 1.963 1.963 0 0 1 400.428 4.89 Q 400.116 4.888 399.858 4.786 A 1.397 1.397 0 0 1 399.255 4.32 Q 398.848 3.787 398.953 3.069 A 2.272 2.272 0 0 1 398.97 2.97 Z" vector-effect="non-scaling-stroke"/></g></svg>