<svg width="474.7" height="86.701" viewBox="0 0 474.7 86.701" xmlns="http://www.w3.org/2000/svg"><g id="svgGroup" stroke-linecap="round" fill-rule="nonzero" font-size="9pt" stroke="#000000" stroke-width="0.25mm" fill="#ffffff" style="stroke:#000000;stroke-width:0.25mm;fill:#ffffff"><path d="M 185.2 9.9 L 228.9 9.9 Q 237.964 9.9 244.699 12.546 A 30.663 30.663 0 0 1 246.35 13.25 A 27.06 27.06 0 0 1 253.079 17.6 A 23.27 23.27 0 0 1 257.4 22.75 A 25.326 25.326 0 0 1 260.899 32.702 A 32.686 32.686 0 0 1 261.2 37.2 A 30.579 30.579 0 0 1 260.308 44.737 A 24.541 24.541 0 0 1 257.4 51.65 A 24.078 24.078 0 0 1 248.74 59.916 A 30.102 30.102 0 0 1 246.35 61.15 Q 239.666 64.239 230.476 64.48 A 60.048 60.048 0 0 1 228.9 64.5 L 197.2 64.5 L 197.2 44.4 L 227.2 44.4 Q 231 44.4 233.1 42.5 A 6.217 6.217 0 0 0 235.034 38.994 A 9.217 9.217 0 0 0 235.2 37.2 Q 235.2 34.141 233.596 32.343 A 5.808 5.808 0 0 0 233.1 31.85 A 6.913 6.913 0 0 0 230.482 30.435 Q 229.446 30.123 228.204 30.035 A 14.253 14.253 0 0 0 227.2 30 L 199.4 30 L 211 18.4 L 211 84.9 L 185.2 84.9 L 185.2 9.9 Z M 17.8 59.9 L 17.8 42 L 43 42 A 12.909 12.909 0 0 0 45.311 41.807 Q 46.604 41.571 47.627 41.049 A 6.458 6.458 0 0 0 48.9 40.2 A 5.816 5.816 0 0 0 50.795 36.969 A 8.915 8.915 0 0 0 51 35 A 8.785 8.785 0 0 0 50.763 32.897 A 5.784 5.784 0 0 0 48.9 29.8 Q 47.128 28.282 44.146 28.044 A 14.453 14.453 0 0 0 43 28 L 14.2 28 L 25.8 16.4 L 25.8 84.9 L 0 84.9 L 0 9.9 L 47 9.9 A 43.464 43.464 0 0 1 54.935 10.591 A 32.367 32.367 0 0 1 62.75 13.05 A 27.082 27.082 0 0 1 69.315 17.299 A 23.379 23.379 0 0 1 73.25 21.8 A 22.152 22.152 0 0 1 76.814 31.715 A 28.331 28.331 0 0 1 77 35 A 24.742 24.742 0 0 1 75.818 42.759 A 21.839 21.839 0 0 1 73.25 48.05 A 23.939 23.939 0 0 1 64.786 55.769 A 29.395 29.395 0 0 1 62.75 56.8 A 33.135 33.135 0 0 1 54.193 59.349 A 44.857 44.857 0 0 1 47 59.9 L 17.8 59.9 Z M 425.8 45.9 L 425.8 61 A 33.441 33.441 0 0 0 426.269 66.719 A 24.758 24.758 0 0 0 429.1 74.8 A 19.96 19.96 0 0 0 433.104 79.783 A 23.258 23.258 0 0 0 439.1 83.65 Q 443.301 85.563 448.877 86.276 A 56.24 56.24 0 0 0 456 86.7 Q 461.4 86.7 466.35 85.95 Q 471.3 85.2 474.7 84.2 L 474.7 65.8 Q 472.2 66.6 469.05 67.15 A 30.421 30.421 0 0 1 468.628 67.221 Q 465.634 67.7 461.9 67.7 A 30.866 30.866 0 0 1 459.612 67.621 Q 455.005 67.277 453.3 65.45 Q 451.2 63.2 451.2 57.7 L 451.2 45.9 L 473.7 45.9 L 473.7 27.4 L 451.2 27.4 L 451.2 11.7 L 436.9 11.7 L 425.8 29.3 L 414.5 35 L 414.5 45.9 L 425.8 45.9 Z M 338.4 86.7 Q 327 86.7 318.45 82.9 A 33.946 33.946 0 0 1 310.438 77.988 A 28.697 28.697 0 0 1 305.15 72.2 A 27.032 27.032 0 0 1 300.461 58.234 A 33.506 33.506 0 0 1 300.4 56.2 A 30.103 30.103 0 0 1 301.741 47.075 A 26.129 26.129 0 0 1 305.15 40.1 A 29.729 29.729 0 0 1 314.891 31.211 A 37.158 37.158 0 0 1 318.45 29.4 A 42.841 42.841 0 0 1 328.971 26.328 A 58.354 58.354 0 0 1 338.4 25.6 Q 349.8 25.6 358.35 29.4 A 33.946 33.946 0 0 1 366.362 34.313 A 28.697 28.697 0 0 1 371.65 40.1 A 26.999 26.999 0 0 1 376.295 53.52 A 33.779 33.779 0 0 1 376.4 56.2 A 29.481 29.481 0 0 1 374.907 65.711 A 26.215 26.215 0 0 1 371.65 72.2 A 29.729 29.729 0 0 1 361.909 81.09 A 37.158 37.158 0 0 1 358.35 82.9 A 42.841 42.841 0 0 1 347.829 85.973 A 58.354 58.354 0 0 1 338.4 86.7 Z M 338.4 68.2 A 18.984 18.984 0 0 0 341.416 67.974 Q 343.049 67.711 344.41 67.143 A 10.844 10.844 0 0 0 345.15 66.8 Q 347.9 65.4 349.35 62.7 Q 350.8 60 350.8 56.2 Q 350.8 52.662 349.607 50.112 A 10.367 10.367 0 0 0 349.35 49.6 Q 347.9 46.9 345.15 45.5 Q 342.658 44.232 339.139 44.113 A 21.877 21.877 0 0 0 338.4 44.1 A 18.215 18.215 0 0 0 335.252 44.359 Q 333.297 44.702 331.7 45.5 Q 328.9 46.9 327.45 49.6 Q 326 52.3 326 56.1 Q 326 59.639 327.193 62.189 A 10.367 10.367 0 0 0 327.45 62.7 Q 328.9 65.4 331.7 66.8 A 12.784 12.784 0 0 0 335.091 67.913 Q 336.536 68.182 338.18 68.199 A 21.471 21.471 0 0 0 338.4 68.2 Z M 267.7 84.9 L 267.7 7.9 L 293.1 7.9 L 293.1 84.9 L 267.7 84.9 Z M 157.2 62.5 L 133.4 62.5 L 133.4 44.8 L 174.4 44.8 L 174.4 84.9 L 156.5 84.9 L 152.7 56.2 L 157.2 62.5 Z M 154.7 52.5 A 16.598 16.598 0 0 1 154.44 53.859 A 13.07 13.07 0 0 1 150.95 60.25 A 16.362 16.362 0 0 1 147.187 63.04 A 21.393 21.393 0 0 1 143 64.75 Q 140.397 65.521 137.399 65.882 A 46.866 46.866 0 0 1 131.8 66.2 Q 128.652 66.2 125.914 65.731 A 24.407 24.407 0 0 1 120.55 64.2 Q 115.8 62.2 113.25 58 A 15.015 15.015 0 0 1 112.494 56.59 Q 110.7 52.769 110.7 47.4 A 32.129 32.129 0 0 1 110.766 45.314 Q 110.91 43.093 111.373 41.198 A 16.101 16.101 0 0 1 112.95 37.1 Q 115.2 33.1 119.4 31.15 A 17.722 17.722 0 0 1 119.775 30.982 Q 122.005 30.009 124.671 29.567 A 28.959 28.959 0 0 1 129.4 29.2 A 37.162 37.162 0 0 1 133.34 29.401 A 28.431 28.431 0 0 1 137.9 30.25 Q 141.7 31.3 144.35 33.25 A 11.641 11.641 0 0 1 145.318 34.045 A 9.081 9.081 0 0 1 147.9 38 L 173.8 38 Q 172 29.2 166.35 22.5 Q 160.7 15.8 151.45 11.95 A 41.833 41.833 0 0 0 148.984 11.015 Q 144.467 9.461 139.144 8.736 A 73.718 73.718 0 0 0 129.2 8.1 A 65.759 65.759 0 0 0 124.631 8.257 A 55.463 55.463 0 0 0 111.9 10.6 A 47.718 47.718 0 0 0 110.784 10.964 A 41.678 41.678 0 0 0 97.8 18.05 Q 91.7 23 88.3 30.35 Q 84.9 37.7 84.9 47.4 Q 84.9 57.1 88.3 64.45 Q 91.7 71.8 97.65 76.75 Q 103.6 81.7 111.35 84.2 A 49.911 49.911 0 0 0 113.826 84.929 A 54.071 54.071 0 0 0 127.8 86.7 A 64.179 64.179 0 0 0 128.99 86.69 Q 137.838 86.525 144.4 83.9 Q 151.4 81.1 155.95 76.25 Q 160.5 71.4 162.85 65.25 Q 165.2 59.1 165.6 52.5 L 154.7 52.5 Z M 383.7 84.9 L 383.7 26.2 L 396.4 28.8 L 409.1 26.2 L 409.1 84.9 L 383.7 84.9 Z M 50.5 84.9 L 26.6 49.8 L 55.1 49.8 L 80 84.9 L 50.5 84.9 Z M 392.123 22.8 Q 388.598 22.086 386.1 20.1 A 10.04 10.04 0 0 1 382.247 12.754 A 13.972 13.972 0 0 1 382.2 11.6 A 12.003 12.003 0 0 1 382.795 7.733 A 9.874 9.874 0 0 1 386.1 3.1 A 13.628 13.628 0 0 1 391.279 0.594 Q 393.274 0.084 395.622 0.012 A 25.494 25.494 0 0 1 396.4 0 Q 401.583 0 405.081 1.971 A 12.222 12.222 0 0 1 406.75 3.1 A 10.079 10.079 0 0 1 410.554 10.447 A 14.152 14.152 0 0 1 410.6 11.6 A 12.151 12.151 0 0 1 410.015 15.459 A 9.871 9.871 0 0 1 406.75 20.1 A 13.263 13.263 0 0 1 401.829 22.542 Q 399.89 23.067 397.594 23.173 A 25.748 25.748 0 0 1 396.4 23.2 A 21.553 21.553 0 0 1 392.123 22.8 Z" vector-effect="non-scaling-stroke"/></g></svg>