<svg width="319.62" height="28.23" viewBox="0 0 319.62 28.23" xmlns="http://www.w3.org/2000/svg"><g id="svgGroup" stroke-linecap="round" fill-rule="evenodd" font-size="9pt" stroke="#ffffff" stroke-width="0.25mm" fill="#ffffff" style="stroke:#ffffff;stroke-width:0.25mm;fill:#ffffff"><path d="M 211.29 11.1 L 210.96 12.21 L 210.39 12.21 L 211.05 10.02 A 9.837 9.837 0 0 1 211.339 9.146 Q 211.672 8.288 212.09 7.818 A 2.118 2.118 0 0 1 212.325 7.59 A 3.231 3.231 0 0 1 212.877 7.219 Q 213.37 6.96 213.87 6.96 A 1.794 1.794 0 0 1 214.334 7.018 A 1.394 1.394 0 0 1 214.83 7.26 Q 215.22 7.56 215.625 7.845 A 1.554 1.554 0 0 0 216.309 8.11 A 2.044 2.044 0 0 0 216.6 8.13 A 4.119 4.119 0 0 0 217.945 7.912 A 3.951 3.951 0 0 0 217.965 7.905 Q 218.61 7.68 219.12 7.2 L 219.42 6.63 L 220.05 6.93 A 33.169 33.169 0 0 0 218.393 9.135 A 29.337 29.337 0 0 0 217.905 9.87 A 22.933 22.933 0 0 0 216.381 12.629 A 21.047 21.047 0 0 0 216.285 12.84 Q 215.61 14.34 215.205 15.87 Q 214.8 17.4 214.65 18.99 A 12.824 12.824 0 0 0 214.628 19.397 Q 214.575 20.821 214.905 21.48 Q 215.152 21.975 215.523 22.143 A 0.996 0.996 0 0 0 215.94 22.23 Q 217.35 22.23 218.55 21.48 A 7.938 7.938 0 0 0 220.316 19.962 A 9.336 9.336 0 0 0 220.695 19.5 Q 221.64 18.27 222.315 16.815 Q 222.99 15.36 223.365 13.95 Q 223.694 12.715 223.78 11.71 A 8.733 8.733 0 0 0 223.8 11.43 A 4.851 4.851 0 0 1 222.749 10.711 A 6.112 6.112 0 0 1 222.24 10.2 Q 221.52 9.39 221.61 8.19 A 1.858 1.858 0 0 1 221.679 7.816 Q 221.746 7.592 221.872 7.43 A 0.96 0.96 0 0 1 222.105 7.215 A 2.076 2.076 0 0 1 222.412 7.047 Q 222.68 6.93 222.93 6.93 Q 223.73 6.93 224.147 7.618 A 2.412 2.412 0 0 1 224.37 8.115 A 4.776 4.776 0 0 1 224.556 8.928 Q 224.694 9.886 224.55 11.16 Q 224.34 12.93 223.83 14.67 Q 223.32 16.41 222.525 17.94 A 12.459 12.459 0 0 1 220.655 20.633 A 11.731 11.731 0 0 1 220.62 20.67 A 8.536 8.536 0 0 1 218.555 22.321 A 7.995 7.995 0 0 1 218.13 22.545 Q 216.75 23.22 215.07 23.22 A 5.307 5.307 0 0 1 214.247 23.16 Q 213.811 23.092 213.458 22.944 A 2.474 2.474 0 0 1 212.955 22.665 Q 212.19 22.11 211.89 21.255 Q 211.59 20.4 211.65 19.5 A 8.553 8.553 0 0 1 211.969 17.756 Q 212.195 16.966 212.574 16.126 A 14.657 14.657 0 0 1 212.685 15.885 Q 213.6 13.95 215.115 11.955 A 30.441 30.441 0 0 1 217.884 8.802 A 34.532 34.532 0 0 1 218.61 8.1 A 5.805 5.805 0 0 0 218.115 8.314 A 7.823 7.823 0 0 0 217.59 8.595 Q 217.05 8.91 216.54 9.225 A 10.539 10.539 0 0 1 215.914 9.584 A 8.762 8.762 0 0 1 215.55 9.765 Q 215.105 9.974 214.711 9.989 A 1.594 1.594 0 0 1 214.65 9.99 Q 214.08 9.99 213.675 9.615 A 1.452 1.452 0 0 0 213.272 9.346 A 1.261 1.261 0 0 0 212.76 9.24 A 0.947 0.947 0 0 0 212.041 9.556 A 1.293 1.293 0 0 0 211.965 9.645 Q 211.65 10.05 211.29 11.1 Z M 58.59 16.5 L 58.62 15.99 A 63.455 63.455 0 0 0 60.221 15.424 A 48.05 48.05 0 0 0 61.665 14.865 A 12.907 12.907 0 0 0 62.606 14.441 Q 63.049 14.218 63.41 13.984 A 6.058 6.058 0 0 0 63.84 13.68 Q 64.92 12.81 65.55 11.58 A 5.792 5.792 0 0 0 66.178 9.063 A 6.757 6.757 0 0 0 66.18 8.88 A 10.206 10.206 0 0 0 66.176 8.576 Q 66.161 8.094 66.097 7.87 A 0.589 0.589 0 0 0 66.06 7.77 A 0.519 0.519 0 0 0 65.976 7.646 A 0.362 0.362 0 0 0 65.7 7.53 A 2.002 2.002 0 0 0 65.021 7.656 Q 64.746 7.755 64.457 7.932 A 4.53 4.53 0 0 0 64.08 8.19 A 6.934 6.934 0 0 0 63.278 8.911 Q 62.934 9.268 62.595 9.705 A 12.254 12.254 0 0 0 62.37 10.005 A 15.607 15.607 0 0 0 61.373 11.572 A 19.074 19.074 0 0 0 60.825 12.63 Q 60.12 14.1 59.7 15.765 Q 59.28 17.43 59.28 19.08 Q 59.28 20.465 59.747 21.149 A 1.663 1.663 0 0 0 59.85 21.285 A 1.842 1.842 0 0 0 61.193 21.955 A 2.441 2.441 0 0 0 61.35 21.96 A 4.021 4.021 0 0 0 62.531 21.774 Q 63 21.63 63.49 21.375 A 7.015 7.015 0 0 0 63.63 21.3 A 5.023 5.023 0 0 0 64.577 20.612 Q 64.975 20.251 65.366 19.774 A 11.295 11.295 0 0 0 65.97 18.96 L 66.45 19.2 A 8.577 8.577 0 0 1 65.597 20.414 A 10.657 10.657 0 0 1 64.95 21.12 Q 64.02 22.05 62.865 22.635 Q 61.71 23.22 60.42 23.22 A 5.091 5.091 0 0 1 59.361 23.115 A 3.938 3.938 0 0 1 58.32 22.74 Q 57.42 22.26 56.94 21.315 A 4.183 4.183 0 0 1 56.58 20.264 Q 56.46 19.681 56.46 18.99 A 8.282 8.282 0 0 1 56.565 17.712 Q 56.685 16.948 56.94 16.095 A 15.879 15.879 0 0 1 57.937 13.587 A 18.302 18.302 0 0 1 58.305 12.885 Q 59.19 11.28 60.42 9.93 A 10.524 10.524 0 0 1 62.586 8.1 A 9.682 9.682 0 0 1 63.15 7.77 Q 64.65 6.96 66.36 6.96 A 2.899 2.899 0 0 1 67.143 7.061 A 2.309 2.309 0 0 1 67.935 7.455 A 1.594 1.594 0 0 1 68.529 8.422 A 2.482 2.482 0 0 1 68.58 8.94 Q 68.58 10.14 67.875 11.175 A 7.367 7.367 0 0 1 66.756 12.456 A 9.167 9.167 0 0 1 66.015 13.065 Q 64.86 13.92 63.51 14.58 A 30.21 30.21 0 0 1 61.519 15.469 A 26.488 26.488 0 0 1 60.87 15.72 A 51.179 51.179 0 0 1 59.945 16.055 Q 59.439 16.232 58.988 16.376 A 27.588 27.588 0 0 1 58.59 16.5 Z M 125.16 16.5 L 125.19 15.99 A 63.455 63.455 0 0 0 126.791 15.424 A 48.05 48.05 0 0 0 128.235 14.865 A 12.907 12.907 0 0 0 129.176 14.441 Q 129.619 14.218 129.98 13.984 A 6.058 6.058 0 0 0 130.41 13.68 Q 131.49 12.81 132.12 11.58 A 5.792 5.792 0 0 0 132.748 9.063 A 6.757 6.757 0 0 0 132.75 8.88 A 10.206 10.206 0 0 0 132.746 8.576 Q 132.731 8.094 132.667 7.87 A 0.589 0.589 0 0 0 132.63 7.77 A 0.519 0.519 0 0 0 132.546 7.646 A 0.362 0.362 0 0 0 132.27 7.53 A 2.002 2.002 0 0 0 131.591 7.656 Q 131.316 7.755 131.027 7.932 A 4.53 4.53 0 0 0 130.65 8.19 A 6.934 6.934 0 0 0 129.848 8.911 Q 129.504 9.268 129.165 9.705 A 12.254 12.254 0 0 0 128.94 10.005 A 15.607 15.607 0 0 0 127.943 11.572 A 19.074 19.074 0 0 0 127.395 12.63 Q 126.69 14.1 126.27 15.765 Q 125.85 17.43 125.85 19.08 Q 125.85 20.465 126.317 21.149 A 1.663 1.663 0 0 0 126.42 21.285 A 1.842 1.842 0 0 0 127.763 21.955 A 2.441 2.441 0 0 0 127.92 21.96 A 4.021 4.021 0 0 0 129.101 21.774 Q 129.57 21.63 130.06 21.375 A 7.015 7.015 0 0 0 130.2 21.3 A 5.023 5.023 0 0 0 131.147 20.612 Q 131.545 20.251 131.936 19.774 A 11.295 11.295 0 0 0 132.54 18.96 L 133.02 19.2 A 8.577 8.577 0 0 1 132.167 20.414 A 10.657 10.657 0 0 1 131.52 21.12 Q 130.59 22.05 129.435 22.635 Q 128.28 23.22 126.99 23.22 A 5.091 5.091 0 0 1 125.931 23.115 A 3.938 3.938 0 0 1 124.89 22.74 Q 123.99 22.26 123.51 21.315 A 4.183 4.183 0 0 1 123.15 20.264 Q 123.03 19.681 123.03 18.99 A 8.282 8.282 0 0 1 123.135 17.712 Q 123.255 16.948 123.51 16.095 A 15.879 15.879 0 0 1 124.507 13.587 A 18.302 18.302 0 0 1 124.875 12.885 Q 125.76 11.28 126.99 9.93 A 10.524 10.524 0 0 1 129.156 8.1 A 9.682 9.682 0 0 1 129.72 7.77 Q 131.22 6.96 132.93 6.96 A 2.899 2.899 0 0 1 133.713 7.061 A 2.309 2.309 0 0 1 134.505 7.455 A 1.594 1.594 0 0 1 135.099 8.422 A 2.482 2.482 0 0 1 135.15 8.94 Q 135.15 10.14 134.445 11.175 A 7.367 7.367 0 0 1 133.326 12.456 A 9.167 9.167 0 0 1 132.585 13.065 Q 131.43 13.92 130.08 14.58 A 30.21 30.21 0 0 1 128.089 15.469 A 26.488 26.488 0 0 1 127.44 15.72 A 51.179 51.179 0 0 1 126.515 16.055 Q 126.009 16.232 125.558 16.376 A 27.588 27.588 0 0 1 125.16 16.5 Z M 178.83 16.5 L 178.86 15.99 A 63.455 63.455 0 0 0 180.461 15.424 A 48.05 48.05 0 0 0 181.905 14.865 A 12.907 12.907 0 0 0 182.846 14.441 Q 183.289 14.218 183.65 13.984 A 6.058 6.058 0 0 0 184.08 13.68 Q 185.16 12.81 185.79 11.58 A 5.792 5.792 0 0 0 186.418 9.063 A 6.757 6.757 0 0 0 186.42 8.88 A 10.206 10.206 0 0 0 186.416 8.576 Q 186.401 8.094 186.337 7.87 A 0.589 0.589 0 0 0 186.3 7.77 A 0.519 0.519 0 0 0 186.216 7.646 A 0.362 0.362 0 0 0 185.94 7.53 A 2.002 2.002 0 0 0 185.261 7.656 Q 184.986 7.755 184.697 7.932 A 4.53 4.53 0 0 0 184.32 8.19 A 6.934 6.934 0 0 0 183.518 8.911 Q 183.174 9.268 182.835 9.705 A 12.254 12.254 0 0 0 182.61 10.005 A 15.607 15.607 0 0 0 181.613 11.572 A 19.074 19.074 0 0 0 181.065 12.63 Q 180.36 14.1 179.94 15.765 Q 179.52 17.43 179.52 19.08 Q 179.52 20.465 179.987 21.149 A 1.663 1.663 0 0 0 180.09 21.285 A 1.842 1.842 0 0 0 181.433 21.955 A 2.441 2.441 0 0 0 181.59 21.96 A 4.021 4.021 0 0 0 182.771 21.774 Q 183.24 21.63 183.73 21.375 A 7.015 7.015 0 0 0 183.87 21.3 A 5.023 5.023 0 0 0 184.817 20.612 Q 185.215 20.251 185.606 19.774 A 11.295 11.295 0 0 0 186.21 18.96 L 186.69 19.2 A 8.577 8.577 0 0 1 185.837 20.414 A 10.657 10.657 0 0 1 185.19 21.12 Q 184.26 22.05 183.105 22.635 Q 181.95 23.22 180.66 23.22 A 5.091 5.091 0 0 1 179.601 23.115 A 3.938 3.938 0 0 1 178.56 22.74 Q 177.66 22.26 177.18 21.315 A 4.183 4.183 0 0 1 176.82 20.264 Q 176.7 19.681 176.7 18.99 A 8.282 8.282 0 0 1 176.805 17.712 Q 176.925 16.948 177.18 16.095 A 15.879 15.879 0 0 1 178.177 13.587 A 18.302 18.302 0 0 1 178.545 12.885 Q 179.43 11.28 180.66 9.93 A 10.524 10.524 0 0 1 182.826 8.1 A 9.682 9.682 0 0 1 183.39 7.77 Q 184.89 6.96 186.6 6.96 A 2.899 2.899 0 0 1 187.383 7.061 A 2.309 2.309 0 0 1 188.175 7.455 A 1.594 1.594 0 0 1 188.769 8.422 A 2.482 2.482 0 0 1 188.82 8.94 Q 188.82 10.14 188.115 11.175 A 7.367 7.367 0 0 1 186.996 12.456 A 9.167 9.167 0 0 1 186.255 13.065 Q 185.1 13.92 183.75 14.58 A 30.21 30.21 0 0 1 181.759 15.469 A 26.488 26.488 0 0 1 181.11 15.72 A 51.179 51.179 0 0 1 180.185 16.055 Q 179.679 16.232 179.228 16.376 A 27.588 27.588 0 0 1 178.83 16.5 Z M 152.31 19.02 L 155.16 10.44 A 6.688 6.688 0 0 0 155.375 9.598 A 4.883 4.883 0 0 0 155.46 8.715 A 1.399 1.399 0 0 0 155.432 8.42 Q 155.339 7.99 154.939 7.93 A 0.93 0.93 0 0 0 154.8 7.92 Q 154.148 7.92 153.449 8.471 A 5.004 5.004 0 0 0 152.91 8.97 Q 152.237 9.684 151.537 10.806 A 21.902 21.902 0 0 0 150.87 11.955 A 35.337 35.337 0 0 0 149.889 13.914 Q 149.404 14.957 148.923 16.143 A 59.113 59.113 0 0 0 148.785 16.485 A 67.73 67.73 0 0 0 147.644 19.571 A 85.479 85.479 0 0 0 146.79 22.2 L 147.48 18.36 A 115.311 115.311 0 0 1 148.332 16.153 Q 149.021 14.424 149.64 13.065 A 30.184 30.184 0 0 1 150.378 11.55 Q 150.751 10.839 151.119 10.248 A 14.054 14.054 0 0 1 151.59 9.54 A 9.537 9.537 0 0 1 152.315 8.635 Q 152.709 8.203 153.113 7.89 A 4.737 4.737 0 0 1 153.57 7.575 Q 154.59 6.96 155.79 6.96 Q 156.505 6.96 156.959 7.192 A 1.342 1.342 0 0 1 157.5 7.68 Q 157.886 8.297 157.886 9.146 A 4.003 4.003 0 0 1 157.875 9.435 Q 157.8 10.47 157.47 11.49 L 154.56 20.25 A 6.821 6.821 0 0 0 154.443 20.651 Q 154.3 21.209 154.337 21.554 A 1.068 1.068 0 0 0 154.35 21.645 A 0.557 0.557 0 0 0 154.47 21.907 Q 154.628 22.091 154.969 22.108 A 1.433 1.433 0 0 0 155.04 22.11 A 1.141 1.141 0 0 0 155.589 21.962 Q 155.765 21.866 155.941 21.708 A 2.79 2.79 0 0 0 156.165 21.48 A 3 3 0 0 0 156.465 21.063 Q 156.749 20.599 157.051 19.85 A 18.44 18.44 0 0 0 157.35 19.05 L 157.74 17.94 L 158.31 17.94 L 157.56 20.13 A 7.707 7.707 0 0 1 157.248 20.925 Q 157.068 21.314 156.862 21.622 A 3.442 3.442 0 0 1 156.525 22.05 A 4.26 4.26 0 0 1 155.985 22.543 Q 155.646 22.8 155.289 22.944 A 2.623 2.623 0 0 1 155.235 22.965 Q 154.56 23.22 153.93 23.22 Q 153.18 23.22 152.745 22.995 A 1.949 1.949 0 0 1 152.338 22.718 A 1.614 1.614 0 0 1 152.07 22.41 Q 151.71 21.84 151.83 20.985 A 9.05 9.05 0 0 1 151.974 20.218 Q 152.102 19.662 152.31 19.02 Z M 89.07 8.58 L 88.47 12.42 A 74.882 74.882 0 0 1 87.673 14.539 Q 87.019 16.196 86.4 17.49 A 26.028 26.028 0 0 1 85.66 18.929 Q 85.285 19.601 84.912 20.157 A 12.157 12.157 0 0 1 84.435 20.82 A 9.435 9.435 0 0 1 83.7 21.668 Q 83.295 22.079 82.885 22.373 A 4.757 4.757 0 0 1 82.455 22.65 A 4.318 4.318 0 0 1 81.046 23.163 A 4.009 4.009 0 0 1 80.37 23.22 A 4.604 4.604 0 0 1 79.684 23.173 Q 79.333 23.12 79.053 23.007 A 1.773 1.773 0 0 1 78.45 22.62 A 2.001 2.001 0 0 1 77.903 21.569 A 2.912 2.912 0 0 1 77.85 21 A 5.973 5.973 0 0 1 77.936 20.02 Q 78.04 19.396 78.27 18.69 L 81.18 9.93 A 6.218 6.218 0 0 0 81.299 9.531 Q 81.459 8.918 81.39 8.55 A 0.592 0.592 0 0 0 81.281 8.292 Q 81.108 8.07 80.7 8.07 A 1.141 1.141 0 0 0 80.151 8.218 Q 79.975 8.314 79.799 8.472 A 2.79 2.79 0 0 0 79.575 8.7 A 3 3 0 0 0 79.275 9.117 Q 78.991 9.582 78.689 10.331 A 18.44 18.44 0 0 0 78.39 11.13 L 78 12.24 L 77.43 12.24 L 78.18 10.05 A 8.207 8.207 0 0 1 78.509 9.255 Q 78.841 8.563 79.245 8.13 A 4.26 4.26 0 0 1 79.785 7.638 Q 80.124 7.38 80.481 7.236 A 2.623 2.623 0 0 1 80.535 7.215 Q 81.21 6.96 81.81 6.96 A 4.399 4.399 0 0 1 82.406 6.997 Q 83.237 7.111 83.565 7.575 A 1.882 1.882 0 0 1 83.879 8.352 Q 83.936 8.677 83.904 9.058 A 3.625 3.625 0 0 1 83.895 9.15 Q 83.79 10.11 83.43 11.16 L 80.58 19.74 A 8.429 8.429 0 0 0 80.448 20.172 Q 79.933 22.049 80.984 22.239 A 1.444 1.444 0 0 0 81.24 22.26 A 1.865 1.865 0 0 0 81.911 22.128 Q 82.171 22.028 82.442 21.853 A 4.155 4.155 0 0 0 82.77 21.615 A 6.265 6.265 0 0 0 83.427 21.004 Q 83.734 20.677 84.045 20.271 A 13.026 13.026 0 0 0 84.42 19.755 A 18.324 18.324 0 0 0 85.204 18.511 Q 85.536 17.937 85.866 17.287 A 30.386 30.386 0 0 0 86.085 16.845 A 36.504 36.504 0 0 0 86.994 14.815 A 46.653 46.653 0 0 0 87.675 13.065 A 47.06 47.06 0 0 0 88.663 10.049 A 55.56 55.56 0 0 0 89.07 8.58 Z M 270.18 8.58 L 269.58 12.42 A 74.882 74.882 0 0 1 268.783 14.539 Q 268.129 16.196 267.51 17.49 A 26.028 26.028 0 0 1 266.77 18.929 Q 266.395 19.601 266.022 20.157 A 12.157 12.157 0 0 1 265.545 20.82 A 9.435 9.435 0 0 1 264.81 21.668 Q 264.405 22.079 263.995 22.373 A 4.757 4.757 0 0 1 263.565 22.65 A 4.318 4.318 0 0 1 262.156 23.163 A 4.009 4.009 0 0 1 261.48 23.22 A 4.604 4.604 0 0 1 260.794 23.173 Q 260.443 23.12 260.163 23.007 A 1.773 1.773 0 0 1 259.56 22.62 A 2.001 2.001 0 0 1 259.013 21.569 A 2.912 2.912 0 0 1 258.96 21 A 5.973 5.973 0 0 1 259.046 20.02 Q 259.15 19.396 259.38 18.69 L 262.29 9.93 A 6.218 6.218 0 0 0 262.409 9.531 Q 262.569 8.918 262.5 8.55 A 0.592 0.592 0 0 0 262.391 8.292 Q 262.218 8.07 261.81 8.07 A 1.141 1.141 0 0 0 261.261 8.218 Q 261.085 8.314 260.909 8.472 A 2.79 2.79 0 0 0 260.685 8.7 A 3 3 0 0 0 260.385 9.117 Q 260.101 9.582 259.799 10.331 A 18.44 18.44 0 0 0 259.5 11.13 L 259.11 12.24 L 258.54 12.24 L 259.29 10.05 A 8.207 8.207 0 0 1 259.619 9.255 Q 259.951 8.563 260.355 8.13 A 4.26 4.26 0 0 1 260.895 7.638 Q 261.234 7.38 261.591 7.236 A 2.623 2.623 0 0 1 261.645 7.215 Q 262.32 6.96 262.92 6.96 A 4.399 4.399 0 0 1 263.516 6.997 Q 264.347 7.111 264.675 7.575 A 1.882 1.882 0 0 1 264.989 8.352 Q 265.046 8.677 265.014 9.058 A 3.625 3.625 0 0 1 265.005 9.15 Q 264.9 10.11 264.54 11.16 L 261.69 19.74 A 8.429 8.429 0 0 0 261.558 20.172 Q 261.043 22.049 262.094 22.239 A 1.444 1.444 0 0 0 262.35 22.26 A 1.865 1.865 0 0 0 263.021 22.128 Q 263.281 22.028 263.552 21.853 A 4.155 4.155 0 0 0 263.88 21.615 A 6.265 6.265 0 0 0 264.537 21.004 Q 264.844 20.677 265.155 20.271 A 13.026 13.026 0 0 0 265.53 19.755 A 18.324 18.324 0 0 0 266.314 18.511 Q 266.646 17.937 266.976 17.287 A 30.386 30.386 0 0 0 267.195 16.845 A 36.504 36.504 0 0 0 268.104 14.815 A 46.653 46.653 0 0 0 268.785 13.065 A 47.06 47.06 0 0 0 269.773 10.049 A 55.56 55.56 0 0 0 270.18 8.58 Z M 299.97 8.58 L 299.37 12.42 A 74.882 74.882 0 0 1 298.573 14.539 Q 297.919 16.196 297.3 17.49 A 26.028 26.028 0 0 1 296.56 18.929 Q 296.185 19.601 295.812 20.157 A 12.157 12.157 0 0 1 295.335 20.82 A 9.435 9.435 0 0 1 294.6 21.668 Q 294.195 22.079 293.785 22.373 A 4.757 4.757 0 0 1 293.355 22.65 A 4.318 4.318 0 0 1 291.946 23.163 A 4.009 4.009 0 0 1 291.27 23.22 A 4.604 4.604 0 0 1 290.584 23.173 Q 290.233 23.12 289.953 23.007 A 1.773 1.773 0 0 1 289.35 22.62 A 2.001 2.001 0 0 1 288.803 21.569 A 2.912 2.912 0 0 1 288.75 21 A 5.973 5.973 0 0 1 288.836 20.02 Q 288.94 19.396 289.17 18.69 L 292.08 9.93 A 6.218 6.218 0 0 0 292.199 9.531 Q 292.359 8.918 292.29 8.55 A 0.592 0.592 0 0 0 292.181 8.292 Q 292.008 8.07 291.6 8.07 A 1.141 1.141 0 0 0 291.051 8.218 Q 290.875 8.314 290.699 8.472 A 2.79 2.79 0 0 0 290.475 8.7 A 3 3 0 0 0 290.175 9.117 Q 289.891 9.582 289.589 10.331 A 18.44 18.44 0 0 0 289.29 11.13 L 288.9 12.24 L 288.33 12.24 L 289.08 10.05 A 8.207 8.207 0 0 1 289.409 9.255 Q 289.741 8.563 290.145 8.13 A 4.26 4.26 0 0 1 290.685 7.638 Q 291.024 7.38 291.381 7.236 A 2.623 2.623 0 0 1 291.435 7.215 Q 292.11 6.96 292.71 6.96 A 4.399 4.399 0 0 1 293.306 6.997 Q 294.137 7.111 294.465 7.575 A 1.882 1.882 0 0 1 294.779 8.352 Q 294.836 8.677 294.804 9.058 A 3.625 3.625 0 0 1 294.795 9.15 Q 294.69 10.11 294.33 11.16 L 291.48 19.74 A 8.429 8.429 0 0 0 291.348 20.172 Q 290.833 22.049 291.884 22.239 A 1.444 1.444 0 0 0 292.14 22.26 A 1.865 1.865 0 0 0 292.811 22.128 Q 293.071 22.028 293.342 21.853 A 4.155 4.155 0 0 0 293.67 21.615 A 6.265 6.265 0 0 0 294.327 21.004 Q 294.634 20.677 294.945 20.271 A 13.026 13.026 0 0 0 295.32 19.755 A 18.324 18.324 0 0 0 296.104 18.511 Q 296.436 17.937 296.766 17.287 A 30.386 30.386 0 0 0 296.985 16.845 A 36.504 36.504 0 0 0 297.894 14.815 A 46.653 46.653 0 0 0 298.575 13.065 A 47.06 47.06 0 0 0 299.563 10.049 A 55.56 55.56 0 0 0 299.97 8.58 Z M 164.1 21.06 L 164.64 17.82 Q 165.507 15.18 166.333 13.237 A 29.857 29.857 0 0 1 167.13 11.505 A 19.272 19.272 0 0 1 167.881 10.142 Q 168.682 8.828 169.49 8.09 A 5.463 5.463 0 0 1 169.545 8.04 A 4.897 4.897 0 0 1 170.461 7.387 A 3.36 3.36 0 0 1 172.08 6.96 A 3.056 3.056 0 0 1 173.203 7.159 A 2.758 2.758 0 0 1 174.345 8.01 Q 175.2 9.06 175.2 11.19 A 11.33 11.33 0 0 1 175.106 12.608 Q 175.013 13.35 174.825 14.16 Q 174.45 15.78 173.715 17.37 Q 172.98 18.96 171.915 20.295 A 8.832 8.832 0 0 1 170.059 22.051 A 8.135 8.135 0 0 1 169.47 22.425 A 6.009 6.009 0 0 1 166.462 23.22 A 7.074 7.074 0 0 1 166.41 23.22 Q 165.51 23.22 164.805 22.68 A 2.447 2.447 0 0 1 164.043 21.683 A 3.375 3.375 0 0 1 163.86 21.12 L 164.1 20.52 Q 164.499 21.575 165.02 22.034 A 1.765 1.765 0 0 0 165.075 22.08 Q 165.63 22.53 166.38 22.53 Q 167.4 22.53 168.33 21.735 Q 169.202 20.99 169.942 19.783 A 11.596 11.596 0 0 0 170.04 19.62 A 16.681 16.681 0 0 0 171.02 17.67 A 19.681 19.681 0 0 0 171.405 16.695 Q 171.99 15.09 172.305 13.485 A 17.827 17.827 0 0 0 172.541 11.944 A 13.353 13.353 0 0 0 172.62 10.53 A 7.443 7.443 0 0 0 172.59 9.841 Q 172.515 9.029 172.245 8.565 A 1.53 1.53 0 0 0 171.983 8.225 A 1.078 1.078 0 0 0 171.21 7.92 A 1.389 1.389 0 0 0 170.631 8.058 Q 170.185 8.263 169.685 8.769 A 6.563 6.563 0 0 0 169.455 9.015 A 10.873 10.873 0 0 0 168.72 9.946 Q 168.103 10.813 167.475 11.985 A 31.969 31.969 0 0 0 166.382 14.242 A 40.767 40.767 0 0 0 165.585 16.2 Q 164.7 18.54 164.1 21.06 Z M 0 22.8 L 0.09 22.2 A 10.447 10.447 0 0 0 0.65 22.151 Q 1.195 22.087 1.567 21.972 A 2.935 2.935 0 0 0 1.605 21.96 A 1.571 1.571 0 0 0 2.425 21.339 A 2.024 2.024 0 0 0 2.49 21.24 A 3.279 3.279 0 0 0 2.69 20.85 Q 2.874 20.431 3.037 19.824 A 12.252 12.252 0 0 0 3.09 19.62 L 7.02 4.74 A 11.698 11.698 0 0 0 7.151 4.218 Q 7.264 3.71 7.285 3.351 A 2.661 2.661 0 0 0 7.29 3.195 A 1.059 1.059 0 0 0 7.247 2.884 A 0.758 0.758 0 0 0 6.84 2.415 Q 6.495 2.242 5.761 2.185 A 9.363 9.363 0 0 0 5.28 2.16 L 5.37 1.56 Q 5.79 1.59 6.39 1.62 Q 6.99 1.65 7.68 1.65 L 9.03 1.65 A 51.922 51.922 0 0 1 9.758 1.624 A 69.622 69.622 0 0 1 10.56 1.605 A 1621.397 1621.397 0 0 0 12.17 1.576 A 1462.937 1462.937 0 0 0 12.195 1.575 A 99.77 99.77 0 0 1 12.76 1.566 Q 13.204 1.56 13.56 1.56 A 17.24 17.24 0 0 1 15.785 1.694 Q 18.411 2.037 19.92 3.255 A 5.482 5.482 0 0 1 21.872 6.578 A 8.333 8.333 0 0 1 22.02 8.19 Q 22.02 10.44 21.345 12.585 Q 20.67 14.73 19.395 16.575 Q 18.12 18.42 16.365 19.815 Q 14.61 21.21 12.45 22.005 A 13.12 13.12 0 0 1 8.494 22.784 A 15.179 15.179 0 0 1 7.8 22.8 Q 7.455 22.8 6.935 22.783 A 54.192 54.192 0 0 1 6.6 22.77 A 72.86 72.86 0 0 0 5.154 22.727 A 79.621 79.621 0 0 0 5.055 22.725 A 89.1 89.1 0 0 0 4.294 22.714 A 67.421 67.421 0 0 0 3.6 22.71 Q 2.91 22.71 2.22 22.725 Q 1.53 22.74 0.96 22.755 Q 0.39 22.77 0 22.8 Z M 53.07 18.96 L 53.67 19.2 A 8.577 8.577 0 0 1 52.817 20.414 A 10.657 10.657 0 0 1 52.17 21.12 Q 51.24 22.05 50.085 22.635 Q 48.93 23.22 47.64 23.22 A 4.727 4.727 0 0 1 46.367 23.057 A 3.52 3.52 0 0 1 44.76 22.11 A 3.502 3.502 0 0 1 43.954 20.743 Q 43.774 20.199 43.712 19.536 A 7.816 7.816 0 0 1 43.68 18.81 A 10.862 10.862 0 0 1 43.807 17.192 A 14.314 14.314 0 0 1 44.085 15.825 A 16.48 16.48 0 0 1 45.208 12.744 A 18.127 18.127 0 0 1 45.255 12.645 Q 46.02 11.07 47.13 9.795 Q 48.24 8.52 49.65 7.74 Q 51.06 6.96 52.74 6.96 A 4.335 4.335 0 0 1 53.934 7.118 A 3.583 3.583 0 0 1 55.02 7.635 A 2.245 2.245 0 0 1 55.709 8.383 Q 55.95 8.819 55.977 9.372 A 2.89 2.89 0 0 1 55.98 9.51 A 2.64 2.64 0 0 1 55.771 10.531 A 3.07 3.07 0 0 1 55.725 10.635 Q 55.47 11.19 54.99 11.55 A 1.799 1.799 0 0 1 54.037 11.903 A 2.286 2.286 0 0 1 53.85 11.91 A 1.827 1.827 0 0 1 53.505 11.88 Q 53.131 11.808 52.92 11.565 A 1.215 1.215 0 0 1 52.62 10.744 A 1.595 1.595 0 0 1 52.62 10.74 Q 52.62 9.87 53.31 9.255 Q 54 8.64 54.87 8.49 Q 54.57 8.07 54.09 7.815 Q 53.714 7.615 53.154 7.572 A 4.208 4.208 0 0 0 52.83 7.56 A 3.034 3.034 0 0 0 51.517 7.871 Q 51.04 8.098 50.565 8.49 A 7.631 7.631 0 0 0 49.505 9.573 Q 49.056 10.127 48.644 10.812 A 13.227 13.227 0 0 0 48.51 11.04 A 14.235 14.235 0 0 0 47.494 13.241 A 17.591 17.591 0 0 0 47.025 14.73 Q 46.47 16.8 46.47 19.08 A 6.332 6.332 0 0 0 46.514 19.853 Q 46.616 20.681 46.957 21.16 A 1.662 1.662 0 0 0 47.055 21.285 A 1.891 1.891 0 0 0 48.427 21.956 A 2.456 2.456 0 0 0 48.57 21.96 A 3.917 3.917 0 0 0 49.874 21.727 A 5.415 5.415 0 0 0 50.79 21.3 A 4.96 4.96 0 0 0 51.645 20.662 Q 52.035 20.305 52.424 19.83 A 12.026 12.026 0 0 0 53.07 18.96 Z M 244.56 18.96 L 245.16 19.2 A 8.577 8.577 0 0 1 244.307 20.414 A 10.657 10.657 0 0 1 243.66 21.12 Q 242.73 22.05 241.575 22.635 Q 240.42 23.22 239.13 23.22 A 4.727 4.727 0 0 1 237.857 23.057 A 3.52 3.52 0 0 1 236.25 22.11 A 3.502 3.502 0 0 1 235.444 20.743 Q 235.264 20.199 235.202 19.536 A 7.816 7.816 0 0 1 235.17 18.81 A 10.862 10.862 0 0 1 235.297 17.192 A 14.314 14.314 0 0 1 235.575 15.825 A 16.48 16.48 0 0 1 236.698 12.744 A 18.127 18.127 0 0 1 236.745 12.645 Q 237.51 11.07 238.62 9.795 Q 239.73 8.52 241.14 7.74 Q 242.55 6.96 244.23 6.96 A 4.335 4.335 0 0 1 245.424 7.118 A 3.583 3.583 0 0 1 246.51 7.635 A 2.245 2.245 0 0 1 247.199 8.383 Q 247.44 8.819 247.467 9.372 A 2.89 2.89 0 0 1 247.47 9.51 A 2.64 2.64 0 0 1 247.261 10.531 A 3.07 3.07 0 0 1 247.215 10.635 Q 246.96 11.19 246.48 11.55 A 1.799 1.799 0 0 1 245.527 11.903 A 2.286 2.286 0 0 1 245.34 11.91 A 1.827 1.827 0 0 1 244.995 11.88 Q 244.621 11.808 244.41 11.565 A 1.215 1.215 0 0 1 244.11 10.744 A 1.595 1.595 0 0 1 244.11 10.74 Q 244.11 9.87 244.8 9.255 Q 245.49 8.64 246.36 8.49 Q 246.06 8.07 245.58 7.815 Q 245.204 7.615 244.644 7.572 A 4.208 4.208 0 0 0 244.32 7.56 A 3.034 3.034 0 0 0 243.007 7.871 Q 242.53 8.098 242.055 8.49 A 7.631 7.631 0 0 0 240.995 9.573 Q 240.546 10.127 240.134 10.812 A 13.227 13.227 0 0 0 240 11.04 A 14.235 14.235 0 0 0 238.984 13.241 A 17.591 17.591 0 0 0 238.515 14.73 Q 237.96 16.8 237.96 19.08 A 6.332 6.332 0 0 0 238.004 19.853 Q 238.106 20.681 238.447 21.16 A 1.662 1.662 0 0 0 238.545 21.285 A 1.891 1.891 0 0 0 239.917 21.956 A 2.456 2.456 0 0 0 240.06 21.96 A 3.917 3.917 0 0 0 241.364 21.727 A 5.415 5.415 0 0 0 242.28 21.3 A 4.96 4.96 0 0 0 243.135 20.662 Q 243.525 20.305 243.914 19.83 A 12.026 12.026 0 0 0 244.56 18.96 Z M 143.91 22.8 L 147.66 10.44 A 7.13 7.13 0 0 0 147.854 9.75 A 5.741 5.741 0 0 0 147.945 9.24 Q 148.02 8.67 147.855 8.295 Q 147.69 7.92 147.12 7.92 Q 146.332 7.92 145.398 8.832 A 6.537 6.537 0 0 0 145.275 8.955 A 9.671 9.671 0 0 0 144.517 9.845 Q 143.882 10.682 143.235 11.835 Q 142.216 13.651 141.27 16.049 A 47.373 47.373 0 0 0 141.24 16.125 Q 140.28 18.57 139.53 21.36 L 140.52 16.56 A 67.045 67.045 0 0 1 141.365 14.457 Q 142.275 12.304 143.1 10.86 A 15.658 15.658 0 0 1 143.851 9.665 Q 144.253 9.09 144.655 8.649 A 6.059 6.059 0 0 1 145.515 7.86 A 4.675 4.675 0 0 1 146.812 7.171 A 4.057 4.057 0 0 1 148.11 6.96 A 3.356 3.356 0 0 1 148.608 6.995 Q 149.192 7.082 149.505 7.395 A 1.798 1.798 0 0 1 149.974 8.23 A 2.351 2.351 0 0 1 150.03 8.52 Q 150.108 9.12 150.017 9.787 A 5.886 5.886 0 0 1 149.985 9.99 A 21.092 21.092 0 0 1 149.714 11.309 A 19.151 19.151 0 0 1 149.67 11.49 L 146.61 22.8 L 143.91 22.8 Z M 33.48 22.35 A 2.622 2.622 0 0 0 33.865 22.505 A 3.036 3.036 0 0 0 34.005 22.545 Q 34.242 22.607 34.676 22.618 A 7.613 7.613 0 0 0 34.86 22.62 A 3.591 3.591 0 0 0 35.891 22.479 A 2.858 2.858 0 0 0 37.035 21.825 Q 37.847 21.07 37.888 19.679 A 5.08 5.08 0 0 0 37.89 19.53 Q 37.89 18.6 37.545 17.685 A 6.288 6.288 0 0 0 37.221 16.975 Q 36.881 16.329 36.33 15.57 Q 35.64 14.61 35.01 13.605 Q 34.38 12.6 34.38 11.22 A 4.442 4.442 0 0 1 34.528 10.051 A 3.62 3.62 0 0 1 35.01 8.985 Q 35.64 8.04 36.705 7.5 A 5.058 5.058 0 0 1 38.991 6.96 A 5.869 5.869 0 0 1 39.03 6.96 Q 39.9 6.96 40.74 7.17 A 3.164 3.164 0 0 1 41.595 7.516 A 2.743 2.743 0 0 1 42.135 7.935 Q 42.611 8.412 42.679 9.275 A 3.793 3.793 0 0 1 42.69 9.57 A 1.35 1.35 0 0 1 42.671 9.787 Q 42.639 9.981 42.555 10.215 Q 42.42 10.59 42.12 10.86 Q 41.82 11.13 41.31 11.13 Q 40.83 11.13 40.47 10.785 A 1.149 1.149 0 0 1 40.125 10.092 A 1.609 1.609 0 0 1 40.11 9.87 Q 40.11 9.33 40.335 8.835 A 4.225 4.225 0 0 1 40.701 8.192 A 5.158 5.158 0 0 1 40.95 7.86 A 2.146 2.146 0 0 0 40.342 7.603 Q 40.071 7.532 39.751 7.51 A 4.361 4.361 0 0 0 39.45 7.5 Q 38.34 7.5 37.59 8.25 A 2.454 2.454 0 0 0 36.954 9.387 Q 36.854 9.768 36.842 10.22 A 4.704 4.704 0 0 0 36.84 10.35 Q 36.84 11.04 37.05 11.565 A 4.545 4.545 0 0 0 37.309 12.101 Q 37.463 12.375 37.665 12.66 A 29.712 29.712 0 0 1 37.878 12.964 Q 38.202 13.432 38.613 14.058 A 81.208 81.208 0 0 1 38.64 14.1 A 21.664 21.664 0 0 1 39.408 15.354 A 17.129 17.129 0 0 1 39.9 16.29 Q 40.41 17.34 40.41 18.51 A 4.59 4.59 0 0 1 40.168 20.019 A 4.138 4.138 0 0 1 39.705 20.955 Q 39 22.02 37.83 22.62 A 5.504 5.504 0 0 1 35.512 23.215 A 6.474 6.474 0 0 1 35.25 23.22 Q 34.23 23.22 33.3 22.92 A 3.748 3.748 0 0 1 32.409 22.504 A 3.146 3.146 0 0 1 31.785 21.975 A 2.186 2.186 0 0 1 31.277 20.977 A 3.236 3.236 0 0 1 31.2 20.25 A 1.569 1.569 0 0 1 31.272 19.791 Q 31.328 19.609 31.426 19.419 A 2.711 2.711 0 0 1 31.455 19.365 Q 31.71 18.9 32.37 18.9 Q 33.09 18.9 33.39 19.485 A 2.748 2.748 0 0 1 33.682 20.557 A 3.306 3.306 0 0 1 33.69 20.79 A 5.257 5.257 0 0 1 33.674 21.217 Q 33.655 21.446 33.615 21.645 A 45.257 45.257 0 0 0 33.544 22.009 A 37.178 37.178 0 0 0 33.48 22.35 Z M 113.01 22.35 A 2.622 2.622 0 0 0 113.395 22.505 A 3.036 3.036 0 0 0 113.535 22.545 Q 113.772 22.607 114.206 22.618 A 7.613 7.613 0 0 0 114.39 22.62 A 3.591 3.591 0 0 0 115.421 22.479 A 2.858 2.858 0 0 0 116.565 21.825 Q 117.377 21.07 117.418 19.679 A 5.08 5.08 0 0 0 117.42 19.53 Q 117.42 18.6 117.075 17.685 A 6.288 6.288 0 0 0 116.751 16.975 Q 116.411 16.329 115.86 15.57 Q 115.17 14.61 114.54 13.605 Q 113.91 12.6 113.91 11.22 A 4.442 4.442 0 0 1 114.058 10.051 A 3.62 3.62 0 0 1 114.54 8.985 Q 115.17 8.04 116.235 7.5 A 5.058 5.058 0 0 1 118.521 6.96 A 5.869 5.869 0 0 1 118.56 6.96 Q 119.43 6.96 120.27 7.17 A 3.164 3.164 0 0 1 121.125 7.516 A 2.743 2.743 0 0 1 121.665 7.935 Q 122.141 8.412 122.209 9.275 A 3.793 3.793 0 0 1 122.22 9.57 A 1.35 1.35 0 0 1 122.201 9.787 Q 122.169 9.981 122.085 10.215 Q 121.95 10.59 121.65 10.86 Q 121.35 11.13 120.84 11.13 Q 120.36 11.13 120 10.785 A 1.149 1.149 0 0 1 119.655 10.092 A 1.609 1.609 0 0 1 119.64 9.87 Q 119.64 9.33 119.865 8.835 A 4.225 4.225 0 0 1 120.231 8.192 A 5.158 5.158 0 0 1 120.48 7.86 A 2.146 2.146 0 0 0 119.872 7.603 Q 119.601 7.532 119.281 7.51 A 4.361 4.361 0 0 0 118.98 7.5 Q 117.87 7.5 117.12 8.25 A 2.454 2.454 0 0 0 116.484 9.387 Q 116.384 9.768 116.372 10.22 A 4.704 4.704 0 0 0 116.37 10.35 Q 116.37 11.04 116.58 11.565 A 4.545 4.545 0 0 0 116.839 12.101 Q 116.993 12.375 117.195 12.66 A 29.712 29.712 0 0 1 117.408 12.964 Q 117.732 13.432 118.143 14.058 A 81.208 81.208 0 0 1 118.17 14.1 A 21.664 21.664 0 0 1 118.938 15.354 A 17.129 17.129 0 0 1 119.43 16.29 Q 119.94 17.34 119.94 18.51 A 4.59 4.59 0 0 1 119.698 20.019 A 4.138 4.138 0 0 1 119.235 20.955 Q 118.53 22.02 117.36 22.62 A 5.504 5.504 0 0 1 115.042 23.215 A 6.474 6.474 0 0 1 114.78 23.22 Q 113.76 23.22 112.83 22.92 A 3.748 3.748 0 0 1 111.939 22.504 A 3.146 3.146 0 0 1 111.315 21.975 A 2.186 2.186 0 0 1 110.807 20.977 A 3.236 3.236 0 0 1 110.73 20.25 A 1.569 1.569 0 0 1 110.802 19.791 Q 110.858 19.609 110.956 19.419 A 2.711 2.711 0 0 1 110.985 19.365 Q 111.24 18.9 111.9 18.9 Q 112.62 18.9 112.92 19.485 A 2.748 2.748 0 0 1 113.212 20.557 A 3.306 3.306 0 0 1 113.22 20.79 A 5.257 5.257 0 0 1 113.204 21.217 Q 113.185 21.446 113.145 21.645 A 45.257 45.257 0 0 0 113.074 22.009 A 37.178 37.178 0 0 0 113.01 22.35 Z M 306.24 22.35 A 2.622 2.622 0 0 0 306.625 22.505 A 3.036 3.036 0 0 0 306.765 22.545 Q 307.002 22.607 307.436 22.618 A 7.613 7.613 0 0 0 307.62 22.62 A 3.591 3.591 0 0 0 308.651 22.479 A 2.858 2.858 0 0 0 309.795 21.825 Q 310.607 21.07 310.648 19.679 A 5.08 5.08 0 0 0 310.65 19.53 Q 310.65 18.6 310.305 17.685 A 6.288 6.288 0 0 0 309.981 16.975 Q 309.641 16.329 309.09 15.57 Q 308.4 14.61 307.77 13.605 Q 307.14 12.6 307.14 11.22 A 4.442 4.442 0 0 1 307.288 10.051 A 3.62 3.62 0 0 1 307.77 8.985 Q 308.4 8.04 309.465 7.5 A 5.058 5.058 0 0 1 311.751 6.96 A 5.869 5.869 0 0 1 311.79 6.96 Q 312.66 6.96 313.5 7.17 A 3.164 3.164 0 0 1 314.355 7.516 A 2.743 2.743 0 0 1 314.895 7.935 Q 315.371 8.412 315.439 9.275 A 3.793 3.793 0 0 1 315.45 9.57 A 1.35 1.35 0 0 1 315.431 9.787 Q 315.399 9.981 315.315 10.215 Q 315.18 10.59 314.88 10.86 Q 314.58 11.13 314.07 11.13 Q 313.59 11.13 313.23 10.785 A 1.149 1.149 0 0 1 312.885 10.092 A 1.609 1.609 0 0 1 312.87 9.87 Q 312.87 9.33 313.095 8.835 A 4.225 4.225 0 0 1 313.461 8.192 A 5.158 5.158 0 0 1 313.71 7.86 A 2.146 2.146 0 0 0 313.102 7.603 Q 312.831 7.532 312.511 7.51 A 4.361 4.361 0 0 0 312.21 7.5 Q 311.1 7.5 310.35 8.25 A 2.454 2.454 0 0 0 309.714 9.387 Q 309.614 9.768 309.602 10.22 A 4.704 4.704 0 0 0 309.6 10.35 Q 309.6 11.04 309.81 11.565 A 4.545 4.545 0 0 0 310.069 12.101 Q 310.223 12.375 310.425 12.66 A 29.712 29.712 0 0 1 310.638 12.964 Q 310.962 13.432 311.373 14.058 A 81.208 81.208 0 0 1 311.4 14.1 A 21.664 21.664 0 0 1 312.168 15.354 A 17.129 17.129 0 0 1 312.66 16.29 Q 313.17 17.34 313.17 18.51 A 4.59 4.59 0 0 1 312.928 20.019 A 4.138 4.138 0 0 1 312.465 20.955 Q 311.76 22.02 310.59 22.62 A 5.504 5.504 0 0 1 308.272 23.215 A 6.474 6.474 0 0 1 308.01 23.22 Q 306.99 23.22 306.06 22.92 A 3.748 3.748 0 0 1 305.169 22.504 A 3.146 3.146 0 0 1 304.545 21.975 A 2.186 2.186 0 0 1 304.037 20.977 A 3.236 3.236 0 0 1 303.96 20.25 A 1.569 1.569 0 0 1 304.032 19.791 Q 304.088 19.609 304.186 19.419 A 2.711 2.711 0 0 1 304.215 19.365 Q 304.47 18.9 305.13 18.9 Q 305.85 18.9 306.15 19.485 A 2.748 2.748 0 0 1 306.442 20.557 A 3.306 3.306 0 0 1 306.45 20.79 A 5.257 5.257 0 0 1 306.434 21.217 Q 306.415 21.446 306.375 21.645 A 45.257 45.257 0 0 0 306.304 22.009 A 37.178 37.178 0 0 0 306.24 22.35 Z M 160.26 25.74 L 166.71 2.79 Q 167.43 2.76 168.135 2.67 A 6.778 6.778 0 0 0 169.015 2.5 A 5.745 5.745 0 0 0 169.44 2.37 L 162.84 25.44 Q 162.639 26.142 162.774 26.593 A 0.962 0.962 0 0 0 163.2 27.15 A 2.525 2.525 0 0 0 163.829 27.424 Q 164.422 27.599 165.257 27.6 A 8.019 8.019 0 0 0 165.27 27.6 L 165.09 28.23 Q 164.631 28.207 163.881 28.175 A 381.979 381.979 0 0 0 163.395 28.155 A 53.182 53.182 0 0 0 161.974 28.116 A 63.173 63.173 0 0 0 161.07 28.11 Q 160.14 28.11 159.18 28.155 A 203.016 203.016 0 0 0 158.73 28.177 Q 158.1 28.208 157.74 28.23 L 157.92 27.6 A 4.563 4.563 0 0 0 158.466 27.57 Q 159.045 27.5 159.384 27.268 A 1.189 1.189 0 0 0 159.48 27.195 A 1.678 1.678 0 0 0 159.789 26.84 Q 160.026 26.485 160.206 25.921 A 6.349 6.349 0 0 0 160.26 25.74 Z M 24.18 19.02 L 27.39 9.93 A 6.549 6.549 0 0 0 27.493 9.598 Q 27.88 8.217 27.14 8.084 A 0.966 0.966 0 0 0 26.97 8.07 A 1.268 1.268 0 0 0 26.189 8.345 Q 26.005 8.485 25.834 8.696 A 2.836 2.836 0 0 0 25.74 8.82 Q 25.2 9.57 24.6 11.13 L 24.18 12.24 L 23.61 12.24 L 24.39 10.05 A 7.914 7.914 0 0 1 24.721 9.255 Q 25.057 8.563 25.47 8.13 A 4.198 4.198 0 0 1 26.056 7.615 A 3.082 3.082 0 0 1 26.805 7.215 Q 27.486 6.969 28.069 6.96 A 2.848 2.848 0 0 1 28.11 6.96 Q 29.07 6.96 29.52 7.35 Q 29.97 7.74 30.06 8.37 A 3.442 3.442 0 0 1 30.094 8.857 Q 30.094 9.145 30.049 9.452 A 4.958 4.958 0 0 1 30 9.735 Q 29.85 10.47 29.61 11.16 L 26.4 20.25 A 5.384 5.384 0 0 0 26.283 20.633 Q 26.144 21.159 26.188 21.515 A 1.175 1.175 0 0 0 26.205 21.615 A 0.679 0.679 0 0 0 26.307 21.864 Q 26.419 22.026 26.631 22.081 A 0.982 0.982 0 0 0 26.88 22.11 Q 27.48 22.11 28.02 21.45 A 3.732 3.732 0 0 0 28.324 21.008 Q 28.625 20.506 28.959 19.706 A 21.445 21.445 0 0 0 29.22 19.05 L 29.64 17.94 L 30.21 17.94 L 29.43 20.13 A 7.631 7.631 0 0 1 29.09 20.938 Q 28.89 21.342 28.66 21.662 A 3.862 3.862 0 0 1 28.41 21.975 A 4.218 4.218 0 0 1 27.838 22.515 A 3.13 3.13 0 0 1 27.12 22.935 A 3.715 3.715 0 0 1 26.128 23.198 A 3.361 3.361 0 0 1 25.74 23.22 Q 24.624 23.22 24.137 22.771 A 1.114 1.114 0 0 1 24 22.62 Q 23.577 22.056 23.658 21.173 A 3.455 3.455 0 0 1 23.67 21.06 A 8.495 8.495 0 0 1 23.89 19.942 A 11.009 11.009 0 0 1 24.18 19.02 Z M 227.1 19.02 L 230.31 9.93 A 6.549 6.549 0 0 0 230.413 9.598 Q 230.8 8.217 230.06 8.084 A 0.966 0.966 0 0 0 229.89 8.07 A 1.268 1.268 0 0 0 229.109 8.345 Q 228.925 8.485 228.754 8.696 A 2.836 2.836 0 0 0 228.66 8.82 Q 228.12 9.57 227.52 11.13 L 227.1 12.24 L 226.53 12.24 L 227.31 10.05 A 7.914 7.914 0 0 1 227.641 9.255 Q 227.977 8.563 228.39 8.13 A 4.198 4.198 0 0 1 228.976 7.615 A 3.082 3.082 0 0 1 229.725 7.215 Q 230.406 6.969 230.989 6.96 A 2.848 2.848 0 0 1 231.03 6.96 Q 231.99 6.96 232.44 7.35 Q 232.89 7.74 232.98 8.37 A 3.442 3.442 0 0 1 233.014 8.857 Q 233.014 9.145 232.969 9.452 A 4.958 4.958 0 0 1 232.92 9.735 Q 232.77 10.47 232.53 11.16 L 229.32 20.25 A 5.384 5.384 0 0 0 229.203 20.633 Q 229.064 21.159 229.108 21.515 A 1.175 1.175 0 0 0 229.125 21.615 A 0.679 0.679 0 0 0 229.227 21.864 Q 229.339 22.026 229.551 22.081 A 0.982 0.982 0 0 0 229.8 22.11 Q 230.4 22.11 230.94 21.45 A 3.732 3.732 0 0 0 231.244 21.008 Q 231.545 20.506 231.879 19.706 A 21.445 21.445 0 0 0 232.14 19.05 L 232.56 17.94 L 233.13 17.94 L 232.35 20.13 A 7.631 7.631 0 0 1 232.01 20.938 Q 231.81 21.342 231.58 21.662 A 3.862 3.862 0 0 1 231.33 21.975 A 4.218 4.218 0 0 1 230.758 22.515 A 3.13 3.13 0 0 1 230.04 22.935 A 3.715 3.715 0 0 1 229.048 23.198 A 3.361 3.361 0 0 1 228.66 23.22 Q 227.544 23.22 227.057 22.771 A 1.114 1.114 0 0 1 226.92 22.62 Q 226.497 22.056 226.578 21.173 A 3.455 3.455 0 0 1 226.59 21.06 A 8.495 8.495 0 0 1 226.81 19.942 A 11.009 11.009 0 0 1 227.1 19.02 Z M 102.27 2.4 L 97.2 20.25 A 3.557 3.557 0 0 0 97.134 20.535 Q 96.991 21.305 97.335 21.675 A 1.345 1.345 0 0 0 98.219 22.101 A 1.851 1.851 0 0 0 98.4 22.11 A 1.696 1.696 0 0 0 99.103 21.95 Q 99.339 21.844 99.576 21.666 A 3.4 3.4 0 0 0 99.735 21.54 A 2.326 2.326 0 0 0 100.111 21.121 Q 100.439 20.665 100.764 19.9 A 14.028 14.028 0 0 0 101.07 19.11 L 101.49 17.94 L 102.06 17.94 L 101.43 19.83 Q 100.77 21.78 99.735 22.5 A 4.027 4.027 0 0 1 97.701 23.206 A 5.028 5.028 0 0 1 97.32 23.22 A 4.614 4.614 0 0 1 96.612 23.169 Q 95.89 23.057 95.445 22.695 A 2.038 2.038 0 0 1 94.773 21.663 A 2.844 2.844 0 0 1 94.68 21.21 A 4.001 4.001 0 0 1 94.65 20.717 Q 94.649 19.993 94.887 19.135 A 8.352 8.352 0 0 1 94.92 19.02 L 99.57 2.82 Q 100.29 2.79 100.995 2.7 A 6.458 6.458 0 0 0 101.744 2.561 A 5.1 5.1 0 0 0 102.27 2.4 Z M 256.29 2.4 L 251.22 20.25 A 3.557 3.557 0 0 0 251.154 20.535 Q 251.011 21.305 251.355 21.675 A 1.345 1.345 0 0 0 252.239 22.101 A 1.851 1.851 0 0 0 252.42 22.11 A 1.696 1.696 0 0 0 253.123 21.95 Q 253.359 21.844 253.596 21.666 A 3.4 3.4 0 0 0 253.755 21.54 A 2.326 2.326 0 0 0 254.131 21.121 Q 254.459 20.665 254.784 19.9 A 14.028 14.028 0 0 0 255.09 19.11 L 255.51 17.94 L 256.08 17.94 L 255.45 19.83 Q 254.79 21.78 253.755 22.5 A 4.027 4.027 0 0 1 251.721 23.206 A 5.028 5.028 0 0 1 251.34 23.22 A 4.614 4.614 0 0 1 250.632 23.169 Q 249.91 23.057 249.465 22.695 A 2.038 2.038 0 0 1 248.793 21.663 A 2.844 2.844 0 0 1 248.7 21.21 A 4.001 4.001 0 0 1 248.67 20.717 Q 248.669 19.993 248.907 19.135 A 8.352 8.352 0 0 1 248.94 19.02 L 253.59 2.82 Q 254.31 2.79 255.015 2.7 A 6.458 6.458 0 0 0 255.764 2.561 A 5.1 5.1 0 0 0 256.29 2.4 Z M 9.81 4.68 L 5.88 19.68 Q 5.714 20.282 5.648 20.748 A 4.411 4.411 0 0 0 5.61 21.135 A 1.546 1.546 0 0 0 5.608 21.214 Q 5.608 21.739 5.985 21.99 A 1.169 1.169 0 0 0 6.273 22.124 Q 6.694 22.26 7.44 22.26 A 11.801 11.801 0 0 0 9.832 22.027 A 9.621 9.621 0 0 0 11.61 21.48 Q 13.47 20.7 14.88 19.29 Q 16.29 17.88 17.235 16.02 A 16.639 16.639 0 0 0 18.533 12.512 A 18.806 18.806 0 0 0 18.66 11.97 Q 19.14 9.78 19.14 7.44 A 7.558 7.558 0 0 0 18.994 5.902 Q 18.802 4.982 18.361 4.285 A 3.985 3.985 0 0 0 17.64 3.435 Q 16.14 2.1 12.72 2.1 A 6.304 6.304 0 0 0 12.168 2.123 Q 11.643 2.169 11.28 2.31 A 1.677 1.677 0 0 0 10.531 2.893 A 2.172 2.172 0 0 0 10.41 3.075 A 3.67 3.67 0 0 0 10.2 3.493 Q 10.005 3.943 9.834 4.587 A 12.602 12.602 0 0 0 9.81 4.68 Z M 92.1 6.96 L 88.38 20.25 Q 88.17 21.06 88.185 21.585 A 0.66 0.66 0 0 0 88.227 21.809 Q 88.34 22.097 88.76 22.11 A 1.305 1.305 0 0 0 88.8 22.11 A 1.274 1.274 0 0 0 89.526 21.876 Q 89.714 21.748 89.892 21.551 A 2.84 2.84 0 0 0 90.015 21.405 Q 90.477 20.819 90.948 19.579 A 18.125 18.125 0 0 0 91.14 19.05 L 91.53 17.94 L 92.1 17.94 L 91.35 20.13 A 7.707 7.707 0 0 1 91.038 20.925 Q 90.858 21.314 90.652 21.622 A 3.442 3.442 0 0 1 90.315 22.05 A 4.26 4.26 0 0 1 89.775 22.543 Q 89.436 22.8 89.079 22.944 A 2.623 2.623 0 0 1 89.025 22.965 Q 88.35 23.22 87.72 23.22 Q 87.24 23.22 86.82 23.01 A 1.468 1.468 0 0 1 86.377 22.677 A 1.379 1.379 0 0 1 86.19 22.41 A 1.842 1.842 0 0 1 86.047 21.954 Q 85.98 21.585 86.025 21.12 A 8.352 8.352 0 0 1 86.097 20.58 Q 86.188 20.019 86.369 19.27 A 29.856 29.856 0 0 1 86.43 19.02 L 89.37 7.38 A 16.81 16.81 0 0 0 90.803 7.263 A 15.387 15.387 0 0 0 90.825 7.26 A 6.458 6.458 0 0 0 91.574 7.121 A 5.1 5.1 0 0 0 92.1 6.96 Z M 273.21 6.96 L 269.49 20.25 Q 269.28 21.06 269.295 21.585 A 0.66 0.66 0 0 0 269.337 21.809 Q 269.45 22.097 269.87 22.11 A 1.305 1.305 0 0 0 269.91 22.11 A 1.274 1.274 0 0 0 270.636 21.876 Q 270.824 21.748 271.002 21.551 A 2.84 2.84 0 0 0 271.125 21.405 Q 271.587 20.819 272.058 19.579 A 18.125 18.125 0 0 0 272.25 19.05 L 272.64 17.94 L 273.21 17.94 L 272.46 20.13 A 7.707 7.707 0 0 1 272.148 20.925 Q 271.968 21.314 271.762 21.622 A 3.442 3.442 0 0 1 271.425 22.05 A 4.26 4.26 0 0 1 270.885 22.543 Q 270.546 22.8 270.189 22.944 A 2.623 2.623 0 0 1 270.135 22.965 Q 269.46 23.22 268.83 23.22 Q 268.35 23.22 267.93 23.01 A 1.468 1.468 0 0 1 267.487 22.677 A 1.379 1.379 0 0 1 267.3 22.41 A 1.842 1.842 0 0 1 267.157 21.954 Q 267.09 21.585 267.135 21.12 A 8.352 8.352 0 0 1 267.207 20.58 Q 267.298 20.019 267.479 19.27 A 29.856 29.856 0 0 1 267.54 19.02 L 270.48 7.38 A 16.81 16.81 0 0 0 271.913 7.263 A 15.387 15.387 0 0 0 271.935 7.26 A 6.458 6.458 0 0 0 272.684 7.121 A 5.1 5.1 0 0 0 273.21 6.96 Z M 303 6.96 L 299.28 20.25 Q 299.07 21.06 299.085 21.585 A 0.66 0.66 0 0 0 299.127 21.809 Q 299.24 22.097 299.66 22.11 A 1.305 1.305 0 0 0 299.7 22.11 A 1.274 1.274 0 0 0 300.426 21.876 Q 300.614 21.748 300.792 21.551 A 2.84 2.84 0 0 0 300.915 21.405 Q 301.377 20.819 301.848 19.579 A 18.125 18.125 0 0 0 302.04 19.05 L 302.43 17.94 L 303 17.94 L 302.25 20.13 A 7.707 7.707 0 0 1 301.938 20.925 Q 301.758 21.314 301.552 21.622 A 3.442 3.442 0 0 1 301.215 22.05 A 4.26 4.26 0 0 1 300.675 22.543 Q 300.336 22.8 299.979 22.944 A 2.623 2.623 0 0 1 299.925 22.965 Q 299.25 23.22 298.62 23.22 Q 298.14 23.22 297.72 23.01 A 1.468 1.468 0 0 1 297.277 22.677 A 1.379 1.379 0 0 1 297.09 22.41 A 1.842 1.842 0 0 1 296.947 21.954 Q 296.88 21.585 296.925 21.12 A 8.352 8.352 0 0 1 296.997 20.58 Q 297.088 20.019 297.269 19.27 A 29.856 29.856 0 0 1 297.33 19.02 L 300.27 7.38 A 16.81 16.81 0 0 0 301.703 7.263 A 15.387 15.387 0 0 0 301.725 7.26 A 6.458 6.458 0 0 0 302.474 7.121 A 5.1 5.1 0 0 0 303 6.96 Z M 195.78 11.16 L 192.84 22.8 L 190.23 22.8 L 193.83 9.93 Q 194.091 9.042 194.045 8.609 A 0.866 0.866 0 0 0 194.025 8.49 A 0.563 0.563 0 0 0 193.912 8.26 Q 193.753 8.07 193.41 8.07 Q 192.803 8.07 192.298 8.653 A 2.769 2.769 0 0 0 192.21 8.76 A 3.975 3.975 0 0 0 191.902 9.227 Q 191.599 9.753 191.279 10.571 A 19.931 19.931 0 0 0 191.07 11.13 L 190.68 12.24 L 190.11 12.24 L 190.86 10.05 A 8.207 8.207 0 0 1 191.189 9.255 Q 191.521 8.563 191.925 8.13 A 4.26 4.26 0 0 1 192.465 7.638 Q 192.804 7.38 193.161 7.236 A 2.623 2.623 0 0 1 193.215 7.215 Q 193.89 6.96 194.49 6.96 A 3.279 3.279 0 0 1 194.931 6.988 Q 195.437 7.057 195.711 7.298 A 0.919 0.919 0 0 1 195.765 7.35 Q 196.14 7.74 196.185 8.37 Q 196.23 9 196.095 9.735 Q 195.96 10.47 195.78 11.16 Z M 281.25 11.16 L 278.31 22.8 L 275.7 22.8 L 279.3 9.93 Q 279.561 9.042 279.515 8.609 A 0.866 0.866 0 0 0 279.495 8.49 A 0.563 0.563 0 0 0 279.382 8.26 Q 279.223 8.07 278.88 8.07 Q 278.273 8.07 277.768 8.653 A 2.769 2.769 0 0 0 277.68 8.76 A 3.975 3.975 0 0 0 277.372 9.227 Q 277.069 9.753 276.749 10.571 A 19.931 19.931 0 0 0 276.54 11.13 L 276.15 12.24 L 275.58 12.24 L 276.33 10.05 A 8.207 8.207 0 0 1 276.659 9.255 Q 276.991 8.563 277.395 8.13 A 4.26 4.26 0 0 1 277.935 7.638 Q 278.274 7.38 278.631 7.236 A 2.623 2.623 0 0 1 278.685 7.215 Q 279.36 6.96 279.96 6.96 A 3.279 3.279 0 0 1 280.401 6.988 Q 280.907 7.057 281.181 7.298 A 0.919 0.919 0 0 1 281.235 7.35 Q 281.61 7.74 281.655 8.37 Q 281.7 9 281.565 9.735 Q 281.43 10.47 281.25 11.16 Z M 142.11 11.16 L 139.17 22.8 L 136.56 22.8 L 140.16 9.93 A 3.175 3.175 0 0 0 140.22 9.725 Q 140.276 9.511 140.325 9.225 A 2.341 2.341 0 0 0 140.356 8.961 Q 140.372 8.678 140.31 8.43 A 0.428 0.428 0 0 0 140.029 8.115 Q 139.943 8.083 139.832 8.074 A 1.133 1.133 0 0 0 139.74 8.07 Q 139.133 8.07 138.628 8.653 A 2.769 2.769 0 0 0 138.54 8.76 A 3.975 3.975 0 0 0 138.232 9.227 Q 137.929 9.753 137.609 10.571 A 19.931 19.931 0 0 0 137.4 11.13 L 137.01 12.24 L 136.44 12.24 L 137.19 10.05 A 8.207 8.207 0 0 1 137.519 9.255 Q 137.851 8.563 138.255 8.13 A 4.26 4.26 0 0 1 138.795 7.638 Q 139.134 7.38 139.491 7.236 A 2.623 2.623 0 0 1 139.545 7.215 Q 140.22 6.96 140.82 6.96 A 3.161 3.161 0 0 1 141.274 6.99 Q 141.827 7.071 142.11 7.365 Q 142.5 7.77 142.545 8.415 Q 142.58 8.921 142.496 9.472 A 5.864 5.864 0 0 1 142.44 9.78 A 23.979 23.979 0 0 1 142.198 10.826 A 21.507 21.507 0 0 1 142.11 11.16 Z M 193.17 21.36 L 193.92 17.52 A 95.869 95.869 0 0 1 194.644 15.446 Q 195.231 13.826 195.765 12.57 A 27.697 27.697 0 0 1 196.401 11.177 Q 196.933 10.096 197.46 9.315 A 8.814 8.814 0 0 1 198.043 8.541 Q 198.367 8.158 198.698 7.875 A 4.116 4.116 0 0 1 199.185 7.515 A 3.554 3.554 0 0 1 200.511 7.004 A 3.414 3.414 0 0 1 201.06 6.96 A 2.358 2.358 0 0 1 201.593 7.017 Q 201.983 7.107 202.261 7.342 A 1.457 1.457 0 0 1 202.365 7.44 A 1.631 1.631 0 0 1 202.816 8.42 A 2.213 2.213 0 0 1 202.83 8.67 Q 202.83 9.27 202.53 9.765 A 2.33 2.33 0 0 1 201.962 10.409 A 2.212 2.212 0 0 1 201.765 10.545 Q 201.3 10.83 200.73 10.83 A 1.509 1.509 0 0 1 200.315 10.776 A 1.199 1.199 0 0 1 199.875 10.545 Q 199.53 10.26 199.53 9.75 A 2.19 2.19 0 0 1 199.578 9.283 A 1.758 1.758 0 0 1 199.71 8.895 Q 199.89 8.52 200.19 8.25 Q 200.49 7.98 200.88 7.83 Q 200.82 7.77 200.745 7.74 A 0.365 0.365 0 0 0 200.682 7.722 Q 200.625 7.71 200.55 7.71 Q 199.983 7.71 199.386 8.145 A 3.706 3.706 0 0 0 199.125 8.355 Q 198.39 9 197.625 10.215 Q 196.968 11.259 196.31 12.658 A 33.318 33.318 0 0 0 196.095 13.125 Q 195.33 14.82 194.595 16.89 A 71.485 71.485 0 0 0 193.694 19.607 A 86.561 86.561 0 0 0 193.17 21.36 Z M 278.64 21.36 L 279.39 17.52 A 95.869 95.869 0 0 1 280.114 15.446 Q 280.701 13.826 281.235 12.57 A 27.697 27.697 0 0 1 281.871 11.177 Q 282.403 10.096 282.93 9.315 A 8.814 8.814 0 0 1 283.513 8.541 Q 283.837 8.158 284.168 7.875 A 4.116 4.116 0 0 1 284.655 7.515 A 3.554 3.554 0 0 1 285.981 7.004 A 3.414 3.414 0 0 1 286.53 6.96 A 2.358 2.358 0 0 1 287.063 7.017 Q 287.453 7.107 287.731 7.342 A 1.457 1.457 0 0 1 287.835 7.44 A 1.631 1.631 0 0 1 288.286 8.42 A 2.213 2.213 0 0 1 288.3 8.67 Q 288.3 9.27 288 9.765 A 2.33 2.33 0 0 1 287.432 10.409 A 2.212 2.212 0 0 1 287.235 10.545 Q 286.77 10.83 286.2 10.83 A 1.509 1.509 0 0 1 285.785 10.776 A 1.199 1.199 0 0 1 285.345 10.545 Q 285 10.26 285 9.75 A 2.19 2.19 0 0 1 285.048 9.283 A 1.758 1.758 0 0 1 285.18 8.895 Q 285.36 8.52 285.66 8.25 Q 285.96 7.98 286.35 7.83 Q 286.29 7.77 286.215 7.74 A 0.365 0.365 0 0 0 286.152 7.722 Q 286.095 7.71 286.02 7.71 Q 285.453 7.71 284.856 8.145 A 3.706 3.706 0 0 0 284.595 8.355 Q 283.86 9 283.095 10.215 Q 282.438 11.259 281.78 12.658 A 33.318 33.318 0 0 0 281.565 13.125 Q 280.8 14.82 280.065 16.89 A 71.485 71.485 0 0 0 279.164 19.607 A 86.561 86.561 0 0 0 278.64 21.36 Z M 160.8 12.48 L 160.47 12.09 A 52.361 52.361 0 0 0 162.141 10.389 A 46.92 46.92 0 0 0 162.66 9.825 A 15.905 15.905 0 0 0 163.727 8.507 A 21.091 21.091 0 0 0 164.64 7.14 A 20.76 20.76 0 0 0 165.364 5.856 Q 165.744 5.128 166.128 4.277 A 41.719 41.719 0 0 0 166.59 3.21 L 166.68 3.69 A 20.299 20.299 0 0 1 165.956 5.606 A 15.532 15.532 0 0 1 165.105 7.275 A 19.708 19.708 0 0 1 163.64 9.424 A 17.391 17.391 0 0 1 163.11 10.065 Q 162.03 11.31 160.8 12.48 Z M 95.55 7.38 L 104.82 7.38 L 104.73 7.98 L 95.4 7.98 L 95.55 7.38 Z M 249.57 7.38 L 258.84 7.38 L 258.75 7.98 L 249.42 7.98 L 249.57 7.38 Z M 316.413 20.247 A 2.184 2.184 0 0 0 315.87 21.69 A 1.965 1.965 0 0 0 315.875 21.832 A 1.482 1.482 0 0 0 316.29 22.785 A 1.372 1.372 0 0 0 316.847 23.14 A 1.634 1.634 0 0 0 317.37 23.22 Q 317.97 23.22 318.48 22.905 Q 318.99 22.59 319.305 22.065 Q 319.62 21.54 319.62 20.94 Q 319.62 20.28 319.2 19.83 Q 318.78 19.38 318.09 19.38 Q 317.25 19.38 316.56 20.085 A 2.919 2.919 0 0 0 316.413 20.247 Z M 28.32 1.92 Q 28.47 1.14 29.115 0.57 A 2.447 2.447 0 0 1 29.677 0.191 A 1.907 1.907 0 0 1 30.51 0 A 1.711 1.711 0 0 1 31.046 0.08 A 1.382 1.382 0 0 1 31.725 0.57 Q 32.132 1.104 32.027 1.821 A 2.272 2.272 0 0 1 32.01 1.92 Q 31.86 2.7 31.215 3.27 A 2.368 2.368 0 0 1 30.592 3.674 A 1.991 1.991 0 0 1 29.79 3.84 A 1.963 1.963 0 0 1 29.778 3.84 Q 29.466 3.838 29.208 3.737 A 1.397 1.397 0 0 1 28.605 3.27 Q 28.198 2.737 28.303 2.019 A 2.272 2.272 0 0 1 28.32 1.92 Z M 231.24 1.92 Q 231.39 1.14 232.035 0.57 A 2.447 2.447 0 0 1 232.597 0.191 A 1.907 1.907 0 0 1 233.43 0 A 1.711 1.711 0 0 1 233.966 0.08 A 1.382 1.382 0 0 1 234.645 0.57 Q 235.052 1.104 234.947 1.821 A 2.272 2.272 0 0 1 234.93 1.92 Q 234.78 2.7 234.135 3.27 A 2.368 2.368 0 0 1 233.512 3.674 A 1.991 1.991 0 0 1 232.71 3.84 A 1.963 1.963 0 0 1 232.698 3.84 Q 232.386 3.838 232.128 3.737 A 1.397 1.397 0 0 1 231.525 3.27 Q 231.118 2.737 231.223 2.019 A 2.272 2.272 0 0 1 231.24 1.92 Z" vector-effect="non-scaling-stroke"/></g></svg>